<svg width="49" height="48" viewBox="0 0 49 48" fill="none" xmlns="http://www.w3.org/2000/svg">
<rect width="48.2124" height="48" rx="8" fill="white"/>
<path d="M28.4687 11.7486H25.1729C25.0961 11.1392 24.7257 10.606 24.1813 10.3214C23.637 10.0367 22.9879 10.0368 22.4436 10.3214C21.8993 10.606 21.5289 11.1392 21.4521 11.7486H18.1562C17.9076 11.7488 17.6693 11.8478 17.4935 12.0233C17.3179 12.1991 17.2189 12.4375 17.2187 12.6861V13.3892H14.4292C14.0503 13.3896 13.687 13.5403 13.4192 13.8083C13.1511 14.0762 13.0004 14.4395 13 14.8184V38.6787C13.0004 39.0576 13.1511 39.4209 13.4192 39.6888C13.687 39.9568 14.0503 40.1075 14.4292 40.1079H31.3284L30.3909 39.1704H14.4292C14.1578 39.1702 13.9377 38.9501 13.9375 38.6786V14.8184C13.9377 14.547 14.1578 14.3268 14.4292 14.3266H17.2187V15.0298C17.2189 15.2784 17.3179 15.5167 17.4935 15.6925C17.6693 15.8681 17.9076 15.9671 18.1562 15.9673H28.4687C28.7173 15.9671 28.9557 15.8681 29.1315 15.6925C29.307 15.5167 29.406 15.2784 29.4062 15.0298V14.3266H32.1957C32.4671 14.3268 32.6873 14.547 32.6875 14.8184V34.0613L33.625 34.9988V14.8184C33.6246 14.4394 33.4739 14.0762 33.2058 13.8083C32.938 13.5403 32.5747 13.3896 32.1957 13.3892H29.4063V12.686C29.406 12.4374 29.3071 12.1991 29.1315 12.0233C28.9557 11.8477 28.7173 11.7488 28.4687 11.7486ZM28.4687 15.0298H18.1562V12.6861H21.9274C22.0665 12.6861 22.1988 12.6241 22.2877 12.517C22.3767 12.4098 22.4135 12.2686 22.388 12.1317C22.3794 12.0826 22.375 12.0327 22.375 11.9829C22.375 11.6479 22.5537 11.3384 22.8437 11.171C23.1338 11.0036 23.4912 11.0036 23.7813 11.171C24.0713 11.3384 24.25 11.6479 24.25 11.9829C24.25 12.0328 24.2456 12.0826 24.237 12.1317C24.2115 12.2686 24.2483 12.4098 24.3373 12.517C24.4262 12.6241 24.5585 12.6861 24.6976 12.6861L28.4688 12.6854L28.4687 15.0298Z" fill="black" fill-opacity="0.7"/>
<path d="M16.9846 35.6552H18.1565C18.4154 35.6552 18.6252 35.4453 18.6252 35.1864C18.6252 34.9275 18.4154 34.7177 18.1565 34.7177H16.9846C16.7258 34.7177 16.5159 34.9275 16.5159 35.1864C16.5159 35.4453 16.7258 35.6552 16.9846 35.6552Z" fill="black" fill-opacity="0.7"/>
<path d="M24.4177 34.7177C24.1589 34.7177 23.949 34.9275 23.949 35.1864C23.949 35.4453 24.1589 35.6552 24.4177 35.6552H26.259C26.5179 35.6552 26.7278 35.4453 26.7278 35.1864C26.7278 34.9275 26.5179 34.7177 26.259 34.7177H24.4177Z" fill="black" fill-opacity="0.7"/>
<path d="M20.366 34.7177C20.1071 34.7177 19.8972 34.9275 19.8972 35.1864C19.8972 35.4453 20.1071 35.6552 20.366 35.6552H22.2075C22.4666 35.6552 22.6762 35.4453 22.6762 35.1864C22.6762 34.9275 22.4666 34.7177 22.2075 34.7177H20.366Z" fill="black" fill-opacity="0.7"/>
<path d="M16.9846 20.4205H18.1565C18.4154 20.4205 18.6252 20.2106 18.6252 19.9517C18.6252 19.6929 18.4154 19.483 18.1565 19.483H16.9846C16.7258 19.483 16.5159 19.6929 16.5159 19.9517C16.5159 20.2106 16.7258 20.4205 16.9846 20.4205Z" fill="black" fill-opacity="0.7"/>
<path d="M26.259 20.4205C26.5179 20.4205 26.7278 20.2106 26.7278 19.9517C26.7278 19.6929 26.5179 19.483 26.259 19.483H24.4177C24.1589 19.483 23.949 19.6929 23.949 19.9517C23.949 20.2106 24.1589 20.4205 24.4177 20.4205H26.259Z" fill="black" fill-opacity="0.7"/>
<path d="M22.2077 20.4205C22.4668 20.4205 22.6765 20.2106 22.6765 19.9517C22.6765 19.6929 22.4668 19.483 22.2077 19.483H20.3662C20.1074 19.483 19.8975 19.6929 19.8975 19.9517C19.8975 20.2106 20.1074 20.4205 20.3662 20.4205H22.2077Z" fill="black" fill-opacity="0.7"/>
<path d="M28.4688 20.4205H29.6406C29.8995 20.4205 30.1094 20.2106 30.1094 19.9517C30.1094 19.6929 29.8995 19.483 29.6406 19.483H28.4688C28.2099 19.483 28 19.6929 28 19.9517C28 20.2106 28.2099 20.4205 28.4688 20.4205Z" fill="black" fill-opacity="0.7"/>
<path d="M16.9846 23.7018H18.1565C18.4154 23.7018 18.6252 23.4919 18.6252 23.233C18.6252 22.9742 18.4154 22.7643 18.1565 22.7643H16.9846C16.7258 22.7643 16.5159 22.9742 16.5159 23.233C16.5159 23.4919 16.7258 23.7018 16.9846 23.7018Z" fill="black" fill-opacity="0.7"/>
<path d="M28.4688 23.7018H29.6406C29.8995 23.7018 30.1094 23.4919 30.1094 23.233C30.1094 22.9742 29.8995 22.7643 29.6406 22.7643H28.4688C28.2099 22.7643 28 22.9742 28 23.233C28 23.4919 28.2099 23.7018 28.4688 23.7018Z" fill="black" fill-opacity="0.7"/>
<path d="M16.8877 26.9728C16.9526 26.6575 17.0411 26.3476 17.1524 26.0454H16.9842C16.7441 26.0454 16.5428 26.2268 16.5179 26.4656C16.493 26.7044 16.6527 26.9235 16.8877 26.9728Z" fill="black" fill-opacity="0.7"/>
<path d="M24.4177 26.983H26.259C26.372 26.9826 26.4811 26.9412 26.5658 26.866C26.4409 26.5724 26.2777 26.2964 26.0803 26.0455H24.4177C24.1589 26.0455 23.949 26.2554 23.949 26.5143C23.949 26.7731 24.1589 26.983 24.4177 26.983Z" fill="black" fill-opacity="0.7"/>
<path d="M22.2077 26.0455H20.3662C20.3545 26.0455 20.3434 26.0483 20.3319 26.0491C20.1766 26.2485 20.0429 26.4641 19.9326 26.6915C20.0046 26.8677 20.176 26.983 20.3662 26.983H22.2077C22.4668 26.983 22.6765 26.7731 22.6765 26.5143C22.6765 26.2554 22.4668 26.0455 22.2077 26.0455Z" fill="black" fill-opacity="0.7"/>
<path d="M26.259 29.3268H24.4177C24.1589 29.3268 23.949 29.5367 23.949 29.7956C23.949 30.0544 24.1589 30.2643 24.4177 30.2643H26.259C26.2615 30.2643 26.2641 30.2637 26.2666 30.2635C26.4174 30.0299 26.5409 29.7794 26.6342 29.5172C26.5466 29.3977 26.4072 29.327 26.259 29.3268Z" fill="black" fill-opacity="0.7"/>
<path d="M22.2077 29.3268H20.3662C20.1074 29.3268 19.8975 29.5367 19.8975 29.7955C19.8975 29.7976 19.8981 29.7993 19.8981 29.8014C19.9575 29.9313 20.0245 30.0577 20.0988 30.1797C20.1772 30.2348 20.2706 30.2643 20.3662 30.2643H22.2077C22.4668 30.2643 22.6765 30.0544 22.6765 29.7955C22.6765 29.5367 22.4668 29.3268 22.2077 29.3268Z" fill="black" fill-opacity="0.7"/>
<path d="M29.6403 29.3268H29.579C29.5277 29.6444 29.4526 29.9579 29.3542 30.2643H29.6403C29.8992 30.2643 30.1091 30.0544 30.1091 29.7955C30.1091 29.5367 29.8992 29.3268 29.6403 29.3268Z" fill="black" fill-opacity="0.7"/>
<path d="M29.6402 26.0455H29.2659C29.3785 26.3508 29.4678 26.6641 29.5329 26.983H29.6402C29.8991 26.983 30.109 26.7731 30.109 26.5143C30.109 26.2554 29.8991 26.0455 29.6402 26.0455Z" fill="black" fill-opacity="0.7"/>
<path d="M29.59 37.0443L32.1615 39.6157H32.1617C32.477 39.9305 32.9046 40.1071 33.3501 40.1073C33.7958 40.1073 34.2232 39.9307 34.5388 39.616L34.539 39.6157C34.8537 39.3002 35.0303 38.8729 35.0303 38.4271C35.0303 37.9816 34.8535 37.554 34.5388 37.2387L31.9673 34.6672V34.667C31.8794 34.5791 31.7602 34.5297 31.6359 34.5297C31.5115 34.5297 31.3925 34.5791 31.3046 34.667L31.2163 34.7553L27.8022 31.3412C28.8244 29.8065 29.0128 27.8628 28.3046 26.1605C27.5962 24.4579 26.0847 23.2216 24.2757 22.8648C22.4665 22.5082 20.5989 23.0782 19.2972 24.3844C17.9958 25.6907 17.4325 27.5604 17.7958 29.3682C18.1591 31.1761 19.4009 32.683 21.1059 33.3852C22.811 34.0873 24.754 33.8917 26.2848 32.8638L29.6962 36.2754L29.5901 36.3815C29.5022 36.4694 29.4529 36.5885 29.4529 36.7128C29.4529 36.8371 29.5022 36.9563 29.5901 37.0442L29.59 37.0443ZM33.8758 37.9015H33.876C34.1662 38.1919 34.1662 38.6625 33.876 38.953C33.5855 39.2433 33.1149 39.2433 32.8244 38.953L30.5843 36.7129L31.6358 35.6613L33.8758 37.9015ZM19.9667 31.5243C19.1072 30.6648 18.6244 29.4995 18.6244 28.2841C18.6244 27.0689 19.1072 25.9033 19.9667 25.0441C20.8259 24.1846 21.9915 23.7018 23.2067 23.7018C24.4221 23.7018 25.5874 24.1846 26.4469 25.0441C27.3063 25.9033 27.7891 27.0689 27.7891 28.2841C27.7891 29.4995 27.3063 30.6648 26.4469 31.5243C25.5868 32.3823 24.4216 32.8642 23.2067 32.8642C21.9919 32.8642 20.8267 32.3823 19.9667 31.5243ZM27.017 32.271C27.0473 32.2421 27.08 32.217 27.1097 32.1873C27.1455 32.1515 27.1758 32.1124 27.2104 32.0757L30.5531 35.4185L30.3587 35.6129L27.017 32.271Z" fill="black" fill-opacity="0.7"/>
<path d="M33.4933 37.9983C33.6511 38.1561 33.6511 38.412 33.4933 38.5698C33.3355 38.7276 33.0796 38.7276 32.9218 38.5698C32.764 38.412 32.764 38.1561 32.9218 37.9983C33.0796 37.8405 33.3355 37.8405 33.4933 37.9983Z" fill="black" fill-opacity="0.7"/>
<path d="M16.9845 30.2643H17.064C16.9684 29.9657 16.8945 29.6604 16.843 29.3508C16.6227 29.4201 16.4858 29.64 16.5212 29.8683C16.5565 30.0966 16.7535 30.2649 16.9845 30.2643Z" fill="black" fill-opacity="0.7"/>
<path d="M16.9846 32.8426H18.1565C18.2848 32.8426 18.4072 32.7897 18.4953 32.6963C18.2638 32.4496 18.0521 32.1851 17.8621 31.9051H16.9846C16.7258 31.9051 16.5159 32.115 16.5159 32.3738C16.5159 32.6327 16.7258 32.8426 16.9846 32.8426Z" fill="black" fill-opacity="0.7"/>
</svg>
