<svg width="49" height="49" viewBox="0 0 49 49" fill="none" xmlns="http://www.w3.org/2000/svg">
<rect y="0.284485" width="48.2124" height="48" rx="8" fill="white"/>
<path fill-rule="evenodd" clip-rule="evenodd" d="M13.5 19.6035C13.5 17.5325 15.1789 15.8535 17.25 15.8535H30.75C32.821 15.8535 34.5 17.5324 34.5 19.6035V22.6035C34.5 23.0177 34.1642 23.3535 33.75 23.3535C33.3358 23.3535 33 23.0177 33 22.6035V21.8535H15V30.1035C15 31.3461 16.0073 32.3535 17.25 32.3535H20.25C20.6642 32.3535 21 32.6892 21 33.1035C21 33.5177 20.6642 33.8535 20.25 33.8535H17.25C15.179 33.8535 13.5 32.1745 13.5 30.1035V19.6035ZM33 19.6035V20.3535H15V19.6035C15 18.3608 16.0073 17.3535 17.25 17.3535H30.75C31.9927 17.3535 33 18.3608 33 19.6035ZM17.25 19.6035C17.6642 19.6035 18 19.2677 18 18.8535C18 18.4392 17.6642 18.1035 17.25 18.1035C16.8358 18.1035 16.5 18.4392 16.5 18.8535C16.5 19.2677 16.8358 19.6035 17.25 19.6035ZM20.25 18.8535C20.25 19.2677 19.9142 19.6035 19.5 19.6035C19.0858 19.6035 18.75 19.2677 18.75 18.8535C18.75 18.4392 19.0858 18.1035 19.5 18.1035C19.9142 18.1035 20.25 18.4392 20.25 18.8535ZM21.75 19.6035C22.1642 19.6035 22.5 19.2677 22.5 18.8535C22.5 18.4392 22.1642 18.1035 21.75 18.1035C21.3358 18.1035 21 18.4392 21 18.8535C21 19.2677 21.3358 19.6035 21.75 19.6035Z" fill="#555350"/>
<path fill-rule="evenodd" clip-rule="evenodd" d="M24 32.3535C22.7573 32.3535 21.75 31.3461 21.75 30.1035C21.75 28.8608 22.7573 27.8535 24 27.8535V27.1035C24 25.8608 25.0073 24.8535 26.25 24.8535H27C27.8284 24.8535 28.5 25.525 28.5 26.3535C28.5 26.7677 28.8358 27.1035 29.25 27.1035C29.6642 27.1035 30 26.7677 30 26.3535C30 25.525 30.6716 24.8535 31.5 24.8535H32.25C33.4927 24.8535 34.5 25.8608 34.5 27.1035V33.1035C34.5 34.3461 33.4927 35.3535 32.25 35.3535H26.25C25.0073 35.3535 24 34.3461 24 33.1035V32.3535ZM23.25 30.1035C23.25 30.5177 23.5858 30.8535 24 30.8535C24.8284 30.8535 25.5 31.525 25.5 32.3535V33.1035C25.5 33.5177 25.8358 33.8535 26.25 33.8535H32.25C32.6642 33.8535 33 33.5177 33 33.1035V27.1035C33 26.6892 32.6642 26.3535 32.25 26.3535H31.5C31.5 27.5961 30.4927 28.6035 29.25 28.6035C28.0073 28.6035 27 27.5961 27 26.3535H26.25C25.8358 26.3535 25.5 26.6892 25.5 27.1035V27.8535C25.5 28.6819 24.8284 29.3535 24 29.3535C23.5858 29.3535 23.25 29.6892 23.25 30.1035Z" fill="#555350"/>
</svg>
