<svg fill="none" height="20" viewBox="0 0 25 20" width="25" xmlns="http://www.w3.org/2000/svg"><path clip-rule="evenodd" d="m.51492.0006245c-.292816.027597-.51618281.2740715-.51491463.5681815v16.477294c.00003138.3138.25439663.5681.56818163.5682h8.806813c1.3095 0 2.148.443 2.619 1.3849.0968.1905.2923.3105.506.3107.2137-.0002.4092-.1202.506-.3107.471-.9419 1.3095-1.3849 2.619-1.3849h8.8068c.3138-.0001.5682-.2544.5682-.5682v-16.477294c.0013-.29411-.2221-.5405845-.5149-.5681815-.0178-.00083267-.0355-.00083267-.0533 0h-8.8068c-1.2595 0-2.451.6671615-3.125 1.6512755-.674-.984114-1.8655-1.6512755-3.125-1.6512755h-8.806813c-.017746-.00083267-.035521-.00083267-.053267 0zm.62131 1.1363355h8.23863c1.27814 0 2.55684 1.17356 2.55684 2.27273v13.86721c-.6985-.5114-1.5683-.799-2.55684-.799h-8.23863zm14.48897 0h8.2386v15.34094h-8.2386c-.9885 0-1.8584.2876-2.5568.799v-13.86721c0-1.09917 1.2787-2.27273 2.5568-2.27273z" fill="#1e1d1a" fill-rule="evenodd"/></svg>