<svg width="49" height="48" viewBox="0 0 49 48" fill="none" xmlns="http://www.w3.org/2000/svg">
<rect width="48.2124" height="48" rx="8" fill="#E0F1F2"/>
<path d="M14.3663 13.0429H12.1647C11.7973 13.0473 11.4464 13.1964 11.1881 13.4577C10.9298 13.7191 10.785 14.0718 10.785 14.4392C10.785 14.8067 10.9298 15.1593 11.1881 15.4207C11.4464 15.6821 11.7973 15.8311 12.1647 15.8355H14.3663C14.7337 15.8311 15.0846 15.6821 15.3429 15.4207C15.6012 15.1593 15.746 14.8067 15.746 14.4392C15.746 14.0718 15.6012 13.7191 15.3429 13.4577C15.0846 13.1964 14.7337 13.0473 14.3663 13.0429ZM12.9439 15.1971H12.1647C12.0648 15.196 11.9662 15.1749 11.8746 15.1352C11.783 15.0954 11.7002 15.0377 11.6312 14.9655C11.5622 14.8933 11.5083 14.8081 11.4727 14.7147C11.4371 14.6214 11.4205 14.5219 11.4238 14.4221C11.424 14.2257 11.5021 14.0373 11.641 13.8984C11.7799 13.7595 11.9683 13.6814 12.1647 13.6812H12.9439V15.1971ZM14.3663 15.1971H13.5821V13.6812H14.3663C14.4662 13.6823 14.5648 13.7034 14.6564 13.7431C14.748 13.7829 14.8308 13.8406 14.8998 13.9128C14.9688 13.985 15.0227 14.0702 15.0583 14.1636C15.0939 14.2569 15.1105 14.3564 15.1071 14.4562C15.107 14.6526 15.0289 14.841 14.89 14.9799C14.7511 15.1188 14.5627 15.1969 14.3663 15.1971ZM14.3663 18.3774H12.1647C11.7973 18.3818 11.4464 18.5309 11.1882 18.7922C10.9299 19.0536 10.7851 19.4062 10.7851 19.7737C10.7851 20.1411 10.9299 20.4937 11.1882 20.7551C11.4464 21.0165 11.7973 21.1655 12.1647 21.1699H14.3663C14.7337 21.1655 15.0846 21.0165 15.3428 20.7551C15.6011 20.4937 15.7459 20.1411 15.7459 19.7737C15.7459 19.4062 15.6011 19.0536 15.3428 18.7922C15.0846 18.5309 14.7337 18.3818 14.3663 18.3774ZM12.9439 20.5316H12.1647C12.0648 20.5305 11.9662 20.5094 11.8746 20.4697C11.7829 20.4299 11.7002 20.3722 11.6312 20.3C11.5622 20.2278 11.5083 20.1426 11.4727 20.0493C11.4371 19.9559 11.4205 19.8564 11.4238 19.7566C11.424 19.5602 11.5021 19.3719 11.641 19.233C11.7799 19.0941 11.9683 19.016 12.1647 19.0158H12.9439V20.5316ZM14.3663 20.5316H13.5821V19.0157H14.3663C14.4662 19.0168 14.5648 19.0379 14.6564 19.0777C14.748 19.1175 14.8308 19.1751 14.8998 19.2473C14.9688 19.3195 15.0227 19.4048 15.0583 19.4981C15.0939 19.5914 15.1105 19.6909 15.1071 19.7907C15.107 19.9872 15.0289 20.1755 14.89 20.3144C14.7511 20.4533 14.5627 20.5314 14.3663 20.5316ZM14.3663 23.7116H13.2707L13.263 23.7101L13.2553 23.7116H12.1647C11.7973 23.716 11.4464 23.8651 11.1882 24.1264C10.9299 24.3878 10.7851 24.7404 10.7851 25.1079C10.7851 25.4753 10.9299 25.8279 11.1882 26.0893C11.4464 26.3507 11.7973 26.4997 12.1647 26.5041H13.2537C13.257 26.5041 13.2597 26.506 13.263 26.506C13.2662 26.506 13.269 26.5043 13.2723 26.5041H14.3663C14.7337 26.4997 15.0846 26.3507 15.3428 26.0893C15.6011 25.8279 15.7459 25.4753 15.7459 25.1079C15.7459 24.7404 15.6011 24.3878 15.3428 24.1264C15.0846 23.8651 14.7337 23.716 14.3663 23.7116ZM12.9439 25.8659H12.1647C12.0648 25.8648 11.9662 25.8437 11.8746 25.804C11.783 25.7642 11.7002 25.7065 11.6312 25.6343C11.5622 25.5621 11.5083 25.4769 11.4727 25.3835C11.4371 25.2902 11.4205 25.1907 11.4238 25.0909C11.424 24.8945 11.5021 24.7061 11.641 24.5672C11.7799 24.4282 11.9682 24.3501 12.1647 24.3499H12.9439V25.8659ZM14.3663 25.8659H13.5821V24.3499H14.3663C14.4662 24.351 14.5648 24.3721 14.6564 24.4119C14.748 24.4517 14.8308 24.5093 14.8998 24.5815C14.9688 24.6537 15.0227 24.739 15.0583 24.8323C15.0939 24.9256 15.1105 25.0251 15.1071 25.1249C15.107 25.3214 15.0289 25.5097 14.89 25.6487C14.7511 25.7876 14.5628 25.8657 14.3663 25.8659ZM14.3663 29.0462H12.1647C11.7973 29.0506 11.4464 29.1996 11.1881 29.461C10.9298 29.7224 10.785 30.075 10.785 30.4425C10.785 30.8099 10.9298 31.1626 11.1881 31.424C11.4464 31.6853 11.7973 31.8344 12.1647 31.8388H14.3663C14.7337 31.8344 15.0846 31.6853 15.3429 31.424C15.6012 31.1626 15.746 30.8099 15.746 30.4425C15.746 30.075 15.6012 29.7224 15.3429 29.461C15.0846 29.1996 14.7337 29.0506 14.3663 29.0462ZM12.9439 31.2004H12.1647C12.0648 31.1992 11.9661 31.1781 11.8745 31.1383C11.7829 31.0985 11.7001 31.0408 11.6311 30.9685C11.5621 30.8963 11.5082 30.811 11.4726 30.7176C11.437 30.6243 11.4205 30.5248 11.4238 30.4249C11.4241 30.2286 11.5023 30.0403 11.6412 29.9015C11.78 29.7627 11.9683 29.6846 12.1647 29.6844H12.9439V31.2004ZM14.3663 31.2004H13.5821V29.6844H14.3663C14.4662 29.6855 14.5648 29.7066 14.6564 29.7464C14.7481 29.7861 14.8308 29.8438 14.8998 29.916C14.9689 29.9882 15.0227 30.0735 15.0583 30.1668C15.0939 30.2601 15.1105 30.3596 15.1071 30.4594C15.107 30.6559 15.0289 30.8442 14.89 30.9831C14.7511 31.122 14.5627 31.2002 14.3663 31.2004ZM14.3663 34.3804H12.1647C11.7976 34.3853 11.4473 34.5346 11.1894 34.7959C10.9316 35.0572 10.787 35.4095 10.787 35.7766C10.787 36.1437 10.9316 36.496 11.1894 36.7573C11.4473 37.0187 11.7976 37.1679 12.1647 37.1728H14.3663C14.7334 37.1679 15.0837 37.0187 15.3416 36.7573C15.5994 36.496 15.744 36.1437 15.744 35.7766C15.744 35.4095 15.5994 35.0572 15.3416 34.7959C15.0837 34.5346 14.7334 34.3853 14.3663 34.3804ZM12.9439 36.5343H12.1647C12.0648 36.5332 11.9662 36.5122 11.8746 36.4724C11.7829 36.4326 11.7002 36.3749 11.6312 36.3027C11.5621 36.2305 11.5083 36.1453 11.4727 36.052C11.4371 35.9586 11.4205 35.8591 11.4238 35.7593C11.4239 35.5628 11.502 35.3744 11.6409 35.2354C11.7798 35.0964 11.9682 35.0182 12.1647 35.018H12.9439V36.5343ZM14.3663 36.5343H13.5821V35.0183H14.3663C14.4662 35.0194 14.5649 35.0405 14.6565 35.0804C14.7481 35.1202 14.8309 35.1779 14.8999 35.2501C14.9689 35.3224 15.0228 35.4077 15.0584 35.501C15.094 35.5944 15.1105 35.6939 15.1071 35.7937C15.1069 35.9901 15.0288 36.1784 14.8899 36.3172C14.751 36.4561 14.5627 36.5342 14.3663 36.5343ZM17.531 12.5929V37.6233C17.531 37.708 17.4974 37.7891 17.4375 37.849C17.3777 37.9089 17.2965 37.9425 17.2118 37.9425C17.1272 37.9425 17.046 37.9089 16.9862 37.849C16.9263 37.7891 16.8927 37.708 16.8927 37.6233V12.5929C16.8927 12.5083 16.9263 12.4271 16.9862 12.3673C17.046 12.3074 17.1272 12.2738 17.2118 12.2738C17.2965 12.2738 17.3777 12.3074 17.4375 12.3673C17.4974 12.4271 17.531 12.5083 17.531 12.5929ZM20.057 15.8357H22.2587C22.6261 15.8313 22.977 15.6822 23.2353 15.4209C23.4936 15.1595 23.6384 14.8068 23.6384 14.4394C23.6384 14.0719 23.4936 13.7193 23.2353 13.4579C22.977 13.1965 22.6261 13.0475 22.2587 13.0431H20.057C19.6896 13.0475 19.3387 13.1965 19.0805 13.4579C18.8222 13.7193 18.6774 14.0719 18.6774 14.4394C18.6774 14.8068 18.8222 15.1595 19.0805 15.4209C19.3387 15.6822 19.6896 15.8313 20.057 15.8357ZM21.4795 13.6813H22.2587C22.3586 13.6824 22.4572 13.7035 22.5488 13.7433C22.6404 13.7831 22.7232 13.8407 22.7922 13.9129C22.8612 13.9851 22.9151 14.0704 22.9507 14.1637C22.9863 14.257 23.0029 14.3565 22.9995 14.4563C22.9993 14.6527 22.9212 14.8411 22.7823 14.98C22.6434 15.1189 22.4551 15.197 22.2587 15.1972H21.4795V13.6813ZM20.057 13.6813H20.8412V15.1973H20.057C19.9572 15.1962 19.8585 15.1751 19.7669 15.1353C19.6753 15.0955 19.5926 15.0379 19.5236 14.9657C19.4546 14.8935 19.4007 14.8082 19.3651 14.7149C19.3295 14.6216 19.3129 14.5221 19.3162 14.4223C19.3164 14.2258 19.3944 14.0374 19.5333 13.8985C19.6722 13.7595 19.8606 13.6814 20.057 13.6812V13.6813ZM26.3194 28.3313C25.5997 28.3313 24.896 28.5448 24.2976 28.9446C23.6991 29.3445 23.2326 29.9129 22.9572 30.5779C22.6817 31.2429 22.6096 31.9746 22.75 32.6806C22.8904 33.3865 23.237 34.035 23.7459 34.544C24.2549 35.053 24.9033 35.3996 25.6093 35.5401C26.3152 35.6805 27.047 35.6085 27.712 35.3331C28.377 35.0577 28.9454 34.5913 29.3453 33.9928C29.7452 33.3944 29.9587 32.6908 29.9588 31.971C29.9578 31.006 29.5741 30.0808 28.8918 29.3985C28.2095 28.7161 27.2844 28.3323 26.3194 28.3312V28.3313ZM26.3194 34.9718C25.7259 34.9718 25.1457 34.7958 24.6521 34.466C24.1586 34.1363 23.774 33.6676 23.5468 33.1192C23.3197 32.5708 23.2603 31.9674 23.3761 31.3852C23.4919 30.8031 23.7777 30.2683 24.1975 29.8486C24.6172 29.4289 25.1519 29.1431 25.7341 29.0274C26.3163 28.9116 26.9197 28.9711 27.468 29.1982C28.0164 29.4254 28.4851 29.8101 28.8148 30.3036C29.1446 30.7972 29.3205 31.3774 29.3205 31.971C29.3195 32.7666 29.0029 33.5292 28.4403 34.0918C27.8777 34.6543 27.115 34.9707 26.3194 34.9717V34.9718ZM28.2321 31.971C28.2322 32.0129 28.2239 32.0544 28.2079 32.0931C28.1919 32.1319 28.1684 32.1671 28.1387 32.1967C28.1091 32.2264 28.0739 32.2499 28.0352 32.2659C27.9964 32.282 27.9549 32.2902 27.913 32.2902H26.6385V33.5652C26.6375 33.6491 26.6034 33.7293 26.5437 33.7883C26.4839 33.8473 26.4034 33.8803 26.3194 33.8803C26.2355 33.8803 26.1549 33.8473 26.0952 33.7883C26.0354 33.7293 26.0013 33.6491 26.0003 33.5652V32.2902H24.7256C24.6409 32.2902 24.5598 32.2565 24.4999 32.1967C24.44 32.1368 24.4064 32.0556 24.4064 31.971C24.4064 31.8863 24.44 31.8051 24.4999 31.7453C24.5598 31.6854 24.6409 31.6518 24.7256 31.6518H26.0003V30.3769C26.0013 30.293 26.0354 30.2128 26.0952 30.1538C26.1549 30.0948 26.2355 30.0618 26.3194 30.0618C26.4034 30.0618 26.4839 30.0948 26.5437 30.1538C26.6034 30.2128 26.6375 30.293 26.6385 30.3769V31.6516H27.913C27.9549 31.6516 27.9964 31.6598 28.0352 31.6759C28.0739 31.6919 28.1091 31.7154 28.1387 31.7451C28.1684 31.7747 28.1919 31.8099 28.2079 31.8487C28.2239 31.8874 28.2322 31.9289 28.2321 31.9708V31.971ZM37.7864 33.0034C37.7833 33.0001 37.7824 32.9958 37.7791 32.9926C37.7759 32.9893 37.7715 32.9883 37.7682 32.9852C36.9888 32.2078 35.9328 31.7715 34.832 31.7721C34.7429 31.7721 34.672 31.7858 34.5895 31.791V25.791C34.5923 25.4002 34.4514 25.022 34.1937 24.7282L32.132 22.3158V20.5442H32.266C32.5258 20.5447 32.7752 20.4422 32.9595 20.259C33.1438 20.0759 33.2479 19.8272 33.2491 19.5674V17.6974C33.2488 17.4367 33.1451 17.1869 32.9608 17.0026C32.7765 16.8183 32.5267 16.7146 32.266 16.7143H25.3788V11.0525C25.3785 10.8021 25.2789 10.562 25.1018 10.3849C24.9247 10.2078 24.6846 10.1082 24.4342 10.1079H9.94465C9.69422 10.1082 9.45412 10.2078 9.27704 10.3849C9.09995 10.562 9.00032 10.8021 9 11.0525V39.1629C9.00024 39.4134 9.09983 39.6536 9.27692 39.8308C9.45402 40.0079 9.69415 40.1076 9.94465 40.1079H32.9489C33.1973 40.104 33.4416 40.0436 33.6631 39.9312C34.0419 40.0478 34.4358 40.1073 34.832 40.1079C35.6553 40.1084 36.4603 39.8649 37.1453 39.4082C37.8303 38.9515 38.3646 38.302 38.6807 37.5419C38.9969 36.7817 39.0806 35.9449 38.9215 35.1371C38.7623 34.3293 38.3673 33.5869 37.7864 33.0034ZM34.3243 32.4502C34.4921 32.4223 34.662 32.4089 34.832 32.4102C35.6577 32.4096 36.4573 32.6999 37.0902 33.2302L32.1227 38.1979C31.8607 37.8847 31.6561 37.5278 31.518 37.1435C31.3216 36.6151 31.258 36.0464 31.3327 35.4876C31.4074 34.9288 31.6181 34.3969 31.9464 33.9385C31.9867 33.8811 32.0188 33.8197 32.0628 33.7641L32.0654 33.7604C32.6169 33.0438 33.4284 32.5731 34.3243 32.4502ZM30.7212 36.5871C30.7303 36.6439 30.7412 36.6995 30.7525 36.7556C30.7647 36.8156 30.7711 36.8767 30.7859 36.9356H21.147V27.0034H31.4938V33.4563C31.4266 33.5456 31.3755 33.6427 31.3162 33.7359C31.2632 33.8195 31.2042 33.8995 31.1575 33.9859C31.0935 34.1047 31.045 34.2294 30.9932 34.3532C30.9616 34.4289 30.9197 34.5006 30.8927 34.5779C30.8899 34.5864 30.889 34.5955 30.8861 34.6038C30.8414 34.7453 30.8045 34.8892 30.7755 35.0348C30.7598 35.1054 30.7338 35.1728 30.7218 35.2445L30.7206 35.2579C30.6832 35.4832 30.6643 35.7113 30.6641 35.9397C30.6661 36.1567 30.6852 36.3732 30.7212 36.5871ZM33.7131 25.1482C33.8689 25.3259 33.9537 25.5548 33.9512 25.7911V31.8674C33.9379 31.8701 33.9258 31.8762 33.9125 31.8791C33.7091 31.9244 33.5095 31.9853 33.3153 32.0611C33.2813 32.0742 33.2478 32.0876 33.2142 32.1015C33.0229 32.1814 32.838 32.2759 32.6611 32.3841C32.6338 32.4008 32.6077 32.4188 32.5811 32.4361C32.424 32.5362 32.274 32.6472 32.1322 32.7681V26.6843C32.1322 26.6424 32.124 26.6009 32.1079 26.5622C32.0919 26.5234 32.0684 26.4883 32.0388 26.4586C32.0091 26.429 31.9739 26.4055 31.9352 26.3895C31.8965 26.3734 31.855 26.3652 31.813 26.3652H21.147V25.7911C21.1451 25.5523 21.2317 25.3212 21.39 25.1424L23.4326 22.7524H31.6658L33.7131 25.1482ZM23.6045 22.1143V20.5443H31.4938V22.1143H23.6045ZM32.266 17.3529C32.3575 17.3529 32.4452 17.3892 32.5099 17.4539C32.5746 17.5185 32.611 17.6062 32.611 17.6976V19.5676C32.6101 19.6582 32.5733 19.7448 32.5086 19.8082C32.4439 19.8717 32.3567 19.9069 32.266 19.9061H22.8322C22.7416 19.9068 22.6545 19.8716 22.5899 19.8081C22.5252 19.7447 22.4884 19.6582 22.4875 19.5676V17.6976C22.4876 17.6062 22.5239 17.5186 22.5885 17.454C22.6532 17.3893 22.7408 17.353 22.8322 17.3529H32.266ZM21.8929 19.8398C21.8986 19.859 21.9038 19.8777 21.9106 19.8963C21.9396 19.9784 21.9796 20.0563 22.0294 20.1278C22.0369 20.1383 22.0461 20.1469 22.054 20.1573C22.1022 20.2196 22.1577 20.2758 22.2193 20.3248C22.2325 20.3354 22.2443 20.3467 22.258 20.3566C22.3288 20.4074 22.4059 20.4485 22.4875 20.4789C22.4943 20.4815 22.4996 20.4865 22.5065 20.4889C22.4265 20.5171 22.3423 20.5315 22.2575 20.5313H21.4795V19.0185H21.8491V19.5674C21.8505 19.6598 21.8653 19.7516 21.8929 19.8398ZM9.94465 39.4695C9.86341 39.4694 9.78554 39.437 9.72813 39.3795C9.67071 39.322 9.63843 39.2441 9.63835 39.1629V11.0525C9.63844 10.9713 9.67074 10.8935 9.72817 10.836C9.78559 10.7786 9.86344 10.7463 9.94465 10.7462H24.4342C24.5154 10.7463 24.5933 10.7786 24.6507 10.836C24.7081 10.8935 24.7404 10.9713 24.7405 11.0525V16.7143H22.8322C22.5716 16.7147 22.3217 16.8183 22.1374 17.0026C21.9531 17.1869 21.8495 17.4368 21.8491 17.6974V18.3802H20.0555C19.6904 18.3875 19.3427 18.5376 19.087 18.7984C18.8314 19.0592 18.6882 19.4098 18.6882 19.775C18.6882 20.1401 18.8314 20.4908 19.087 20.7515C19.3427 21.0123 19.6904 21.1624 20.0555 21.1697H22.2575C22.5077 21.1681 22.7527 21.0984 22.9662 20.9679V22.3157L21.7744 23.7101H20.0555C19.688 23.715 19.3372 23.8645 19.079 24.1261C18.8209 24.3877 18.6761 24.7405 18.6761 25.1081C18.6761 25.4756 18.8209 25.8284 19.079 26.09C19.3372 26.3516 19.688 26.5011 20.0555 26.506H20.5087V29.046H20.0555C19.6908 29.0538 19.3437 29.2042 19.0886 29.4649C18.8335 29.7256 18.6906 30.0759 18.6906 30.4407C18.6906 30.8054 18.8335 31.1557 19.0886 31.4164C19.3437 31.6771 19.6908 31.8275 20.0555 31.8353H20.5087V34.3823H20.0555C19.6902 34.3892 19.3421 34.5392 19.0862 34.8C18.8303 35.0609 18.6869 35.4117 18.6869 35.7771C18.6869 36.1425 18.8303 36.4933 19.0862 36.7541C19.3421 37.0149 19.6902 37.1649 20.0555 37.1718H20.5087V38.4668C20.5094 38.5697 20.5197 38.6723 20.5396 38.7732C20.5457 38.805 20.5557 38.835 20.5636 38.8662C20.5798 38.9327 20.6001 38.9981 20.6245 39.0621C20.6377 39.0958 20.6528 39.1281 20.6682 39.1606C20.6953 39.2185 20.7259 39.2747 20.7596 39.329C20.7785 39.359 20.7972 39.389 20.8179 39.4181C20.8297 39.4347 20.8388 39.4531 20.8512 39.4691L9.94465 39.4695ZM20.8412 19.0185V20.5313H20.0555C19.8577 20.5271 19.6694 20.4455 19.5311 20.3041C19.3927 20.1627 19.3152 19.9727 19.3152 19.7749C19.3152 19.5771 19.3927 19.3871 19.5311 19.2457C19.6694 19.1043 19.8577 19.0227 20.0555 19.0185H20.8412ZM20.5087 29.6844V31.1974H20.0555C19.9558 31.1963 19.8574 31.1754 19.766 31.1357C19.6745 31.0961 19.5919 31.0387 19.5229 30.9668C19.454 30.8948 19.4001 30.8098 19.3643 30.7168C19.3286 30.6238 19.3119 30.5245 19.315 30.4249C19.3152 30.2286 19.3933 30.0404 19.5321 29.9016C19.6709 29.7628 19.8591 29.6847 20.0554 29.6844H20.5087ZM20.5087 35.0208V36.5336H20.0555C19.9559 36.5326 19.8575 36.5116 19.766 36.472C19.6746 36.4325 19.592 36.375 19.523 36.3031C19.454 36.2312 19.4001 36.1463 19.3644 36.0532C19.3287 35.9602 19.3119 35.861 19.315 35.7614C19.3152 35.5651 19.3933 35.3769 19.5321 35.238C19.6709 35.0992 19.8591 35.0211 20.0554 35.0208H20.5087ZM20.5087 25.7911V25.8679H20.0555C19.9557 25.8655 19.8573 25.8434 19.7661 25.8029C19.6748 25.7624 19.5924 25.7043 19.5236 25.6319C19.4548 25.5595 19.401 25.4743 19.3652 25.3811C19.3294 25.2878 19.3124 25.1885 19.315 25.0887C19.3176 24.8931 19.3964 24.7063 19.5347 24.568C19.673 24.4297 19.8599 24.3509 20.0554 24.3483H21.2279L20.9088 24.723C20.6488 25.0178 20.5063 25.398 20.5087 25.7911ZM22.149 39.4695C21.8833 39.4692 21.6286 39.3636 21.4407 39.1757C21.2528 38.9877 21.1472 38.733 21.147 38.4673V37.5739H31.0084C31.0588 37.6933 31.1134 37.81 31.1748 37.9232C31.2001 37.9701 31.2264 38.0155 31.2534 38.0612C31.3473 38.2214 31.4519 38.3751 31.5664 38.5212C31.5787 38.5368 31.5889 38.5539 31.6014 38.5691C31.685 38.672 31.7758 38.7687 31.8689 38.863C31.8738 38.8712 31.8791 38.8792 31.8847 38.8868C31.8894 38.8915 31.8957 38.893 31.9006 38.8974C31.9406 38.9369 31.9826 38.9734 32.024 39.0113C32.06 39.0443 32.0972 39.0753 32.1345 39.107C32.2712 39.2242 32.4155 39.3324 32.5663 39.4308C32.5844 39.4426 32.5998 39.4582 32.6181 39.4696L22.149 39.4695ZM34.832 39.4695C34.4598 39.4723 34.0897 39.4129 33.737 39.2938C33.3125 39.1541 32.9188 38.9343 32.577 38.6463L37.542 33.6813C37.9722 34.1962 38.2466 34.8232 38.3329 35.4885C38.4193 36.1539 38.314 36.8301 38.0296 37.4377C37.7451 38.0454 37.2933 38.5593 36.727 38.9192C36.1607 39.279 35.5035 39.4699 34.8326 39.4694L34.832 39.4695Z" fill="#136565"/>
<path d="M14.3663 13.0429H12.1647C11.7973 13.0473 11.4464 13.1964 11.1881 13.4577C10.9298 13.7191 10.785 14.0718 10.785 14.4392C10.785 14.8067 10.9298 15.1593 11.1881 15.4207C11.4464 15.6821 11.7973 15.8311 12.1647 15.8355H14.3663C14.7337 15.8311 15.0846 15.6821 15.3429 15.4207C15.6012 15.1593 15.746 14.8067 15.746 14.4392C15.746 14.0718 15.6012 13.7191 15.3429 13.4577C15.0846 13.1964 14.7337 13.0473 14.3663 13.0429ZM12.9439 15.1971H12.1647C12.0648 15.196 11.9662 15.1749 11.8746 15.1352C11.783 15.0954 11.7002 15.0377 11.6312 14.9655C11.5622 14.8933 11.5083 14.8081 11.4727 14.7147C11.4371 14.6214 11.4205 14.5219 11.4238 14.4221C11.424 14.2257 11.5021 14.0373 11.641 13.8984C11.7799 13.7595 11.9683 13.6814 12.1647 13.6812H12.9439V15.1971ZM14.3663 15.1971H13.5821V13.6812H14.3663C14.4662 13.6823 14.5648 13.7034 14.6564 13.7431C14.748 13.7829 14.8308 13.8406 14.8998 13.9128C14.9688 13.985 15.0227 14.0702 15.0583 14.1636C15.0939 14.2569 15.1105 14.3564 15.1071 14.4562C15.107 14.6526 15.0289 14.841 14.89 14.9799C14.7511 15.1188 14.5627 15.1969 14.3663 15.1971ZM14.3663 18.3774H12.1647C11.7973 18.3818 11.4464 18.5309 11.1882 18.7922C10.9299 19.0536 10.7851 19.4062 10.7851 19.7737C10.7851 20.1411 10.9299 20.4937 11.1882 20.7551C11.4464 21.0165 11.7973 21.1655 12.1647 21.1699H14.3663C14.7337 21.1655 15.0846 21.0165 15.3428 20.7551C15.6011 20.4937 15.7459 20.1411 15.7459 19.7737C15.7459 19.4062 15.6011 19.0536 15.3428 18.7922C15.0846 18.5309 14.7337 18.3818 14.3663 18.3774ZM12.9439 20.5316H12.1647C12.0648 20.5305 11.9662 20.5094 11.8746 20.4697C11.7829 20.4299 11.7002 20.3722 11.6312 20.3C11.5622 20.2278 11.5083 20.1426 11.4727 20.0493C11.4371 19.9559 11.4205 19.8564 11.4238 19.7566C11.424 19.5602 11.5021 19.3719 11.641 19.233C11.7799 19.0941 11.9683 19.016 12.1647 19.0158H12.9439V20.5316ZM14.3663 20.5316H13.5821V19.0157H14.3663C14.4662 19.0168 14.5648 19.0379 14.6564 19.0777C14.748 19.1175 14.8308 19.1751 14.8998 19.2473C14.9688 19.3195 15.0227 19.4048 15.0583 19.4981C15.0939 19.5914 15.1105 19.6909 15.1071 19.7907C15.107 19.9872 15.0289 20.1755 14.89 20.3144C14.7511 20.4533 14.5627 20.5314 14.3663 20.5316ZM14.3663 23.7116H13.2707L13.263 23.7101L13.2553 23.7116H12.1647C11.7973 23.716 11.4464 23.8651 11.1882 24.1264C10.9299 24.3878 10.7851 24.7404 10.7851 25.1079C10.7851 25.4753 10.9299 25.8279 11.1882 26.0893C11.4464 26.3507 11.7973 26.4997 12.1647 26.5041H13.2537C13.257 26.5041 13.2597 26.506 13.263 26.506C13.2662 26.506 13.269 26.5043 13.2723 26.5041H14.3663C14.7337 26.4997 15.0846 26.3507 15.3428 26.0893C15.6011 25.8279 15.7459 25.4753 15.7459 25.1079C15.7459 24.7404 15.6011 24.3878 15.3428 24.1264C15.0846 23.8651 14.7337 23.716 14.3663 23.7116ZM12.9439 25.8659H12.1647C12.0648 25.8648 11.9662 25.8437 11.8746 25.804C11.783 25.7642 11.7002 25.7065 11.6312 25.6343C11.5622 25.5621 11.5083 25.4769 11.4727 25.3835C11.4371 25.2902 11.4205 25.1907 11.4238 25.0909C11.424 24.8945 11.5021 24.7061 11.641 24.5672C11.7799 24.4282 11.9682 24.3501 12.1647 24.3499H12.9439V25.8659ZM14.3663 25.8659H13.5821V24.3499H14.3663C14.4662 24.351 14.5648 24.3721 14.6564 24.4119C14.748 24.4517 14.8308 24.5093 14.8998 24.5815C14.9688 24.6537 15.0227 24.739 15.0583 24.8323C15.0939 24.9256 15.1105 25.0251 15.1071 25.1249C15.107 25.3214 15.0289 25.5097 14.89 25.6487C14.7511 25.7876 14.5628 25.8657 14.3663 25.8659ZM14.3663 29.0462H12.1647C11.7973 29.0506 11.4464 29.1996 11.1881 29.461C10.9298 29.7224 10.785 30.075 10.785 30.4425C10.785 30.8099 10.9298 31.1626 11.1881 31.424C11.4464 31.6853 11.7973 31.8344 12.1647 31.8388H14.3663C14.7337 31.8344 15.0846 31.6853 15.3429 31.424C15.6012 31.1626 15.746 30.8099 15.746 30.4425C15.746 30.075 15.6012 29.7224 15.3429 29.461C15.0846 29.1996 14.7337 29.0506 14.3663 29.0462ZM12.9439 31.2004H12.1647C12.0648 31.1992 11.9661 31.1781 11.8745 31.1383C11.7829 31.0985 11.7001 31.0408 11.6311 30.9685C11.5621 30.8963 11.5082 30.811 11.4726 30.7176C11.437 30.6243 11.4205 30.5248 11.4238 30.4249C11.4241 30.2286 11.5023 30.0403 11.6412 29.9015C11.78 29.7627 11.9683 29.6846 12.1647 29.6844H12.9439V31.2004ZM14.3663 31.2004H13.5821V29.6844H14.3663C14.4662 29.6855 14.5648 29.7066 14.6564 29.7464C14.7481 29.7861 14.8308 29.8438 14.8998 29.916C14.9689 29.9882 15.0227 30.0735 15.0583 30.1668C15.0939 30.2601 15.1105 30.3596 15.1071 30.4594C15.107 30.6559 15.0289 30.8442 14.89 30.9831C14.7511 31.122 14.5627 31.2002 14.3663 31.2004ZM14.3663 34.3804H12.1647C11.7976 34.3853 11.4473 34.5346 11.1894 34.7959C10.9316 35.0572 10.787 35.4095 10.787 35.7766C10.787 36.1437 10.9316 36.496 11.1894 36.7573C11.4473 37.0187 11.7976 37.1679 12.1647 37.1728H14.3663C14.7334 37.1679 15.0837 37.0187 15.3416 36.7573C15.5994 36.496 15.744 36.1437 15.744 35.7766C15.744 35.4095 15.5994 35.0572 15.3416 34.7959C15.0837 34.5346 14.7334 34.3853 14.3663 34.3804ZM12.9439 36.5343H12.1647C12.0648 36.5332 11.9662 36.5122 11.8746 36.4724C11.7829 36.4326 11.7002 36.3749 11.6312 36.3027C11.5621 36.2305 11.5083 36.1453 11.4727 36.052C11.4371 35.9586 11.4205 35.8591 11.4238 35.7593C11.4239 35.5628 11.502 35.3744 11.6409 35.2354C11.7798 35.0964 11.9682 35.0182 12.1647 35.018H12.9439V36.5343ZM14.3663 36.5343H13.5821V35.0183H14.3663C14.4662 35.0194 14.5649 35.0405 14.6565 35.0804C14.7481 35.1202 14.8309 35.1779 14.8999 35.2501C14.9689 35.3224 15.0228 35.4077 15.0584 35.501C15.094 35.5944 15.1105 35.6939 15.1071 35.7937C15.1069 35.9901 15.0288 36.1784 14.8899 36.3172C14.751 36.4561 14.5627 36.5342 14.3663 36.5343ZM17.531 12.5929V37.6233C17.531 37.708 17.4974 37.7891 17.4375 37.849C17.3777 37.9089 17.2965 37.9425 17.2118 37.9425C17.1272 37.9425 17.046 37.9089 16.9862 37.849C16.9263 37.7891 16.8927 37.708 16.8927 37.6233V12.5929C16.8927 12.5083 16.9263 12.4271 16.9862 12.3673C17.046 12.3074 17.1272 12.2738 17.2118 12.2738C17.2965 12.2738 17.3777 12.3074 17.4375 12.3673C17.4974 12.4271 17.531 12.5083 17.531 12.5929ZM20.057 15.8357H22.2587C22.6261 15.8313 22.977 15.6822 23.2353 15.4209C23.4936 15.1595 23.6384 14.8068 23.6384 14.4394C23.6384 14.0719 23.4936 13.7193 23.2353 13.4579C22.977 13.1965 22.6261 13.0475 22.2587 13.0431H20.057C19.6896 13.0475 19.3387 13.1965 19.0805 13.4579C18.8222 13.7193 18.6774 14.0719 18.6774 14.4394C18.6774 14.8068 18.8222 15.1595 19.0805 15.4209C19.3387 15.6822 19.6896 15.8313 20.057 15.8357ZM21.4795 13.6813H22.2587C22.3586 13.6824 22.4572 13.7035 22.5488 13.7433C22.6404 13.7831 22.7232 13.8407 22.7922 13.9129C22.8612 13.9851 22.9151 14.0704 22.9507 14.1637C22.9863 14.257 23.0029 14.3565 22.9995 14.4563C22.9993 14.6527 22.9212 14.8411 22.7823 14.98C22.6434 15.1189 22.4551 15.197 22.2587 15.1972H21.4795V13.6813ZM20.057 13.6813H20.8412V15.1973H20.057C19.9572 15.1962 19.8585 15.1751 19.7669 15.1353C19.6753 15.0955 19.5926 15.0379 19.5236 14.9657C19.4546 14.8935 19.4007 14.8082 19.3651 14.7149C19.3295 14.6216 19.3129 14.5221 19.3162 14.4223C19.3164 14.2258 19.3944 14.0374 19.5333 13.8985C19.6722 13.7595 19.8606 13.6814 20.057 13.6812V13.6813ZM26.3194 28.3313C25.5997 28.3313 24.896 28.5448 24.2976 28.9446C23.6991 29.3445 23.2326 29.9129 22.9572 30.5779C22.6817 31.2429 22.6096 31.9746 22.75 32.6806C22.8904 33.3865 23.237 34.035 23.7459 34.544C24.2549 35.053 24.9033 35.3996 25.6093 35.5401C26.3152 35.6805 27.047 35.6085 27.712 35.3331C28.377 35.0577 28.9454 34.5913 29.3453 33.9928C29.7452 33.3944 29.9587 32.6908 29.9588 31.971C29.9578 31.006 29.5741 30.0808 28.8918 29.3985C28.2095 28.7161 27.2844 28.3323 26.3194 28.3312V28.3313ZM26.3194 34.9718C25.7259 34.9718 25.1457 34.7958 24.6521 34.466C24.1586 34.1363 23.774 33.6676 23.5468 33.1192C23.3197 32.5708 23.2603 31.9674 23.3761 31.3852C23.4919 30.8031 23.7777 30.2683 24.1975 29.8486C24.6172 29.4289 25.1519 29.1431 25.7341 29.0274C26.3163 28.9116 26.9197 28.9711 27.468 29.1982C28.0164 29.4254 28.4851 29.8101 28.8148 30.3036C29.1446 30.7972 29.3205 31.3774 29.3205 31.971C29.3195 32.7666 29.0029 33.5292 28.4403 34.0918C27.8777 34.6543 27.115 34.9707 26.3194 34.9717V34.9718ZM28.2321 31.971C28.2322 32.0129 28.2239 32.0544 28.2079 32.0931C28.1919 32.1319 28.1684 32.1671 28.1387 32.1967C28.1091 32.2264 28.0739 32.2499 28.0352 32.2659C27.9964 32.282 27.9549 32.2902 27.913 32.2902H26.6385V33.5652C26.6375 33.6491 26.6034 33.7293 26.5437 33.7883C26.4839 33.8473 26.4034 33.8803 26.3194 33.8803C26.2355 33.8803 26.1549 33.8473 26.0952 33.7883C26.0354 33.7293 26.0013 33.6491 26.0003 33.5652V32.2902H24.7256C24.6409 32.2902 24.5598 32.2565 24.4999 32.1967C24.44 32.1368 24.4064 32.0556 24.4064 31.971C24.4064 31.8863 24.44 31.8051 24.4999 31.7453C24.5598 31.6854 24.6409 31.6518 24.7256 31.6518H26.0003V30.3769C26.0013 30.293 26.0354 30.2128 26.0952 30.1538C26.1549 30.0948 26.2355 30.0618 26.3194 30.0618C26.4034 30.0618 26.4839 30.0948 26.5437 30.1538C26.6034 30.2128 26.6375 30.293 26.6385 30.3769V31.6516H27.913C27.9549 31.6516 27.9964 31.6598 28.0352 31.6759C28.0739 31.6919 28.1091 31.7154 28.1387 31.7451C28.1684 31.7747 28.1919 31.8099 28.2079 31.8487C28.2239 31.8874 28.2322 31.9289 28.2321 31.9708V31.971ZM37.7864 33.0034C37.7833 33.0001 37.7824 32.9958 37.7791 32.9926C37.7759 32.9893 37.7715 32.9883 37.7682 32.9852C36.9888 32.2078 35.9328 31.7715 34.832 31.7721C34.7429 31.7721 34.672 31.7858 34.5895 31.791V25.791C34.5923 25.4002 34.4514 25.022 34.1937 24.7282L32.132 22.3158V20.5442H32.266C32.5258 20.5447 32.7752 20.4422 32.9595 20.259C33.1438 20.0759 33.2479 19.8272 33.2491 19.5674V17.6974C33.2488 17.4367 33.1451 17.1869 32.9608 17.0026C32.7765 16.8183 32.5267 16.7146 32.266 16.7143H25.3788V11.0525C25.3785 10.8021 25.2789 10.562 25.1018 10.3849C24.9247 10.2078 24.6846 10.1082 24.4342 10.1079H9.94465C9.69422 10.1082 9.45412 10.2078 9.27704 10.3849C9.09995 10.562 9.00032 10.8021 9 11.0525V39.1629C9.00024 39.4134 9.09983 39.6536 9.27692 39.8308C9.45402 40.0079 9.69415 40.1076 9.94465 40.1079H32.9489C33.1973 40.104 33.4416 40.0436 33.6631 39.9312C34.0419 40.0478 34.4358 40.1073 34.832 40.1079C35.6553 40.1084 36.4603 39.8649 37.1453 39.4082C37.8303 38.9515 38.3646 38.302 38.6807 37.5419C38.9969 36.7817 39.0806 35.9449 38.9215 35.1371C38.7623 34.3293 38.3673 33.5869 37.7864 33.0034ZM34.3243 32.4502C34.4921 32.4223 34.662 32.4089 34.832 32.4102C35.6577 32.4096 36.4573 32.6999 37.0902 33.2302L32.1227 38.1979C31.8607 37.8847 31.6561 37.5278 31.518 37.1435C31.3216 36.6151 31.258 36.0464 31.3327 35.4876C31.4074 34.9288 31.6181 34.3969 31.9464 33.9385C31.9867 33.8811 32.0188 33.8197 32.0628 33.7641L32.0654 33.7604C32.6169 33.0438 33.4284 32.5731 34.3243 32.4502ZM30.7212 36.5871C30.7303 36.6439 30.7412 36.6995 30.7525 36.7556C30.7647 36.8156 30.7711 36.8767 30.7859 36.9356H21.147V27.0034H31.4938V33.4563C31.4266 33.5456 31.3755 33.6427 31.3162 33.7359C31.2632 33.8195 31.2042 33.8995 31.1575 33.9859C31.0935 34.1047 31.045 34.2294 30.9932 34.3532C30.9616 34.4289 30.9197 34.5006 30.8927 34.5779C30.8899 34.5864 30.889 34.5955 30.8861 34.6038C30.8414 34.7453 30.8045 34.8892 30.7755 35.0348C30.7598 35.1054 30.7338 35.1728 30.7218 35.2445L30.7206 35.2579C30.6832 35.4832 30.6643 35.7113 30.6641 35.9397C30.6661 36.1567 30.6852 36.3732 30.7212 36.5871ZM33.7131 25.1482C33.8689 25.3259 33.9537 25.5548 33.9512 25.7911V31.8674C33.9379 31.8701 33.9258 31.8762 33.9125 31.8791C33.7091 31.9244 33.5095 31.9853 33.3153 32.0611C33.2813 32.0742 33.2478 32.0876 33.2142 32.1015C33.0229 32.1814 32.838 32.2759 32.6611 32.3841C32.6338 32.4008 32.6077 32.4188 32.5811 32.4361C32.424 32.5362 32.274 32.6472 32.1322 32.7681V26.6843C32.1322 26.6424 32.124 26.6009 32.1079 26.5622C32.0919 26.5234 32.0684 26.4883 32.0388 26.4586C32.0091 26.429 31.9739 26.4055 31.9352 26.3895C31.8965 26.3734 31.855 26.3652 31.813 26.3652H21.147V25.7911C21.1451 25.5523 21.2317 25.3212 21.39 25.1424L23.4326 22.7524H31.6658L33.7131 25.1482ZM23.6045 22.1143V20.5443H31.4938V22.1143H23.6045ZM32.266 17.3529C32.3575 17.3529 32.4452 17.3892 32.5099 17.4539C32.5746 17.5185 32.611 17.6062 32.611 17.6976V19.5676C32.6101 19.6582 32.5733 19.7448 32.5086 19.8082C32.4439 19.8717 32.3567 19.9069 32.266 19.9061H22.8322C22.7416 19.9068 22.6545 19.8716 22.5899 19.8081C22.5252 19.7447 22.4884 19.6582 22.4875 19.5676V17.6976C22.4876 17.6062 22.5239 17.5186 22.5885 17.454C22.6532 17.3893 22.7408 17.353 22.8322 17.3529H32.266ZM21.8929 19.8398C21.8986 19.859 21.9038 19.8777 21.9106 19.8963C21.9396 19.9784 21.9796 20.0563 22.0294 20.1278C22.0369 20.1383 22.0461 20.1469 22.054 20.1573C22.1022 20.2196 22.1577 20.2758 22.2193 20.3248C22.2325 20.3354 22.2443 20.3467 22.258 20.3566C22.3288 20.4074 22.4059 20.4485 22.4875 20.4789C22.4943 20.4815 22.4996 20.4865 22.5065 20.4889C22.4265 20.5171 22.3423 20.5315 22.2575 20.5313H21.4795V19.0185H21.8491V19.5674C21.8505 19.6598 21.8653 19.7516 21.8929 19.8398ZM9.94465 39.4695C9.86341 39.4694 9.78554 39.437 9.72813 39.3795C9.67071 39.322 9.63843 39.2441 9.63835 39.1629V11.0525C9.63844 10.9713 9.67074 10.8935 9.72817 10.836C9.78559 10.7786 9.86344 10.7463 9.94465 10.7462H24.4342C24.5154 10.7463 24.5933 10.7786 24.6507 10.836C24.7081 10.8935 24.7404 10.9713 24.7405 11.0525V16.7143H22.8322C22.5716 16.7147 22.3217 16.8183 22.1374 17.0026C21.9531 17.1869 21.8495 17.4368 21.8491 17.6974V18.3802H20.0555C19.6904 18.3875 19.3427 18.5376 19.087 18.7984C18.8314 19.0592 18.6882 19.4098 18.6882 19.775C18.6882 20.1401 18.8314 20.4908 19.087 20.7515C19.3427 21.0123 19.6904 21.1624 20.0555 21.1697H22.2575C22.5077 21.1681 22.7527 21.0984 22.9662 20.9679V22.3157L21.7744 23.7101H20.0555C19.688 23.715 19.3372 23.8645 19.079 24.1261C18.8209 24.3877 18.6761 24.7405 18.6761 25.1081C18.6761 25.4756 18.8209 25.8284 19.079 26.09C19.3372 26.3516 19.688 26.5011 20.0555 26.506H20.5087V29.046H20.0555C19.6908 29.0538 19.3437 29.2042 19.0886 29.4649C18.8335 29.7256 18.6906 30.0759 18.6906 30.4407C18.6906 30.8054 18.8335 31.1557 19.0886 31.4164C19.3437 31.6771 19.6908 31.8275 20.0555 31.8353H20.5087V34.3823H20.0555C19.6902 34.3892 19.3421 34.5392 19.0862 34.8C18.8303 35.0609 18.6869 35.4117 18.6869 35.7771C18.6869 36.1425 18.8303 36.4933 19.0862 36.7541C19.3421 37.0149 19.6902 37.1649 20.0555 37.1718H20.5087V38.4668C20.5094 38.5697 20.5197 38.6723 20.5396 38.7732C20.5457 38.805 20.5557 38.835 20.5636 38.8662C20.5798 38.9327 20.6001 38.9981 20.6245 39.0621C20.6377 39.0958 20.6528 39.1281 20.6682 39.1606C20.6953 39.2185 20.7259 39.2747 20.7596 39.329C20.7785 39.359 20.7972 39.389 20.8179 39.4181C20.8297 39.4347 20.8388 39.4531 20.8512 39.4691L9.94465 39.4695ZM20.8412 19.0185V20.5313H20.0555C19.8577 20.5271 19.6694 20.4455 19.5311 20.3041C19.3927 20.1627 19.3152 19.9727 19.3152 19.7749C19.3152 19.5771 19.3927 19.3871 19.5311 19.2457C19.6694 19.1043 19.8577 19.0227 20.0555 19.0185H20.8412ZM20.5087 29.6844V31.1974H20.0555C19.9558 31.1963 19.8574 31.1754 19.766 31.1357C19.6745 31.0961 19.5919 31.0387 19.5229 30.9668C19.454 30.8948 19.4001 30.8098 19.3643 30.7168C19.3286 30.6238 19.3119 30.5245 19.315 30.4249C19.3152 30.2286 19.3933 30.0404 19.5321 29.9016C19.6709 29.7628 19.8591 29.6847 20.0554 29.6844H20.5087ZM20.5087 35.0208V36.5336H20.0555C19.9559 36.5326 19.8575 36.5116 19.766 36.472C19.6746 36.4325 19.592 36.375 19.523 36.3031C19.454 36.2312 19.4001 36.1463 19.3644 36.0532C19.3287 35.9602 19.3119 35.861 19.315 35.7614C19.3152 35.5651 19.3933 35.3769 19.5321 35.238C19.6709 35.0992 19.8591 35.0211 20.0554 35.0208H20.5087ZM20.5087 25.7911V25.8679H20.0555C19.9557 25.8655 19.8573 25.8434 19.7661 25.8029C19.6748 25.7624 19.5924 25.7043 19.5236 25.6319C19.4548 25.5595 19.401 25.4743 19.3652 25.3811C19.3294 25.2878 19.3124 25.1885 19.315 25.0887C19.3176 24.8931 19.3964 24.7063 19.5347 24.568C19.673 24.4297 19.8599 24.3509 20.0554 24.3483H21.2279L20.9088 24.723C20.6488 25.0178 20.5063 25.398 20.5087 25.7911ZM22.149 39.4695C21.8833 39.4692 21.6286 39.3636 21.4407 39.1757C21.2528 38.9877 21.1472 38.733 21.147 38.4673V37.5739H31.0084C31.0588 37.6933 31.1134 37.81 31.1748 37.9232C31.2001 37.9701 31.2264 38.0155 31.2534 38.0612C31.3473 38.2214 31.4519 38.3751 31.5664 38.5212C31.5787 38.5368 31.5889 38.5539 31.6014 38.5691C31.685 38.672 31.7758 38.7687 31.8689 38.863C31.8738 38.8712 31.8791 38.8792 31.8847 38.8868C31.8894 38.8915 31.8957 38.893 31.9006 38.8974C31.9406 38.9369 31.9826 38.9734 32.024 39.0113C32.06 39.0443 32.0972 39.0753 32.1345 39.107C32.2712 39.2242 32.4155 39.3324 32.5663 39.4308C32.5844 39.4426 32.5998 39.4582 32.6181 39.4696L22.149 39.4695ZM34.832 39.4695C34.4598 39.4723 34.0897 39.4129 33.737 39.2938C33.3125 39.1541 32.9188 38.9343 32.577 38.6463L37.542 33.6813C37.9722 34.1962 38.2466 34.8232 38.3329 35.4885C38.4193 36.1539 38.314 36.8301 38.0296 37.4377C37.7451 38.0454 37.2933 38.5593 36.727 38.9192C36.1607 39.279 35.5035 39.4699 34.8326 39.4694L34.832 39.4695Z" fill="#136565"/>
</svg>
