<svg width="49" height="48" viewBox="0 0 49 48" fill="none" xmlns="http://www.w3.org/2000/svg">
<rect width="48.2124" height="48" rx="8" fill="white"/>
<g clip-path="url(#clip0_38_4107)">
<path d="M38.5468 10.8759H9.45344C8.65219 10.8759 8 11.5277 8 12.3294V33.2755C8 34.0771 8.65219 34.729 9.45344 34.729H20.894C20.4143 36.4534 17.2902 37.2287 17.2564 37.2371C17.2436 37.2403 17.2321 37.2454 17.2199 37.2496C17.2071 37.2538 17.194 37.2573 17.1815 37.2627C17.1657 37.2695 17.1517 37.2784 17.1373 37.2867C17.1277 37.2924 17.1175 37.2969 17.1081 37.303C17.0879 37.3168 17.0697 37.3325 17.0521 37.3491C17.0444 37.3565 17.0374 37.3644 17.0303 37.3724C17.0169 37.3874 17.0035 37.4025 16.9919 37.4192C16.9848 37.4294 16.9794 37.4409 16.973 37.4521C16.9656 37.4652 16.9577 37.478 16.9516 37.4918C16.9462 37.5037 16.9426 37.5165 16.9385 37.5289C16.9337 37.5432 16.9286 37.5573 16.925 37.5721C16.9221 37.5846 16.9205 37.5974 16.919 37.6105C16.9167 37.6263 16.9148 37.6422 16.9142 37.6582C16.9139 37.6633 16.9126 37.6681 16.9126 37.6736V38.8908C16.9126 39.1389 17.1136 39.3398 17.3616 39.3398H30.6392C30.8872 39.3398 31.0881 39.1389 31.0881 38.8908V37.6736C31.0881 37.6688 31.0869 37.6643 31.0869 37.6595C31.0863 37.6419 31.0843 37.6246 31.0818 37.6076C31.0802 37.5961 31.0789 37.5846 31.0764 37.573C31.0725 37.5567 31.0671 37.5411 31.0617 37.525C31.0578 37.5142 31.0546 37.5029 31.0501 37.4924C31.043 37.4764 31.0338 37.4614 31.0248 37.4461C31.0197 37.4374 31.0155 37.4281 31.0098 37.4195C30.9954 37.3983 30.9791 37.3789 30.9612 37.3606C30.9596 37.3591 30.9586 37.3571 30.957 37.3555C30.9375 37.3361 30.9157 37.3181 30.8923 37.3024C30.8849 37.2973 30.8763 37.2938 30.8687 37.289C30.8526 37.2794 30.8367 37.2698 30.8191 37.2621C30.8072 37.257 30.7948 37.2538 30.7826 37.2496C30.7698 37.2454 30.7576 37.2397 30.7445 37.2365C30.7102 37.2281 27.5928 36.4314 27.1088 34.7283H38.5477C39.3493 34.7283 40.0011 34.0761 40.0011 33.2749V12.3293C39.9999 11.5276 39.3477 10.8759 38.5464 10.8759L38.5468 10.8759ZM30.1902 38.4413H17.81V38.1219H30.1897L30.1898 38.4413H30.1902ZM28.3007 37.224H19.6996C20.6631 36.6838 21.6157 35.873 21.8167 34.7283H26.1831C26.3849 35.873 27.3374 36.6839 28.3007 37.224ZM39.1023 33.2749C39.1023 33.5815 38.853 33.8305 38.5467 33.8305H9.45341C9.14685 33.8305 8.89789 33.5812 8.89789 33.2749V12.3288C8.89789 12.0222 9.14717 11.7733 9.45341 11.7733H38.5467C38.8533 11.7733 39.1023 12.0226 39.1023 12.3288V33.2749Z" fill="#555350"/>
<path d="M37.7547 12.6722H10.2453C9.99733 12.6722 9.79639 12.8731 9.79639 13.1211V30.379C9.79639 30.627 9.99733 30.828 10.2453 30.828H37.7547C38.0027 30.828 38.2036 30.627 38.2036 30.379V13.1211C38.2033 12.8731 38.0024 12.6722 37.7544 12.6722H37.7547ZM37.3057 29.93H10.6937V13.57H37.306V29.93H37.3057Z" fill="#555350"/>
<path d="M17.4939 28.0596H30.5062C31.6188 28.0596 32.5238 27.1546 32.5238 26.042V17.458C32.5238 16.3457 31.6188 15.4404 30.5062 15.4404H17.4939C16.3816 15.4404 15.4763 16.3454 15.4763 17.458V26.042C15.4766 27.1543 16.3816 28.0596 17.4939 28.0596ZM30.5065 27.1617H17.4939C16.8766 27.1617 16.3742 26.6593 16.3742 26.042V25.4113H20.1337H20.1353H20.1365H27.8643H27.8655H27.8671H31.6265V26.042C31.6263 26.6593 31.1239 27.1617 30.5066 27.1617H30.5065ZM24.0003 21.4641C23.0054 21.4641 22.1962 20.6548 22.1962 19.6599C22.1962 18.665 23.0054 17.8555 24.0003 17.8555C24.9952 17.8555 25.8045 18.6647 25.8045 19.6599C25.8045 20.6545 24.9952 21.4641 24.0003 21.4641ZM24.0003 22.3617C24.3299 22.3617 24.6448 22.2993 24.9373 22.1909C26.0704 22.5103 26.968 23.4005 27.3075 24.5132H20.6931C21.0326 23.4006 21.9305 22.5103 23.0633 22.1909C23.3558 22.2996 23.6707 22.3617 24.0003 22.3617ZM17.4942 16.3382H30.5065C31.1241 16.3382 31.6261 16.8406 31.6261 17.4579V24.5131H28.2355C27.9318 23.2367 27.0537 22.1595 25.8841 21.5931C26.3881 21.1019 26.7026 20.4171 26.7026 19.6597C26.7026 18.1698 25.4905 16.9575 24.0005 16.9575C22.5106 16.9575 21.2984 18.1697 21.2984 19.6597C21.2984 20.4174 21.613 21.102 22.1169 21.5931C20.9473 22.1595 20.0692 23.2367 19.7655 24.5131H16.3746V17.4579C16.3746 16.8403 16.877 16.3382 17.4943 16.3382H17.4942Z" fill="#555350"/>
<path d="M24.2896 12.2215C24.2896 12.3814 24.1599 12.5111 24 12.5111C23.8401 12.5111 23.7104 12.3814 23.7104 12.2215C23.7104 12.0615 23.8401 11.9318 24 11.9318C24.1599 11.9318 24.2896 12.0615 24.2896 12.2215Z" fill="#555350"/>
</g>
<defs>
<clipPath id="clip0_38_4107">
<rect width="32" height="32" fill="white" transform="translate(8 9.10791)"/>
</clipPath>
</defs>
</svg>
