<svg width="49" height="48" viewBox="0 0 49 48" fill="none" xmlns="http://www.w3.org/2000/svg">
<rect width="48.2124" height="48" rx="8" fill="#E3ECF5"/>
<path d="M21.922 20.2113L22.2299 19.9504L22.5252 19.6762C22.3469 19.4665 22.1251 19.298 21.8753 19.1825C21.6255 19.067 21.3535 19.0072 21.0783 19.0072C20.803 19.0072 20.5311 19.067 20.2812 19.1825C20.0314 19.298 19.8096 19.4665 19.6313 19.6762L19.6201 19.6895C19.5718 19.748 19.5411 19.819 19.5317 19.8943C19.5222 19.9696 19.5344 20.046 19.5668 20.1146C19.5991 20.1832 19.6503 20.2412 19.7144 20.2818C19.7785 20.3224 19.8529 20.3439 19.9287 20.3439C19.9891 20.344 20.0488 20.331 20.1036 20.3059C20.1585 20.2807 20.2072 20.2439 20.2464 20.198C20.35 20.0764 20.479 19.979 20.6243 19.9127C20.7696 19.8463 20.9276 19.8126 21.0873 19.8138C21.247 19.8151 21.4045 19.8513 21.5487 19.92C21.693 19.9887 21.8204 20.0881 21.922 20.2113Z" fill="#0062FF"/>
<path d="M24.8192 20.2513C24.8912 20.3115 24.9821 20.3443 25.0759 20.3439C25.1363 20.344 25.196 20.331 25.2508 20.3059C25.3057 20.2807 25.3544 20.2439 25.3936 20.198C25.4972 20.0764 25.6262 19.979 25.7715 19.9127C25.9168 19.8463 26.0748 19.8126 26.2345 19.8138C26.3942 19.8151 26.5517 19.8513 26.6959 19.92C26.8402 19.9887 26.9676 20.0881 27.0692 20.2113L27.3771 19.9504L27.6724 19.6762C27.4941 19.4665 27.2723 19.298 27.0225 19.1825C26.7727 19.067 26.5007 19.0072 26.2255 19.0072C25.9502 19.0072 25.6783 19.067 25.4284 19.1825C25.1786 19.298 24.9568 19.4665 24.7785 19.6762L24.7673 19.6895C24.7334 19.7296 24.7078 19.776 24.6921 19.8261C24.6763 19.8762 24.6707 19.929 24.6755 19.9813C24.6803 20.0336 24.6955 20.0844 24.7202 20.1307C24.7449 20.1771 24.7785 20.2181 24.8192 20.2513Z" fill="#0062FF"/>
<path d="M25.9079 23.4538L25.5937 23.2013L25.2585 22.9748C25.0663 23.2165 24.822 23.4118 24.5438 23.546C24.2657 23.6802 23.9608 23.7499 23.652 23.7499C23.3431 23.7499 23.0383 23.6802 22.7601 23.546C22.4819 23.4118 22.2377 23.2165 22.0455 22.9748L22.0259 22.9502C21.993 22.9098 21.9523 22.8763 21.9064 22.8519C21.8604 22.8274 21.8099 22.8123 21.758 22.8076C21.7062 22.8029 21.6538 22.8086 21.6042 22.8245C21.5546 22.8403 21.5086 22.8659 21.469 22.8997C21.3873 22.9707 21.3361 23.0704 21.326 23.1782C21.316 23.286 21.3478 23.3934 21.415 23.4783C21.6843 23.8168 22.0269 24.0897 22.417 24.2766C22.8071 24.4634 23.2345 24.5593 23.6671 24.5571C24.0996 24.5549 24.526 24.4546 24.9141 24.2637C25.3023 24.0728 25.6421 23.7964 25.9079 23.4552V23.4538Z" fill="#0062FF"/>
<path d="M33.0725 31.1099L32.6776 30.9844V17.2901C32.6757 15.121 31.8134 13.0412 30.2798 11.5072C28.7462 9.97322 26.6666 9.11032 24.4975 9.10791H22.8107C20.641 9.1094 18.5605 9.97188 17.0262 11.506C15.4918 13.0401 14.629 15.1204 14.6271 17.2901V30.9844L14.233 31.1099C13.2935 31.4072 12.4734 31.9965 11.8919 32.7921C11.3105 33.5877 10.9982 34.548 11.0004 35.5334V40.685C10.9981 40.7393 11.0068 40.7936 11.0261 40.8444C11.0453 40.8953 11.0746 40.9417 11.1122 40.981C11.1499 41.0202 11.1951 41.0514 11.2451 41.0728C11.2951 41.0941 11.3489 41.1051 11.4033 41.1051C11.4577 41.1051 11.5115 41.0941 11.5615 41.0728C11.6115 41.0514 11.6567 41.0202 11.6943 40.981C11.732 40.9417 11.7613 40.8953 11.7805 40.8444C11.7997 40.7936 11.8085 40.7393 11.8062 40.685V35.5334C11.8044 34.7192 12.0625 33.9256 12.543 33.2682C13.0235 32.6108 13.7013 32.124 14.4777 31.8786L15.1497 31.664L18.6768 30.5418L17.3569 34.8959C17.3286 34.9891 17.3351 35.0894 17.3751 35.1782C17.415 35.2671 17.4858 35.3384 17.5743 35.3791L19.8439 36.427L19.3656 38.1271C19.342 38.2107 19.3461 38.2997 19.3772 38.3809C19.4082 38.462 19.4647 38.5309 19.5381 38.5774L23.4125 41.0287C23.4771 41.0696 23.552 41.0913 23.6285 41.0911H23.651H23.6734C23.7499 41.0913 23.8248 41.0696 23.8894 41.0287L27.7638 38.5774C27.8372 38.5309 27.8937 38.462 27.9248 38.3809C27.9559 38.2997 27.9599 38.2107 27.9363 38.1271L27.458 36.427L29.7276 35.3791C29.8161 35.3384 29.8869 35.2671 29.9269 35.1782C29.9668 35.0894 29.9733 34.9891 29.9451 34.8959L28.6251 30.5418L32.8256 31.8814C33.602 32.1268 34.2798 32.6136 34.7603 33.271C35.2408 33.9284 35.499 34.722 35.4971 35.5362V40.6878C35.4948 40.7421 35.5036 40.7964 35.5228 40.8472C35.542 40.8981 35.5714 40.9445 35.609 40.9838C35.6466 41.023 35.6918 41.0543 35.7418 41.0756C35.7919 41.0969 35.8457 41.1079 35.9 41.1079C35.9544 41.1079 36.0082 41.0969 36.0583 41.0756C36.1083 41.0543 36.1535 41.023 36.1911 40.9838C36.2287 40.9445 36.2581 40.8981 36.2773 40.8472C36.2965 40.7964 36.3053 40.7421 36.303 40.6878V35.5334C36.3053 34.5483 35.9932 33.5881 35.4122 32.7926C34.8312 31.997 34.0116 31.4075 33.0725 31.1099ZM26.4487 28.9981V27.0728C28.1545 26.3146 29.1399 24.8908 29.7031 23.3787H30.6436C31.0875 23.3794 31.519 23.2331 31.871 22.9628V30.7269L26.4487 28.9981ZM30.3855 20.0837H30.6464C30.9764 20.0837 31.2929 20.2147 31.5262 20.4481C31.7596 20.6814 31.8907 20.9979 31.8907 21.3279C31.8907 21.6579 31.7596 21.9744 31.5262 22.2077C31.2929 22.441 30.9764 22.5721 30.6464 22.5721H29.9647C30.186 21.7584 30.3269 20.9249 30.3855 20.0837ZM22.8107 9.91378H24.501C26.4558 9.91694 28.3295 10.6953 29.7111 12.0781C31.0928 13.4609 31.8695 15.3353 31.871 17.2901V19.6909C31.5183 19.4221 31.0871 19.2767 30.6436 19.2771H30.4213C30.4354 18.7651 30.4194 18.2526 30.3736 17.7425C30.3657 17.6674 30.3368 17.596 30.2903 17.5365C30.2438 17.4769 30.1816 17.4317 30.1106 17.4058C28.5192 16.8237 26.7854 14.4601 26.7686 14.4327C26.7342 14.3856 26.6901 14.3465 26.6393 14.3179C26.5884 14.2894 26.5321 14.2721 26.474 14.2672C26.4158 14.2625 26.3573 14.2706 26.3026 14.2908C26.2478 14.311 26.1981 14.3429 26.157 14.3843C23.8495 16.6918 17.3569 17.3764 17.2916 17.3834C17.1994 17.3927 17.1133 17.4335 17.0476 17.4989C16.982 17.5643 16.9408 17.6503 16.9311 17.7425C16.8853 18.2526 16.8694 18.7651 16.8834 19.2771H16.6611C16.2173 19.2764 15.7857 19.4227 15.4337 19.693V17.2901C15.4359 15.3346 16.214 13.4599 17.5971 12.0775C18.9801 10.695 20.8552 9.91789 22.8107 9.91659V9.91378ZM17.34 22.5742H16.6604C16.3304 22.5742 16.0139 22.4431 15.7806 22.2098C15.5473 21.9765 15.4162 21.66 15.4162 21.33C15.4162 21 15.5473 20.6835 15.7806 20.4502C16.0139 20.2168 16.3304 20.0858 16.6604 20.0858H16.9192C16.9778 20.927 17.1187 21.7605 17.34 22.5742ZM15.433 22.967C15.7857 23.2358 16.217 23.3812 16.6604 23.3808H17.6009C18.162 24.893 19.1496 26.3167 20.8553 27.0749V29.0002L15.433 30.7291V22.967ZM20.2248 38.0535L20.7157 36.312C20.7418 36.2196 20.7341 36.121 20.694 36.0339C20.6538 35.9467 20.584 35.8767 20.4969 35.8364L18.2336 34.7914L19.341 31.1309L20.6035 34.264V34.2689L22.7834 39.6694L20.2248 38.0535ZM23.6524 39.6666L21.5756 34.5193H25.7291L23.6524 39.6666ZM26.8085 35.8392C26.7214 35.8794 26.6514 35.9494 26.6113 36.0366C26.5712 36.1238 26.5635 36.2224 26.5897 36.3148L27.0807 38.0563L24.5186 39.6778L27.9637 31.1309L29.0726 34.7886L26.8085 35.8392ZM26.0539 33.7127H21.2495L19.8229 30.1764L21.3813 29.6798C21.4627 29.6536 21.5337 29.6023 21.5841 29.5332C21.6345 29.4642 21.6617 29.3809 21.6619 29.2955V26.8042C21.6614 26.7239 21.6369 26.6456 21.5917 26.5793C21.5465 26.5129 21.4825 26.4616 21.408 26.4318C17.6115 24.9589 17.6423 19.5303 17.7139 18.15C19.0619 17.9795 24.0031 17.2438 26.3877 15.2624C26.939 15.954 28.2407 17.4549 29.5874 18.063C29.6624 19.2897 29.783 24.9182 25.8982 26.4283C25.8224 26.4577 25.7573 26.5094 25.7114 26.5765C25.6655 26.6435 25.6409 26.7229 25.6408 26.8042V29.2926C25.6409 29.3781 25.6682 29.4614 25.7186 29.5304C25.769 29.5995 25.8399 29.6508 25.9213 29.677L27.4797 30.1736L26.0539 33.7127Z" fill="#0062FF"/>
<path d="M33.1553 37.6579H31.9714V36.474C31.9714 36.421 31.961 36.3686 31.9407 36.3196C31.9204 36.2707 31.8907 36.2262 31.8533 36.1888C31.8158 36.1514 31.7714 36.1216 31.7225 36.1014C31.6735 36.0811 31.6211 36.0707 31.5681 36.0707C31.5152 36.0707 31.4627 36.0811 31.4138 36.1014C31.3649 36.1216 31.3204 36.1514 31.283 36.1888C31.2455 36.2262 31.2158 36.2707 31.1955 36.3196C31.1753 36.3686 31.1648 36.421 31.1648 36.474V37.6579H29.9816C29.9273 37.6556 29.8731 37.6644 29.8222 37.6836C29.7713 37.7028 29.7249 37.7321 29.6857 37.7698C29.6464 37.8074 29.6152 37.8526 29.5939 37.9026C29.5725 37.9526 29.5615 38.0064 29.5615 38.0608C29.5615 38.1152 29.5725 38.169 29.5939 38.219C29.6152 38.269 29.6464 38.3142 29.6857 38.3519C29.7249 38.3895 29.7713 38.4188 29.8222 38.4381C29.8731 38.4573 29.9273 38.466 29.9816 38.4638H31.1648V39.6477C31.1648 39.7546 31.2073 39.8572 31.283 39.9328C31.3586 40.0085 31.4612 40.051 31.5681 40.051C31.6751 40.051 31.7777 40.0085 31.8533 39.9328C31.9289 39.8572 31.9714 39.7546 31.9714 39.6477V38.4638H33.1553C33.2097 38.466 33.2639 38.4573 33.3147 38.4381C33.3656 38.4188 33.4121 38.3895 33.4513 38.3519C33.4905 38.3142 33.5218 38.269 33.5431 38.219C33.5644 38.169 33.5754 38.1152 33.5754 38.0608C33.5754 38.0064 33.5644 37.9526 33.5431 37.9026C33.5218 37.8526 33.4905 37.8074 33.4513 37.7698C33.4121 37.7321 33.3656 37.7028 33.3147 37.6836C33.2639 37.6644 33.2097 37.6556 33.1553 37.6579Z" fill="#0062FF"/>
</svg>
