<svg fill="none" height="26" viewBox="0 0 21 26" width="21" xmlns="http://www.w3.org/2000/svg"><g clip-rule="evenodd" fill="#1e1d1a" fill-rule="evenodd"><path d="m18.5536.625h-10.43873-.83386-.12354l-6.485595 6.36206v16.67724c0 .8956.741215 1.606 1.636845 1.606h16.05958c.8647 0 1.8221-.6795 1.8221-1.606v-21.43334c-.0309-.89563-.7412-1.60596-1.6368-1.60596zm-11.27247 1.01917v5.18847h-5.28113zm12.04427 22.02013c0 .3706-.525.7721-.9882.7721h-16.05961c-.43238 0-.80298-.3397-.80298-.7721v-15.9978h6.60913v-6.20764h10.40786c.4324 0 .803.33972.803.7721v21.43334z"/><path d="m4.7793 19.6803h10.902v.803h-10.902z"/><path d="m4.7793 16.7772h10.8711v.803h-10.8711z"/><path d="m4.7793 13.8741h10.902v.803h-10.902z"/><path d="m4.7793 10.9711h10.902v.8029h-10.902z"/><path d="m10.6475 7.6665h5.034v.80298h-5.034z"/></g></svg>