<svg width="49" height="48" viewBox="0 0 49 48" fill="none" xmlns="http://www.w3.org/2000/svg">
<rect width="48.2124" height="48" rx="8" fill="white"/>
<path d="M28.5396 16.1079C25.8211 16.1079 23.3332 16.8846 21.4339 18.1529C20.5783 17.9708 19.6925 17.8738 18.7941 17.8738C13.3934 17.8738 9 21.2295 9 25.3501C9 27.5467 10.2317 29.5858 12.3921 31.0057L11.8945 34.4161C11.8582 34.6589 11.9735 34.9014 12.1858 35.0228C12.2828 35.0774 12.386 35.1079 12.4954 35.1079C12.6229 35.1079 12.7504 35.0655 12.8596 34.9865L16.1424 32.541C18.7335 33.0931 21.5615 32.7899 23.8495 31.74C25.2695 32.2619 26.8532 32.5651 28.5403 32.5651C29.5415 32.5651 30.5368 32.462 31.4956 32.2497L35.1667 34.9865C35.2759 35.0655 35.4034 35.1079 35.5309 35.1079C35.6401 35.1079 35.7432 35.0777 35.8405 35.0228C36.0528 34.8953 36.1681 34.6586 36.1318 34.4161L35.5736 30.5869C37.9698 29.0212 39.3412 26.7639 39.3412 24.3364C39.3412 19.8035 34.4929 16.1079 28.54 16.1079L28.5396 16.1079ZM16.1422 31.2965C15.9662 31.2541 15.7841 31.2904 15.6386 31.3996L13.3084 33.1411L13.6482 30.7865C13.6845 30.5437 13.5692 30.307 13.3569 30.1798C11.3604 28.9846 10.2135 27.2187 10.2135 25.3497C10.2135 21.897 14.0606 19.0934 18.7879 19.0934C19.243 19.0934 19.6981 19.1178 20.141 19.1724C18.636 20.5862 17.7318 22.3826 17.7318 24.3425C17.7318 27.1095 19.5401 29.555 22.2952 31.0477C20.378 31.6724 18.1689 31.7819 16.1422 31.2963V31.2965ZM34.6018 29.7613C34.3894 29.8888 34.2802 30.1255 34.3104 30.368L34.7171 33.1411L31.9986 31.1144C31.8955 31.0354 31.768 30.993 31.6344 30.993C31.5859 30.993 31.5435 30.9991 31.4947 31.0113C30.536 31.2419 29.5406 31.3572 28.5395 31.3572C23.2541 31.3572 18.9521 28.2077 18.9521 24.3425C18.9521 20.4771 23.2544 17.3279 28.5395 17.3279C33.8249 17.3281 38.1275 20.4713 38.1275 24.3367C38.1275 26.4424 36.8409 28.4208 34.6018 29.7617L34.6018 29.7613Z" fill="black" fill-opacity="0.7"/>
<path d="M29.0435 19.7795C28.2123 19.634 27.3747 19.8585 26.7377 20.3923C26.1005 20.9264 25.7366 21.7092 25.7366 22.5404C25.7366 22.8741 26.0096 23.1471 26.3433 23.1471C26.677 23.1471 26.95 22.8741 26.95 22.5404C26.95 22.067 27.1563 21.6241 27.5205 21.3206C27.8847 21.011 28.3578 20.8898 28.8373 20.9747C29.4745 21.0839 29.9964 21.6119 30.1118 22.2491C30.2454 23.0077 29.8448 23.742 29.1348 24.0211C28.4066 24.3124 27.9393 24.9737 27.9393 25.714V26.333C27.9393 26.6667 28.2123 26.9397 28.546 26.9397C28.8798 26.9397 29.1528 26.6667 29.1528 26.333V25.714C29.1528 25.4288 29.3773 25.2345 29.5896 25.1497C30.8397 24.6522 31.5437 23.3716 31.3131 22.0368C31.1007 20.9082 30.1725 19.9796 29.0436 19.7795L29.0435 19.7795Z" fill="black" fill-opacity="0.7"/>
<path d="M35.1086 25.9046C34.9933 26.0138 34.9326 26.1715 34.9326 26.3353C34.9326 26.493 34.9933 26.6507 35.1086 26.7602C35.2178 26.8755 35.3755 26.9362 35.5394 26.9362C35.6971 26.9362 35.8548 26.8755 35.9642 26.7602C36.0796 26.651 36.1463 26.4933 36.1463 26.3353C36.1463 26.1715 36.0796 26.0138 35.9642 25.9046C35.7397 25.674 35.3331 25.6801 35.1086 25.9046Z" fill="black" fill-opacity="0.7"/>
</svg>
