<svg width="49" height="48" viewBox="0 0 49 48" fill="none" xmlns="http://www.w3.org/2000/svg">
<rect width="48.2124" height="48" rx="8" fill="#F8E9E2"/>
<path opacity="0.7" d="M36.9568 27.8279L31.4667 26.7986V24.0252C32.128 23.5312 32.6652 22.8898 33.0355 22.1519C33.4058 21.4141 33.5991 20.6001 33.6 19.7746C34.0691 19.7762 34.5256 19.6227 34.8983 19.3378C35.2711 19.053 35.5392 18.653 35.6609 18.1999C35.7826 17.7469 35.7511 17.2663 35.5713 16.8331C35.3915 16.3998 35.0734 16.0381 34.6667 15.8045V13.4189C34.6667 12.9733 34.576 12.5324 34.4001 12.1231C34.2242 11.7137 33.9667 11.3445 33.6435 11.0379C33.3202 10.7313 32.9379 10.4937 32.5198 10.3397C32.1017 10.1857 31.6566 10.1184 31.2117 10.1421C30.9851 9.82153 30.6847 9.56023 30.3359 9.38024C29.987 9.20025 29.6 9.10685 29.2075 9.10792H26.1333C25.0021 9.10919 23.9176 9.55912 23.1177 10.359C22.3179 11.1589 21.8679 12.2434 21.8667 13.3746V15.8045C21.4599 16.0381 21.1419 16.3998 20.962 16.8331C20.7822 17.2663 20.7507 17.7469 20.8724 18.1999C20.9941 18.653 21.2623 19.053 21.635 19.3378C22.0078 19.6227 22.4642 19.7762 22.9333 19.7746C22.9339 20.6004 23.127 21.4148 23.4973 22.1529C23.8676 22.8911 24.405 23.5327 25.0667 24.0268V26.1746H19.2C18.7844 26.1758 18.3749 26.2744 18.0044 26.4627C17.6339 26.6509 17.3127 26.9234 17.0667 27.2583C16.9911 27.1504 16.9078 27.0481 16.8176 26.9522C16.3171 26.454 15.6395 26.1744 14.9333 26.1746H13.3333V20.3079H13.8667C14.0081 20.3079 14.1438 20.3641 14.2438 20.4641C14.3438 20.5641 14.4 20.6998 14.4 20.8412V24.0412H15.4667V20.8412C15.4667 20.4169 15.2981 20.0099 14.998 19.7099C14.698 19.4098 14.291 19.2413 13.8667 19.2413H13.3333V18.7079C13.3333 18.2836 13.1648 17.8766 12.8647 17.5765C12.5646 17.2765 12.1577 17.1079 11.7333 17.1079C11.309 17.1079 10.902 17.2765 10.602 17.5765C10.3019 17.8766 10.1333 18.2836 10.1333 18.7079V26.1746H8.53333C8.39188 26.1746 8.25623 26.2308 8.15621 26.3308C8.05619 26.4308 8 26.5665 8 26.7079V40.5746C8 40.716 8.05619 40.8517 8.15621 40.9517C8.25623 41.0517 8.39188 41.1079 8.53333 41.1079H25.6C25.7414 41.1079 25.8771 41.0517 25.9771 40.9517C26.0771 40.8517 26.1333 40.716 26.1333 40.5746V35.2412H26.6667V34.1746H26.1333V30.9116L26.9077 30.2919L27.7333 33.182V41.1079H28.8V33.182L29.6261 30.2919L31.6667 31.9244C31.7613 32.0001 31.8788 32.0413 32 32.0412C32.0675 32.0413 32.1345 32.0286 32.1973 32.0039C32.2848 31.969 32.3614 31.9116 32.4195 31.8375C32.4776 31.7634 32.515 31.6753 32.528 31.582L33.008 28.1719L36.7627 28.8743C37.3735 28.9899 37.9247 29.3153 38.3211 29.7943C38.7174 30.2732 38.934 30.8756 38.9333 31.4972V41.1079H40V31.4972C40.0001 30.6268 39.696 29.7836 39.1403 29.1136C38.5846 28.4436 37.8123 27.9888 36.9568 27.8279ZM34.1152 16.7133C34.26 16.7923 34.3843 16.9041 34.4782 17.0397C34.5722 17.1753 34.6332 17.3309 34.6563 17.4942C34.6795 17.6576 34.6642 17.824 34.6116 17.9804C34.5591 18.1368 34.4707 18.2787 34.3536 18.3948C34.2825 18.4638 34.2023 18.5227 34.1152 18.5698C34.1253 18.5096 34.1314 18.4489 34.1333 18.3879V16.8946C34.1314 16.8338 34.1253 16.7732 34.1152 16.7133ZM21.8667 17.6413C21.8672 17.452 21.9187 17.2665 22.0158 17.104C22.1128 16.9416 22.2518 16.8083 22.4181 16.7181C22.408 16.7764 22.4019 16.8354 22.4 16.8946V18.3879C22.4019 18.4487 22.408 18.5093 22.4181 18.5693C22.2517 18.4779 22.1128 18.3437 22.0158 18.1805C21.9188 18.0173 21.8673 17.8311 21.8667 17.6413ZM11.2 18.7079C11.2 18.5665 11.2562 18.4308 11.3562 18.3308C11.4562 18.2308 11.5919 18.1746 11.7333 18.1746C11.8748 18.1746 12.0104 18.2308 12.1105 18.3308C12.2105 18.4308 12.2667 18.5665 12.2667 18.7079V19.2413H11.2V18.7079ZM11.2 20.3079H12.2667V28.0871L11.7333 28.6204L11.2 28.0871V20.3079ZM9.06667 40.0412V38.9746H14.9333C15.2631 38.9759 15.5843 39.0792 15.8532 39.2701C16.122 39.461 16.3253 39.7304 16.4352 40.0412H9.06667ZM16.5333 31.4972V38.4412C16.0722 38.0941 15.5105 37.9069 14.9333 37.9079H9.06667V27.2412H10.1333V28.3079C10.1334 28.4494 10.1896 28.585 10.2896 28.685L11.3563 29.7516C11.4563 29.8517 11.5919 29.9079 11.7333 29.9079H15.4667V28.8412H13.0208L13.1771 28.685C13.2771 28.585 13.3333 28.4494 13.3333 28.3079V27.2412H14.9333C15.1436 27.2408 15.3518 27.2819 15.5461 27.3622C15.7404 27.4424 15.917 27.5603 16.0656 27.7089C16.2143 27.8576 16.3321 28.0341 16.4124 28.2285C16.4927 28.4228 16.5338 28.631 16.5333 28.8412V31.4972ZM25.0667 40.0412H17.6981C17.808 39.7304 18.0113 39.461 18.2802 39.2701C18.549 39.0792 18.8703 38.9759 19.2 38.9746H25.0667V40.0412ZM25.0667 28.8412V37.9079H19.2C18.6228 37.9069 18.0611 38.0941 17.6 38.4412V28.8412C17.6 28.4169 17.7686 28.0099 18.0686 27.7099C18.3687 27.4098 18.7757 27.2412 19.2 27.2412H25.0667V28.8412ZM33.0667 18.3879C33.0667 18.4728 33.0329 18.5542 32.9729 18.6142C32.9129 18.6742 32.8315 18.7079 32.7467 18.7079H30.1867C30.1018 18.7079 30.0204 18.6742 29.9604 18.6142C29.9004 18.5542 29.8667 18.4728 29.8667 18.3879V16.8946C29.8667 16.8097 29.9004 16.7283 29.9604 16.6683C30.0204 16.6083 30.1018 16.5746 30.1867 16.5746H32.7467C32.8315 16.5746 32.9129 16.6083 32.9729 16.6683C33.0329 16.7283 33.0667 16.8097 33.0667 16.8946V18.3879ZM31.4667 11.2055C32.0396 11.2266 32.582 11.4691 32.9798 11.8818C33.3777 12.2946 33.6 12.8456 33.6 13.4189V15.5079H33.3221C32.5855 14.4763 31.9634 13.3675 31.4667 12.2013V11.2055ZM32.016 15.5079H30.1867C29.8397 15.5096 29.5059 15.6412 29.2513 15.8769C28.9967 16.1126 28.8396 16.4352 28.8112 16.781C28.4512 16.7148 28.0821 16.7148 27.7221 16.781C27.6937 16.4352 27.5367 16.1126 27.282 15.8769C27.0274 15.6412 26.6936 15.5096 26.3467 15.5079H24.52C24.6752 15.2722 24.8309 15.0141 24.9872 14.7421L25.2181 14.7207C27.1332 14.5425 28.9923 13.9775 30.6827 13.0599C31.0679 13.9068 31.5135 14.7249 32.016 15.5079ZM22.9333 13.3746C22.9342 12.5262 23.2716 11.7127 23.8715 11.1128C24.4715 10.5128 25.2849 10.1754 26.1333 10.1746H29.2075C29.4472 10.1736 29.6831 10.2348 29.8921 10.3523C30.1011 10.4697 30.2761 10.6392 30.4 10.8445V12.0018C28.7776 12.9226 26.9777 13.4873 25.12 13.6583L22.9333 13.8573V13.3746ZM22.9333 15.5079V14.9282L23.6683 14.8615C23.5141 15.0983 23.3616 15.3154 23.2117 15.5079H22.9333ZM23.4667 18.3879V16.8946C23.4667 16.8097 23.5004 16.7283 23.5604 16.6683C23.6204 16.6083 23.7018 16.5746 23.7867 16.5746H26.3467C26.3887 16.5746 26.4303 16.5829 26.4691 16.5989C26.5079 16.615 26.5432 16.6386 26.5729 16.6683C26.6027 16.698 26.6262 16.7333 26.6423 16.7721C26.6584 16.8109 26.6667 16.8526 26.6667 16.8946V18.3879C26.6667 18.4299 26.6584 18.4716 26.6423 18.5104C26.6262 18.5492 26.6027 18.5845 26.5729 18.6142C26.5432 18.6439 26.5079 18.6675 26.4691 18.6836C26.4303 18.6996 26.3887 18.7079 26.3467 18.7079H23.7867C23.7446 18.7079 23.703 18.6996 23.6642 18.6836C23.6254 18.6675 23.5901 18.6439 23.5604 18.6142C23.5307 18.5845 23.5071 18.5492 23.491 18.5104C23.4749 18.4716 23.4667 18.4299 23.4667 18.3879ZM25.8965 23.3207C25.3127 22.9317 24.834 22.4044 24.5031 21.7857C24.1723 21.167 23.9994 20.4762 24 19.7746H26.3467C26.7144 19.7746 27.0671 19.6285 27.3272 19.3684C27.5872 19.1084 27.7333 18.7557 27.7333 18.3879V17.8813C28.0814 17.7783 28.4519 17.7783 28.8 17.8813V18.3879C28.8 18.7557 28.9461 19.1084 29.2061 19.3684C29.4662 19.6285 29.8189 19.7746 30.1867 19.7746H32.5333C32.5339 20.4763 32.361 21.1673 32.03 21.7861C31.699 22.4048 31.2203 22.9322 30.6363 23.3212C29.9319 23.7823 29.1082 24.0279 28.2663 24.0278C27.4244 24.0277 26.6008 23.782 25.8965 23.3207ZM26.1333 29.5447V28.8412L26.4635 29.2812L26.1333 29.5447ZM28.9067 29.0546C28.8685 29.1072 28.8402 29.1663 28.8229 29.229L28.2667 31.1666L27.7125 29.2284C27.6946 29.1658 27.6655 29.1069 27.6267 29.0546L26.1333 27.0636V24.653C26.8046 24.9529 27.5315 25.1079 28.2667 25.1079C29.0018 25.1079 29.7288 24.9529 30.4 24.653V27.0636L28.9067 29.0546ZM31.6016 30.5063L30.0699 29.2796L31.1584 27.829L31.9547 27.989L31.6016 30.5063ZM34.6667 34.1746H35.7333V41.1079H34.6667V36.8412H29.8667V35.7746H34.6667V34.1746ZM30.0219 21.0476C29.3 21.2656 28.5498 21.3758 27.7957 21.3746H26.6667V20.3079H27.7957C28.4447 20.3089 29.0902 20.2142 29.7115 20.0268L30.0219 21.0476ZM10.1333 30.9746H15.4667V32.0412H10.1333V30.9746ZM10.1333 33.1079H15.4667V34.1746H10.1333V33.1079ZM10.1333 35.2412H15.4667V36.3079H10.1333V35.2412ZM18.6667 28.8412H24V29.9079H18.6667V28.8412ZM18.6667 30.9746H24V32.0412H18.6667V30.9746ZM21.8667 34.1746H18.6667V33.1079H21.8667V34.1746ZM18.6667 35.2412H24V36.3079H18.6667V35.2412ZM22.9333 33.1079H24V34.1746H22.9333V33.1079Z" fill="#692D05"/>
</svg>
