<svg fill="none" height="22" viewBox="0 0 21 22" width="21" xmlns="http://www.w3.org/2000/svg"><path clip-rule="evenodd" d="m15.4216 15.4254 5.0095 5.0085c.2377.2377.2377.6307 0 .8683-.1188.1234-.2788.1828-.4342.1828s-.3154-.064-.4342-.1828l-5.0095-5.0085c-1.5449 1.3435-3.5606 2.1569-5.76371 2.1569-4.84496 0-8.78949-3.9438-8.78949-8.78779 0-4.84403 3.93996-8.78781 8.78949-8.78781 4.84501 0 8.78951 3.93921 8.78951 8.78781 0 2.20269-.8136 4.21799-2.1574 5.76259zm-6.63671-13.31657c-4.16392 0-7.5554 3.38625-7.5554 7.55395 0 4.16772 3.39148 7.55852 7.5554 7.55852 4.16851 0 7.55541-3.3954 7.55541-7.55852 0-4.16313-3.3869-7.55395-7.55541-7.55395z" fill="#1e1d1a" fill-rule="evenodd"/></svg>