<svg fill="none" height="17" viewBox="0 0 25 17" width="25" xmlns="http://www.w3.org/2000/svg"><path clip-rule="evenodd" d="m22.2543 5.89409c-1.279.00199-2.3873.83149-2.6727 2.00041h-4.7077c-.6293.00256-1.1947-.36016-1.4202-.91104l-1.0757-2.59311c-.4061-.99164-1.4241-1.64444-2.55716-1.63977h-4.40259c-.31032-1.27644-1.59388-2.130667-2.98157-1.984285-1.3877.146382-2.43668 1.246655-2.43668 2.555835 0 1.30917 1.04898 2.40945 2.43668 2.55583 1.38769.14638 2.67125-.70784 2.98157-1.98429h4.40259c.62946-.00259 1.19496.36012 1.42046.91105l1.0758 2.59311c.1748.41889.4641.78729.8388 1.06822-.3747.28091-.664.64932-.8388 1.06822l-1.0761 2.59343c-.2255.5507-.7909.9133-1.42016.9107h-4.40259c-.31032-1.2764-1.59388-2.1306-2.98157-1.9843-1.3877.1464-2.43668 1.2467-2.43668 2.5559 0 1.3091 1.04898 2.4094 2.43668 2.5558 1.38769.1464 2.67125-.7078 2.98157-1.9843h4.40259c1.13306.0048 2.15116-.6481 2.55716-1.6398l1.0761-2.59334c.2254-.55068.7907-.91324 1.4198-.91076h4.7077c.3192 1.3126 1.664 2.1724 3.0839 1.9717 1.42-.2008 2.4345-1.39407 2.3266-2.73652-.1079-1.34244-1.3018-2.37973-2.7378-2.37869zm-19.50898-1.14309c-.84175 0-1.52413-.63973-1.52413-1.42887s.68238-1.42887 1.52413-1.42887 1.52412.63973 1.52412 1.42887c-.00101.78875-.68279 1.42792-1.52412 1.42887zm0 10.2879c-.84175 0-1.52413-.6397-1.52413-1.4289 0-.7891.68238-1.4288 1.52413-1.4288s1.52412.6397 1.52412 1.4288c-.00101.7888-.68279 1.4279-1.52412 1.4289zm19.50878-5.14401c-.8417 0-1.5241-.63973-1.5241-1.42887s.6824-1.42886 1.5241-1.42886c.8418 0 1.5241.63972 1.5241 1.42886-.001.78875-.6828 1.42792-1.5241 1.42887z" fill="#1e1d1a" fill-rule="evenodd"/></svg>