<svg width="67" height="67" viewBox="0 0 67 67" fill="none" xmlns="http://www.w3.org/2000/svg">
<path d="M32.4928 62.3603C32.4928 63.9947 33.8225 65.3242 35.4567 65.3242C37.0911 65.3242 38.4207 63.9945 38.4207 62.3603C38.4207 62.1989 38.4076 62.0405 38.3825 61.8861L50.6547 56.751C51.1945 57.4862 52.0649 57.9644 53.045 57.9644C54.6795 57.9644 56.009 56.6347 56.009 55.0005C56.009 54.1909 55.6827 53.4563 55.1547 52.9209L58.5873 47.4083C58.8818 47.5064 59.1965 47.5598 59.5234 47.5598C61.1578 47.5598 62.4874 46.2301 62.4874 44.5965C62.4874 43.2003 61.5171 42.0267 60.2153 41.7144L60.2157 26.8633C61.5175 26.5507 62.4878 25.3774 62.4878 23.9813C62.4878 22.3469 61.1581 21.0173 59.5239 21.0173C59.1093 21.0173 58.7145 21.1031 58.356 21.2575L52.178 12.9718C52.607 12.4575 52.8654 11.7964 52.8654 11.0761C52.8654 9.44168 51.5357 8.11212 49.9014 8.11212C48.9457 8.11212 48.0945 8.56685 47.5521 9.27133L38.3709 5.17936C38.4034 5.00379 38.4206 4.82277 38.4206 4.63804C38.4206 3.00402 37.0909 1.67429 35.4566 1.67429C33.8222 1.67429 32.4926 3.00402 32.4926 4.63804C32.4926 6.03432 33.463 7.20788 34.7648 7.52021V12.3869C33.8344 12.6811 33.1581 13.5524 33.1581 14.579C33.1581 15.6056 33.8344 16.4767 34.7648 16.7711V24.0613C33.8344 24.3555 33.1581 25.2268 33.1581 26.253C33.1581 27.2796 33.8344 28.1506 34.7648 28.4451V41.4917C33.8344 41.7859 33.1581 42.6572 33.1581 43.6838C33.1581 44.7104 33.8344 45.5815 34.7648 45.8759V59.478C33.4628 59.7904 32.4924 60.9639 32.4924 62.3602L32.4928 62.3603ZM37.0234 16.2592L41.3328 18.6941C41.2992 18.8509 41.2816 19.0134 41.2816 19.18C41.2816 19.5095 41.3509 19.8234 41.4754 20.1073L36.6567 24.2937C36.4988 24.1967 36.3285 24.1184 36.1486 24.0614V16.7707C36.4786 16.6665 36.7763 16.4896 37.0234 16.2591L37.0234 16.2592ZM47.2587 12.4157C47.351 12.5969 47.4616 12.7675 47.5876 12.9249L44.4106 17.0095C44.1578 16.9146 43.8841 16.8625 43.5984 16.8625C42.9866 16.8625 42.4293 17.1011 42.0148 17.4899L37.7056 15.0551C37.7315 14.9321 37.7477 14.8056 37.7531 14.6763L47.2587 12.4157ZM51.0698 13.7997L57.2478 22.0854C56.846 22.567 56.5939 23.1774 56.5636 23.8446L49.389 25.2208C49.0987 24.5821 48.5883 24.064 47.9554 23.7636L49.9894 14.0386C50.372 14.0272 50.7366 13.9433 51.0699 13.7998L51.0698 13.7997ZM58.4923 41.818L54.9445 36.5326C55.4308 36.0044 55.7281 35.2997 55.7281 34.5267C55.7281 33.7313 55.4129 33.0081 54.9013 32.4751L58.5514 26.7806C58.6432 26.8127 58.737 26.8402 58.8325 26.8631L58.8327 41.7142C58.7165 41.7421 58.6026 41.777 58.4923 41.8182L58.4923 41.818ZM53.0459 52.0366C52.9759 52.0366 52.9063 52.0392 52.8374 52.044L50.2813 43.9577C50.5439 43.7728 50.7661 43.5344 50.9321 43.2585L56.5607 44.6009C56.5617 45.4085 56.888 46.1416 57.4152 46.6761L53.9825 52.1885C53.6881 52.0902 53.3732 52.0367 53.0461 52.0367L53.0459 52.0366ZM50.348 53.7738L44.9339 52.726C44.9014 51.9879 44.5979 51.3193 44.1207 50.8172L48.3492 44.2925C48.5441 44.3464 48.7494 44.3754 48.9614 44.3754H48.9627L51.5186 52.4612C51.0078 52.7695 50.5973 53.2274 50.348 53.7737L50.348 53.7738ZM48.6139 13.8585L46.6015 23.4803C46.4641 23.4842 46.3289 23.4977 46.1967 23.52L45.1003 20.9429C45.5991 20.5176 45.9158 19.8852 45.9158 19.1798C45.9158 18.6895 45.7627 18.2343 45.5016 17.8595L48.6139 13.8585ZM49.6497 26.5796L56.8248 25.2034C56.9648 25.5116 57.1561 25.7914 57.3877 26.0326L53.7379 31.7271C53.433 31.6209 53.1056 31.5629 52.7651 31.5629C52.3466 31.5629 51.9479 31.6503 51.5865 31.8076L48.9729 28.33C49.3705 27.8499 49.6195 27.2427 49.6498 26.5795L49.6497 26.5796ZM56.8823 43.2548L51.2538 41.9124C51.1692 40.7213 50.1733 39.7785 48.9611 39.7785C48.3296 39.7785 47.7566 40.0345 47.3407 40.4485L44.2012 38.8062C44.2594 38.5748 44.2906 38.3327 44.2906 38.0834C44.2906 38.018 44.2882 37.953 44.2841 37.8884L50.2191 36.0431C50.7369 36.9094 51.6843 37.4906 52.765 37.4906C53.1277 37.4906 53.4754 37.425 53.7967 37.305L57.3445 42.5904C57.1617 42.7891 57.0058 43.0122 56.8821 43.2547L56.8823 43.2548ZM48.0467 42.077C48.0467 41.5723 48.4567 41.1623 48.9614 41.1623C49.4661 41.1623 49.8761 41.5723 49.8761 42.077C49.8761 42.5817 49.4661 42.9917 48.9614 42.9917C48.4567 42.9917 48.0467 42.5817 48.0467 42.077ZM41.3277 36.5031C42.1986 36.5031 42.9074 37.2119 42.9074 38.0834C42.9074 38.9543 42.1986 39.6631 41.3277 39.6631C40.4562 39.6631 39.7474 38.9543 39.7474 38.0834C39.7474 37.2119 40.4562 36.5031 41.3277 36.5031ZM46.6897 29.4066C47.108 29.4066 47.5065 29.3192 47.8676 29.1622L50.4813 32.64C50.0569 33.1529 49.8015 33.8105 49.8015 34.5267C49.8015 34.5924 49.8039 34.6574 49.808 34.7217L43.873 36.5671C43.6865 36.2552 43.4448 35.9804 43.1609 35.7562L46.1118 29.3499C46.2989 29.3872 46.4919 29.4068 46.6897 29.4068L46.6897 29.4066ZM54.345 34.527C54.345 35.3985 53.6362 36.1073 52.7653 36.1073C51.8938 36.1073 51.1849 35.3985 51.1849 34.527C51.1849 33.6557 51.8937 32.9466 52.7653 32.9466C53.6362 32.9466 54.345 33.6556 54.345 34.527ZM46.6897 28.0229C45.8182 28.0229 45.1093 27.3141 45.1093 26.443C45.1093 25.5717 45.8181 24.8627 46.6897 24.8627C47.5612 24.8627 48.27 25.5717 48.27 26.443C48.2698 27.3141 47.5612 28.0229 46.6897 28.0229ZM44.5329 19.18C44.5329 19.695 44.1139 20.1135 43.5992 20.1135C43.0851 20.1135 42.6662 19.695 42.6662 19.18C42.6662 18.6651 43.0851 18.2463 43.5992 18.2463C44.1141 18.2461 44.5329 18.6651 44.5329 19.18ZM42.3842 21.1521C42.7377 21.3706 43.1539 21.4971 43.5992 21.4971C43.6767 21.4971 43.7532 21.4932 43.8285 21.4858L44.9251 24.063C44.1978 24.6037 43.7256 25.4694 43.7256 26.4432C43.7256 27.3856 44.1679 28.2268 44.856 28.7698L41.9053 35.1762C41.7184 35.1391 41.5254 35.1195 41.328 35.1195C41.1007 35.1195 40.8791 35.1452 40.6662 35.194L37.0513 27.9084C37.4857 27.4898 37.7564 26.9027 37.7564 26.2532C37.7564 25.928 37.6883 25.6187 37.566 25.338L42.3842 21.1521ZM39.7212 40.5726C40.1845 40.8725 40.7363 41.047 41.3279 41.047C42.2167 41.047 43.0154 40.6533 43.5589 40.0315L46.6988 41.674C46.6755 41.805 46.6633 41.9398 46.6633 42.0772C46.6633 42.6321 46.8609 43.1418 47.1893 43.5394L42.9611 50.0635C42.6523 49.954 42.3201 49.8943 41.9744 49.8943C41.584 49.8943 41.211 49.9704 40.8695 50.108L37.2909 45.0693C37.583 44.6839 37.7566 44.2036 37.7566 43.6839C37.7566 43.3208 37.6719 42.9773 37.5215 42.6717L39.7212 40.5726ZM40.3941 52.8582C40.3941 51.9867 41.1029 51.2778 41.9744 51.2778C42.8453 51.2778 43.5541 51.9866 43.5541 52.8582C43.5541 53.7297 42.8453 54.4385 41.9744 54.4385C41.1029 54.4385 40.3941 53.7297 40.3941 52.8582ZM39.4279 35.8106C38.7779 36.3547 38.3638 37.1717 38.3638 38.0836C38.3638 38.6256 38.5101 39.1339 38.7655 39.5717L36.5658 41.6707C36.4343 41.598 36.2951 41.5378 36.1499 41.492L36.1496 29.2037L39.4279 35.8106ZM36.1631 45.8717L39.7422 50.9107C39.2868 51.4319 39.0105 52.1135 39.0105 52.8583C39.0105 53.6208 39.2999 54.317 39.7747 54.8428L36.5174 59.5923C36.3983 59.5465 36.2757 59.5084 36.1499 59.478L36.1497 45.8759C36.1543 45.8746 36.1588 45.8731 36.1632 45.8716L36.1631 45.8717ZM35.4578 63.9411C34.5863 63.9411 33.8774 63.2323 33.8774 62.3607C33.8774 61.4892 34.5862 60.7804 35.4578 60.7804C36.3294 60.7804 37.0382 61.4892 37.0382 62.3607C37.0382 63.2322 36.3294 63.9411 35.4578 63.9411ZM37.8481 60.6103C37.7884 60.5289 37.7247 60.4506 37.6571 60.3758L40.9144 55.6265C41.2435 55.753 41.601 55.8226 41.9743 55.8226C43.1711 55.8226 44.2048 55.109 44.672 54.0848L50.0856 55.1323C50.0909 55.2486 50.1024 55.3629 50.1207 55.4752L37.8481 60.6103ZM53.0465 56.5813C52.175 56.5813 51.4662 55.8725 51.4662 55.001C51.4662 54.1294 52.175 53.4206 53.0465 53.4206C53.9181 53.4206 54.6269 54.1294 54.6269 55.001C54.6269 55.8725 53.9181 56.5813 53.0465 56.5813ZM61.1055 44.5973C61.1055 45.4682 60.3967 46.177 59.5251 46.177C58.6536 46.177 57.9448 45.4682 57.9448 44.5973C57.9448 43.7258 58.6536 43.0169 59.5251 43.0169C60.3966 43.0169 61.1055 43.7257 61.1055 44.5973ZM61.1055 23.9819C61.1055 24.8532 60.3967 25.5619 59.5251 25.5619C58.6536 25.5619 57.9448 24.8531 57.9448 23.9819C57.9448 23.1107 58.6536 22.4016 59.5251 22.4016C60.3966 22.4018 61.1055 23.1108 61.1055 23.9819ZM49.9031 9.49654C50.7746 9.49654 51.4835 10.2056 51.4835 11.0769C51.4835 11.9482 50.7747 12.6568 49.9031 12.6568C49.0315 12.6568 48.3227 11.948 48.3227 11.0769C48.3227 10.2056 49.0315 9.49654 49.9031 9.49654ZM46.9887 10.5353C46.9564 10.7089 46.9396 10.8878 46.9392 11.0705L37.3933 13.3405C37.1057 12.8927 36.667 12.551 36.1498 12.3874V7.52076C36.8186 7.36024 37.4001 6.97224 37.8073 6.44334L46.9887 10.5353ZM33.8779 4.63876C33.8779 3.76748 34.5867 3.05884 35.4582 3.05884C36.3298 3.05884 37.0386 3.76765 37.0386 4.63876C37.0386 5.51004 36.3298 6.21912 35.4582 6.21912C34.5867 6.2189 33.8779 5.50987 33.8779 4.63876ZM35.4582 13.6648C35.9629 13.6648 36.373 14.0752 36.373 14.5795C36.373 15.084 35.9629 15.4942 35.4582 15.4942C34.9536 15.4942 34.5435 15.0837 34.5435 14.5795C34.5435 14.0752 34.9536 13.6648 35.4582 13.6648ZM35.4582 25.3395C35.9629 25.3395 36.373 25.7496 36.373 26.254C36.373 26.7585 35.9629 27.1687 35.4582 27.1687C34.9536 27.1687 34.5435 26.7583 34.5435 26.254C34.5435 25.7496 34.9536 25.3395 35.4582 25.3395ZM35.4582 42.7696C35.9629 42.7696 36.373 43.1796 36.373 43.6843C36.373 44.189 35.9629 44.599 35.4582 44.599C34.9536 44.599 34.5435 44.189 34.5435 43.6843C34.5435 43.1798 34.9536 42.7696 35.4582 42.7696Z" fill="#1E1D1A"/>
<path d="M32.5076 62.3603C32.5076 63.9947 31.1778 65.3242 29.5436 65.3242C27.9092 65.3242 26.5796 63.9945 26.5796 62.3603C26.5796 62.1989 26.5927 62.0405 26.6178 61.8861L14.3456 56.751C13.8058 57.4862 12.9354 57.9644 11.9553 57.9644C10.3209 57.9644 8.99133 56.6347 8.99133 55.0005C8.99133 54.1909 9.31761 53.4563 9.84564 52.9209L6.413 47.4083C6.11857 47.5064 5.80386 47.5598 5.4769 47.5598C3.84249 47.5598 2.51294 46.2301 2.51294 44.5965C2.51294 43.2003 3.48326 42.0267 4.78507 41.7144L4.78463 26.8633C3.48282 26.5507 2.5125 25.3774 2.5125 23.9813C2.5125 22.3469 3.84222 21.0173 5.47646 21.0173C5.89107 21.0173 6.28582 21.1031 6.64438 21.2575L12.8223 12.9718C12.3933 12.4575 12.1349 11.7964 12.1349 11.0761C12.1349 9.44168 13.4647 8.11212 15.0989 8.11212C16.0546 8.11212 16.9058 8.56685 17.4482 9.27133L26.6295 5.17936C26.597 5.00379 26.5798 4.82277 26.5798 4.63804C26.5798 3.00402 27.9095 1.67429 29.5437 1.67429C31.1781 1.67429 32.5077 3.00402 32.5077 4.63804C32.5077 6.03432 31.5374 7.20788 30.2356 7.52021V12.3869C31.166 12.6811 31.8423 13.5524 31.8423 14.579C31.8423 15.6056 31.166 16.4767 30.2356 16.7711V24.0613C31.166 24.3555 31.8423 25.2268 31.8423 26.253C31.8423 27.2796 31.166 28.1506 30.2356 28.4451V41.4917C31.166 41.7859 31.8423 42.6572 31.8423 43.6838C31.8423 44.7104 31.166 45.5815 30.2356 45.8759V59.478C31.5376 59.7904 32.5079 60.9639 32.5079 62.3602L32.5076 62.3603ZM27.977 16.2592L23.6675 18.6941C23.7011 18.8509 23.7188 19.0134 23.7188 19.18C23.7188 19.5095 23.6494 19.8234 23.5249 20.1073L28.3436 24.2937C28.5015 24.1967 28.6718 24.1184 28.8518 24.0614V16.7707C28.5218 16.6665 28.2241 16.4896 27.977 16.2591L27.977 16.2592ZM17.7416 12.4157C17.6494 12.5969 17.5388 12.7675 17.4127 12.9249L20.5897 17.0095C20.8425 16.9146 21.1162 16.8625 21.402 16.8625C22.0137 16.8625 22.571 17.1011 22.9856 17.4899L27.2948 15.0551C27.2688 14.9321 27.2527 14.8056 27.2472 14.6763L17.7416 12.4157ZM13.9305 13.7997L7.75258 22.0854C8.15432 22.567 8.40644 23.1774 8.43676 23.8446L15.6113 25.2208C15.9016 24.5821 16.412 24.064 17.0449 23.7636L15.0109 14.0386C14.6284 14.0272 14.2637 13.9433 13.9304 13.7998L13.9305 13.7997ZM6.50805 41.818L10.0559 36.5326C9.56951 36.0044 9.27225 35.2997 9.27225 34.5267C9.27225 33.7313 9.5874 33.0081 10.0991 32.4751L6.44898 26.7806C6.35716 26.8127 6.26338 26.8402 6.16785 26.8631L6.16763 41.7142C6.28388 41.7421 6.39772 41.777 6.50809 41.8182L6.50805 41.818ZM11.9544 52.0366C12.0244 52.0366 12.094 52.0392 12.1629 52.044L14.719 43.9577C14.4564 43.7728 14.2342 43.5344 14.0682 43.2585L8.43969 44.6009C8.43859 45.4085 8.11232 46.1416 7.58516 46.6761L11.0178 52.1885C11.3122 52.0902 11.6272 52.0367 11.9543 52.0367L11.9544 52.0366ZM14.6523 53.7738L20.0664 52.726C20.0989 51.9879 20.4025 51.3193 20.8797 50.8172L16.6512 44.2925C16.4562 44.3464 16.251 44.3754 16.039 44.3754H16.0377L13.4818 52.4612C13.9926 52.7695 14.403 53.2274 14.6523 53.7737L14.6523 53.7738ZM16.3864 13.8585L18.3988 23.4803C18.5362 23.4842 18.6714 23.4977 18.8036 23.52L19.9 20.9429C19.4012 20.5176 19.0846 19.8852 19.0846 19.1798C19.0846 18.6895 19.2377 18.2343 19.4987 17.8595L16.3864 13.8585ZM15.3507 26.5796L8.17552 25.2034C8.0355 25.5116 7.84422 25.7914 7.61261 26.0326L11.2625 31.7271C11.5674 31.6209 11.8947 31.5629 12.2352 31.5629C12.6537 31.5629 13.0524 31.6503 13.4138 31.8076L16.0275 28.33C15.6299 27.8499 15.3808 27.2427 15.3505 26.5795L15.3507 26.5796ZM8.11801 43.2548L13.7466 41.9124C13.8312 40.7213 14.8271 39.7785 16.0392 39.7785C16.6708 39.7785 17.2437 40.0345 17.6596 40.4485L20.7992 38.8062C20.7409 38.5748 20.7097 38.3327 20.7097 38.0834C20.7097 38.018 20.7121 37.953 20.7163 37.8884L14.7812 36.0431C14.2634 36.9094 13.316 37.4906 12.2353 37.4906C11.8726 37.4906 11.5249 37.425 11.2037 37.305L7.65585 42.5904C7.83862 42.7891 7.99456 43.0122 8.11822 43.2547L8.11801 43.2548ZM16.9536 42.077C16.9536 41.5723 16.5436 41.1623 16.0389 41.1623C15.5342 41.1623 15.1242 41.5723 15.1242 42.077C15.1242 42.5817 15.5342 42.9917 16.0389 42.9917C16.5436 42.9917 16.9536 42.5817 16.9536 42.077ZM23.6726 36.5031C22.8017 36.5031 22.0929 37.2119 22.0929 38.0834C22.0929 38.9543 22.8017 39.6631 23.6726 39.6631C24.5441 39.6631 25.253 38.9543 25.253 38.0834C25.253 37.2119 24.5442 36.5031 23.6726 36.5031ZM18.3107 29.4066C17.8924 29.4066 17.4939 29.3192 17.1327 29.1622L14.519 32.64C14.9434 33.1529 15.1988 33.8105 15.1988 34.5267C15.1988 34.5924 15.1964 34.6574 15.1923 34.7217L21.1274 36.5671C21.3139 36.2552 21.5555 35.9804 21.8395 35.7562L18.8886 29.3499C18.7015 29.3872 18.5084 29.4068 18.3106 29.4068L18.3107 29.4066ZM10.6554 34.527C10.6554 35.3985 11.3642 36.1073 12.235 36.1073C13.1066 36.1073 13.8154 35.3985 13.8154 34.527C13.8154 33.6557 13.1066 32.9466 12.235 32.9466C11.3642 32.9466 10.6554 33.6556 10.6554 34.527ZM18.3107 28.0229C19.1822 28.0229 19.891 27.3141 19.891 26.443C19.891 25.5717 19.1822 24.8627 18.3107 24.8627C17.4392 24.8627 16.7303 25.5717 16.7303 26.443C16.7305 27.3141 17.4391 28.0229 18.3107 28.0229ZM20.4674 19.18C20.4674 19.695 20.8864 20.1135 21.4012 20.1135C21.9152 20.1135 22.3342 19.695 22.3342 19.18C22.3342 18.6651 21.9152 18.2463 21.4012 18.2463C20.8862 18.2461 20.4674 18.6651 20.4674 19.18ZM22.6161 21.1521C22.2626 21.3706 21.8465 21.4971 21.4011 21.4971C21.3237 21.4971 21.2471 21.4932 21.1719 21.4858L20.0752 24.063C20.8026 24.6037 21.2748 25.4694 21.2748 26.4432C21.2748 27.3856 20.8325 28.2268 20.1444 28.7698L23.095 35.1762C23.282 35.1391 23.475 35.1195 23.6724 35.1195C23.8996 35.1195 24.1212 35.1452 24.3341 35.194L27.9491 27.9084C27.5146 27.4898 27.244 26.9027 27.244 26.2532C27.244 25.928 27.312 25.6187 27.4344 25.338L22.6161 21.1521ZM25.2791 40.5726C24.8159 40.8725 24.2641 41.047 23.6724 41.047C22.7836 41.047 21.9849 40.6533 21.4415 40.0315L18.3015 41.674C18.3248 41.805 18.3371 41.9398 18.3371 42.0772C18.3371 42.6321 18.1395 43.1418 17.811 43.5394L22.0393 50.0635C22.3481 49.954 22.6802 49.8943 23.0259 49.8943C23.4163 49.8943 23.7893 49.9704 24.1308 50.108L27.7094 45.0693C27.4174 44.6839 27.2438 44.2036 27.2438 43.6839C27.2438 43.3208 27.3284 42.9773 27.4789 42.6717L25.2791 40.5726ZM24.6063 52.8582C24.6063 51.9867 23.8975 51.2778 23.0259 51.2778C22.155 51.2778 21.4462 51.9866 21.4462 52.8582C21.4462 53.7297 22.155 54.4385 23.0259 54.4385C23.8974 54.4385 24.6063 53.7297 24.6063 52.8582ZM25.5725 35.8106C26.2224 36.3547 26.6366 37.1717 26.6366 38.0836C26.6366 38.6256 26.4902 39.1339 26.2348 39.5717L28.4346 41.6707C28.5661 41.598 28.7052 41.5378 28.8505 41.492L28.8507 29.2037L25.5725 35.8106ZM28.8372 45.8717L25.2582 50.9107C25.7136 51.4319 25.9899 52.1135 25.9899 52.8583C25.9899 53.6208 25.7005 54.317 25.2256 54.8428L28.4829 59.5923C28.602 59.5465 28.7246 59.5084 28.8504 59.478L28.8507 45.8759C28.8461 45.8746 28.8415 45.8731 28.8371 45.8716L28.8372 45.8717ZM29.5425 63.9411C30.414 63.9411 31.1229 63.2323 31.1229 62.3607C31.1229 61.4892 30.4141 60.7804 29.5425 60.7804C28.671 60.7804 27.9622 61.4892 27.9622 62.3607C27.9622 63.2322 28.671 63.9411 29.5425 63.9411ZM27.1522 60.6103C27.212 60.5289 27.2756 60.4506 27.3433 60.3758L24.0859 55.6265C23.7568 55.753 23.3994 55.8226 23.026 55.8226C21.8293 55.8226 20.7955 55.109 20.3284 54.0848L14.9147 55.1323C14.9095 55.2486 14.8979 55.3629 14.8796 55.4752L27.1522 60.6103ZM11.9538 56.5813C12.8253 56.5813 13.5342 55.8725 13.5342 55.001C13.5342 54.1294 12.8254 53.4206 11.9538 53.4206C11.0823 53.4206 10.3734 54.1294 10.3734 55.001C10.3734 55.8725 11.0823 56.5813 11.9538 56.5813ZM3.89483 44.5973C3.89483 45.4682 4.60364 46.177 5.47519 46.177C6.3467 46.177 7.05556 45.4682 7.05556 44.5973C7.05556 43.7258 6.34675 43.0169 5.47519 43.0169C4.60369 43.0169 3.89483 43.7257 3.89483 44.5973ZM3.89483 23.9819C3.89483 24.8532 4.60364 25.5619 5.47519 25.5619C6.3467 25.5619 7.05556 24.8531 7.05556 23.9819C7.05556 23.1107 6.34675 22.4016 5.47519 22.4016C4.60369 22.4018 3.89483 23.1108 3.89483 23.9819ZM15.0972 9.49654C14.2257 9.49654 13.5169 10.2056 13.5169 11.0769C13.5169 11.9482 14.2257 12.6568 15.0972 12.6568C15.9688 12.6568 16.6776 11.948 16.6776 11.0769C16.6776 10.2056 15.9688 9.49654 15.0972 9.49654ZM18.0117 10.5353C18.044 10.7089 18.0607 10.8878 18.0612 11.0705L27.607 13.3405C27.8947 12.8927 28.3333 12.551 28.8506 12.3874V7.52076C28.1817 7.36024 27.6002 6.97224 27.193 6.44334L18.0117 10.5353ZM31.1225 4.63876C31.1225 3.76748 30.4137 3.05884 29.5421 3.05884C28.6705 3.05884 27.9617 3.76765 27.9617 4.63876C27.9617 5.51004 28.6705 6.21912 29.5421 6.21912C30.4136 6.2189 31.1225 5.50987 31.1225 4.63876ZM29.5421 13.6648C29.0374 13.6648 28.6274 14.0752 28.6274 14.5795C28.6274 15.084 29.0374 15.4942 29.5421 15.4942C30.0468 15.4942 30.4568 15.0837 30.4568 14.5795C30.4568 14.0752 30.0468 13.6648 29.5421 13.6648ZM29.5421 25.3395C29.0374 25.3395 28.6274 25.7496 28.6274 26.254C28.6274 26.7585 29.0374 27.1687 29.5421 27.1687C30.0468 27.1687 30.4568 26.7583 30.4568 26.254C30.4568 25.7496 30.0468 25.3395 29.5421 25.3395ZM29.5421 42.7696C29.0374 42.7696 28.6274 43.1796 28.6274 43.6843C28.6274 44.189 29.0374 44.599 29.5421 44.599C30.0468 44.599 30.4568 44.189 30.4568 43.6843C30.4568 43.1798 30.0468 42.7696 29.5421 42.7696Z" fill="#1E1D1A"/>
</svg>
