<svg fill="none" height="32" viewBox="0 0 32 32" width="32" xmlns="http://www.w3.org/2000/svg"><g fill="#000"><path d="m7.88174 9.29913c0 2.37917 1.92 4.29917 4.29916 4.29917 2.3791 0 4.2991-1.92 4.2991-4.29917 0-2.37913-1.92-4.29913-4.2991-4.29913-2.37916 0-4.29916 1.92-4.29916 4.29913zm7.76346 0c0 .95997-.3756 1.79477-1.0017 2.42087s-1.5026 1.0017-2.4209 1.0017c-.96 0-1.7948-.3756-2.42086-1.0017-.62609-.6261-1.00174-1.5026-1.00174-2.42087 0-.96.37565-1.79478 1.00174-2.42087.62606-.62609 1.50256-1.00174 2.42086-1.00174.96 0 1.7948.37565 2.4209 1.00174.5843.58435 1.0017 1.46087 1.0017 2.42087z"/><path d="m21.2383 8.67304c-2.0035 0-3.5896 1.62786-3.5896 3.58956 0 2.0035 1.6278 3.5896 3.5896 3.5896 2.0034 0 3.5895-1.6279 3.5895-3.5896s-1.5861-3.58956-3.5895-3.58956zm1.9617 5.55126c-.5009.5009-1.1687.7931-1.9617.7931-.7513 0-1.4609-.2922-1.9618-.7931-.5008-.5008-.793-1.1686-.793-1.9617 0-.7513.2922-1.4609.793-1.9617.5009-.5009 1.1687-.79308 1.9618-.79308.7513 0 1.4608.29218 1.9617.79308.5009.5008.793 1.1687.793 1.9617 0 .7931-.2921 1.4609-.793 1.9617z"/><path d="m19.9026 26.4539h.4174 7.68v-3.1304c0-3.4226-2.7548-6.1774-6.1774-6.1774h-1.2104c-.7513 0-1.5026.1252-2.1705.4174-1.2939-1.3774-3.0887-2.2539-5.1339-2.2539h-2.2956c-3.88177 0-7.0122 3.1304-7.0122 7.0121v4.1322h10.8522zm.7096-8.473h1.2521c1.4609 0 2.7966.5843 3.7566 1.5443s1.5443 2.2957 1.5443 3.7565v2.2957h-6.8452v-3.2974c0-1.5026-.5009-2.9217-1.3357-4.0904.5427-.1253 1.0853-.2087 1.6279-.2087zm-15.73568 4.3408c0-1.7113.70957-3.2556 1.79478-4.3408 1.12696-1.127 2.67131-1.8366 4.3409-1.8366h2.2956c1.7113 0 3.2557.7096 4.3409 1.7948 1.127 1.127 1.7948 2.6713 1.7948 4.3409v3.2974h-4.5496-10.01738z"/></g></svg>