<svg width="49" height="48" viewBox="0 0 49 48" fill="none" xmlns="http://www.w3.org/2000/svg">
<rect width="48.2124" height="48" rx="8" fill="#F1E7F1"/>
<g clip-path="url(#clip0_38_4030)">
<path d="M39.9261 39.7123L37.9713 36.587C37.883 36.4454 37.7279 36.3601 37.5601 36.3601H37.0637L36.0377 34.9909V19.705L37.0637 18.3367H37.6881C38.3698 18.3367 38.5938 18.0517 38.6597 17.8131C38.7257 17.5746 38.6821 17.2168 38.0983 16.8628L25.2007 9.06761C24.5461 8.67198 23.4533 8.67198 22.7988 9.06761L9.90208 16.8628C9.31736 17.2158 9.27566 17.5746 9.3416 17.8131C9.40851 18.0517 9.63154 18.3367 10.3142 18.3367H10.9367L11.9626 19.705V34.9909L10.9367 36.3601H10.4402C10.2725 36.3601 10.1173 36.4464 10.0291 36.587L8.07424 39.7123C7.98018 39.8616 7.97533 40.0517 8.06066 40.2049C8.14696 40.359 8.3089 40.455 8.48538 40.455H39.515C39.6915 40.455 39.8534 40.359 39.9397 40.2049C40.0241 40.0517 40.0202 39.8626 39.9261 39.7123ZM35.166 35.4438L35.8535 36.3601H32.7467L33.4332 35.4438C33.4953 35.3604 33.5302 35.2586 33.5302 35.1529V19.544C33.5302 19.4402 33.4962 19.3374 33.4332 19.2531L32.7467 18.3367H35.8535L35.166 19.2531C35.1039 19.3374 35.069 19.4393 35.069 19.544V35.1529C35.069 35.2586 35.103 35.3604 35.166 35.4438ZM30.1984 36.3601L29.1734 34.9909V19.705L30.1984 18.3367H31.5355L32.5605 19.705V34.9909L31.5355 36.3601H30.1984ZM23.3331 36.3601L22.3071 34.9909V19.705L23.3331 18.3367H24.6683L25.6942 19.705V34.9909L24.6683 36.3601H23.3331ZM16.4658 36.3601L15.4399 34.9909V19.705L16.4658 18.3367H17.802L18.827 19.705V34.9909L17.802 36.3601H16.4658ZM19.6997 19.2541L19.0131 18.3377H22.12L21.4344 19.2541C21.3714 19.3384 21.3365 19.4402 21.3365 19.545V35.1529C21.3365 35.2576 21.3704 35.3604 21.4344 35.4438L22.12 36.3601H19.0131L19.6997 35.4438C19.7617 35.3604 19.7966 35.2586 19.7966 35.1529V19.544C19.7966 19.4402 19.7627 19.3384 19.6997 19.2541ZM26.566 19.2541L25.8804 18.3377H28.9872L28.3007 19.2541C28.2386 19.3384 28.2037 19.4402 28.2037 19.545V35.1529C28.2037 35.2576 28.2377 35.3604 28.3007 35.4438L28.9872 36.3601H25.8804L26.566 35.4438C26.629 35.3604 26.6639 35.2586 26.6639 35.1529V19.544C26.6629 19.4402 26.629 19.3384 26.566 19.2541ZM23.3011 9.89668C23.6511 9.68529 24.3483 9.68529 24.6984 9.89668L37.0588 17.3671H10.9406L23.3011 9.89668ZM12.8344 19.2541L12.1469 18.3377H15.2547L14.5672 19.2541C14.5051 19.3384 14.4702 19.4402 14.4702 19.545V35.1529C14.4702 35.2576 14.5042 35.3604 14.5672 35.4438L15.2547 36.3601H12.1469L12.8344 35.4438C12.8964 35.3604 12.9313 35.2586 12.9313 35.1529V19.544C12.9313 19.4402 12.8974 19.3384 12.8344 19.2541ZM9.36003 39.4854L10.7079 37.3298H37.2925L38.6404 39.4854H9.36003Z" fill="#996C94"/>
</g>
<defs>
<clipPath id="clip0_38_4030">
<rect width="32" height="32" fill="white" transform="translate(8 9.10793)"/>
</clipPath>
</defs>
</svg>
