<svg width="49" height="48" viewBox="0 0 49 48" fill="none" xmlns="http://www.w3.org/2000/svg">
<rect width="48.2124" height="48" rx="8" fill="white"/>
<g clip-path="url(#clip0_38_4063)">
<path d="M34.7823 36.6095V17.0751H28.5805V9.92621H13.2162V36.6102H9.99927V37.5038L37.9993 37.5039V36.6103L34.7823 36.6095ZM33.8887 36.6095H33.5312C33.7666 35.7459 33.5584 34.8217 32.9753 34.1425C32.3924 33.4632 31.5105 33.1171 30.6212 33.2187C29.7319 33.3203 28.9508 33.8563 28.536 34.6495L28.4675 34.6109C28.2633 33.6775 27.5808 32.9217 26.6732 32.6237C25.7655 32.3256 24.7678 32.5296 24.0501 33.1602C23.8396 32.9367 23.5928 32.7503 23.3203 32.6091V17.9686H33.8886L33.8887 36.6095ZM23.63 34.0746L23.9755 34.6703L24.3746 34.1252V34.1253C24.7411 33.6147 25.3468 33.3316 25.9736 33.3779C26.6003 33.4241 27.1579 33.7928 27.4457 34.3516H27.3355C26.6968 34.3526 26.079 34.5794 25.5917 34.9921C25.1043 35.4049 24.7787 35.9767 24.6725 36.6065H18.1193C18.2514 36.2606 18.4858 35.9632 18.7913 35.7541C19.0969 35.545 19.4589 35.4339 19.8291 35.4358H20.2759V34.9891C20.276 34.4565 20.5109 33.951 20.9179 33.6076C21.3249 33.264 21.8627 33.1175 22.3877 33.2069C22.9127 33.2964 23.3716 33.6128 23.6419 34.0716L23.63 34.0746ZM27.3355 35.2453C27.7475 35.2438 28.1474 35.3848 28.4674 35.6444L28.9887 36.0614L29.1763 35.421C29.3187 34.9488 29.6476 34.5553 30.0871 34.3315C30.5265 34.1077 31.0383 34.0731 31.5038 34.2357C31.9694 34.3984 32.3483 34.7441 32.5528 35.1929C32.7574 35.6416 32.7697 36.1544 32.587 36.6125H25.584C25.6821 36.2222 25.9077 35.8757 26.2249 35.6281C26.5422 35.3804 26.933 35.2457 27.3355 35.2453ZM14.11 10.8199H27.6869V17.0751H22.4236V32.3144C22.3072 32.2976 22.1898 32.2887 22.0721 32.2875C21.4256 32.2855 20.7998 32.5151 20.308 32.9348C19.8162 33.3544 19.4909 33.9364 19.3913 34.5751C18.864 34.6601 18.3732 34.8983 17.9802 35.26C17.5872 35.6218 17.3093 36.0911 17.1811 36.6096H14.11L14.11 10.8199Z" fill="black"/>
<path d="M15.5674 12.8163H16.461V15.8219H15.5674V12.8163Z" fill="black"/>
<path d="M18.0098 12.8163H18.9034V15.8219H18.0098V12.8163Z" fill="black"/>
<path d="M20.4524 12.8163H21.346V15.8219H20.4524V12.8163Z" fill="black"/>
<path d="M22.895 12.8163H23.7886V15.8219H22.895V12.8163Z" fill="black"/>
<path d="M25.3374 12.8163H26.231V15.8219H25.3374V12.8163Z" fill="black"/>
<path d="M24.5393 20.8469H25.4329V23.8525H24.5393V20.8469Z" fill="black"/>
<path d="M26.9817 20.8469H27.8753V23.8525H26.9817V20.8469Z" fill="black"/>
<path d="M29.4243 20.8469H30.3179V23.8525H29.4243V20.8469Z" fill="black"/>
<path d="M31.8699 20.8469H32.7635V23.8525H31.8699V20.8469Z" fill="black"/>
<path d="M24.4915 25.7322H25.3851V28.7378H24.4915V25.7322Z" fill="black"/>
<path d="M26.937 25.7322H27.8306V28.7378H26.937V25.7322Z" fill="black"/>
<path d="M29.3794 25.7322H30.273V28.7378H29.3794V25.7322Z" fill="black"/>
<path d="M31.822 25.7322H32.7156V28.7378H31.822V25.7322Z" fill="black"/>
<path d="M29.3318 30.6201H30.2254V32.2673H29.3318V30.6201Z" fill="black"/>
<path d="M31.7744 30.6201H32.668V32.2673H31.7744V30.6201Z" fill="black"/>
<path d="M15.615 18.735H16.5086V21.7406H15.615V18.735Z" fill="black"/>
<path d="M18.0574 18.735H18.951V21.7406H18.0574V18.735Z" fill="black"/>
<path d="M20.5 18.735H21.3936V21.7406H20.5V18.735Z" fill="black"/>
<path d="M15.6594 24.6568H16.553V27.6624H15.6594V24.6568Z" fill="black"/>
<path d="M18.105 24.6568H18.9986V27.6624H18.105V24.6568Z" fill="black"/>
<path d="M20.5476 24.6568H21.4412V27.6624H20.5476V24.6568Z" fill="black"/>
<path d="M15.7073 30.5755H16.6009V33.5811H15.7073V30.5755Z" fill="black"/>
<path d="M18.1499 30.5755H19.0435V33.5811H18.1499V30.5755Z" fill="black"/>
</g>
<defs>
<clipPath id="clip0_38_4063">
<rect width="28" height="28" fill="white" transform="translate(10 9.71552)"/>
</clipPath>
</defs>
</svg>
