<svg width="13" height="13" viewBox="0 0 13 13" fill="none" xmlns="http://www.w3.org/2000/svg">
<path fill-rule="evenodd" clip-rule="evenodd" d="M0.426392 3.38422C0.426392 1.84442 1.66937 0.60144 3.20918 0.60144C4.74898 0.60144 5.99196 1.84442 5.99196 3.38422C5.99196 4.92403 4.74898 6.16701 3.20918 6.16701C1.66937 6.16701 0.426392 4.92403 0.426392 3.38422ZM0.890221 3.3843C0.890221 4.66438 1.92913 5.70329 3.20921 5.70329C4.48929 5.70329 5.52819 4.66438 5.52819 3.3843C5.52819 2.10422 4.48929 1.06532 3.20921 1.06532C1.92913 1.06532 0.890221 2.10422 0.890221 3.3843Z" fill="#4F4D4A"/>
<path d="M2.90026 3.7182L2.1891 3.01323L1.75623 3.44611L2.90026 4.59633L4.66269 2.82771L4.22981 2.39484L2.90026 3.7182Z" fill="#4F4D4A"/>
<path fill-rule="evenodd" clip-rule="evenodd" d="M7.03564 3.38426C7.03564 1.84445 8.27862 0.601471 9.81843 0.601471C11.3582 0.601471 12.6012 1.84445 12.6012 3.38426C12.6012 4.92406 11.3582 6.16704 9.81843 6.16704C8.27862 6.16704 7.03564 4.92406 7.03564 3.38426ZM7.49968 3.38427C7.49968 4.66435 8.53859 5.70326 9.81867 5.70326C11.0987 5.70326 12.1377 4.66435 12.1377 3.38427C12.1377 2.10419 11.0987 1.06529 9.81867 1.06529C8.53859 1.06529 7.49968 2.10419 7.49968 3.38427Z" fill="#4F4D4A"/>
<path d="M8.7749 4.07233L10.5065 2.34073L10.9788 2.81298L9.24716 4.54458L8.7749 4.07233Z" fill="#4F4D4A"/>
<path fill-rule="evenodd" clip-rule="evenodd" d="M0.426392 9.99333C0.426392 8.45352 1.66937 7.21054 3.20918 7.21054C4.74898 7.21054 5.99196 8.45352 5.99196 9.99333C5.99196 11.5331 4.74898 12.7761 3.20918 12.7761C1.66937 12.7761 0.426392 11.5331 0.426392 9.99333ZM0.890221 9.9935C0.890221 11.2736 1.92913 12.3125 3.20921 12.3125C4.48929 12.3125 5.52819 11.2736 5.52819 9.9935C5.52819 8.71342 4.48929 7.67452 3.20921 7.67452C1.92913 7.67452 0.890221 8.71342 0.890221 9.9935Z" fill="#4F4D4A"/>
<path fill-rule="evenodd" clip-rule="evenodd" d="M0.426392 9.99333C0.426392 8.45352 1.66937 7.21054 3.20918 7.21054C4.74898 7.21054 5.99196 8.45352 5.99196 9.99333C5.99196 11.5331 4.74898 12.7761 3.20918 12.7761C1.66937 12.7761 0.426392 11.5331 0.426392 9.99333ZM0.890221 9.9935C0.890221 11.2736 1.92913 12.3125 3.20921 12.3125C4.48929 12.3125 5.52819 11.2736 5.52819 9.9935C5.52819 8.71342 4.48929 7.67452 3.20921 7.67452C1.92913 7.67452 0.890221 8.71342 0.890221 9.9935Z" fill="#4F4D4A"/>
<path fill-rule="evenodd" clip-rule="evenodd" d="M2.91533 10.5564C2.918 10.5831 2.922 10.6098 2.92734 10.6365H3.35987V10.6125C3.35987 10.5297 3.37856 10.457 3.41594 10.3942C3.45332 10.3315 3.50672 10.2747 3.57614 10.224L3.74034 10.1079C3.86049 10.0224 3.95661 9.92298 4.0287 9.80951C4.10079 9.69603 4.13683 9.5592 4.13683 9.399C4.13683 9.29754 4.11681 9.19876 4.07676 9.10264C4.03671 9.00652 3.97663 8.92175 3.89653 8.84832C3.81644 8.7749 3.71765 8.71549 3.60017 8.6701C3.48269 8.62471 3.34652 8.60202 3.19167 8.60202C3.04215 8.60202 2.91065 8.62605 2.79718 8.67411C2.68371 8.72217 2.58826 8.78558 2.51083 8.86434C2.4334 8.94311 2.37466 9.03389 2.33461 9.13668C2.29456 9.23947 2.27454 9.34427 2.27454 9.45107C2.27454 9.48044 2.27587 9.51047 2.27854 9.54118C2.28121 9.57188 2.28655 9.60192 2.29456 9.63129L2.79918 9.65131C2.7885 9.61927 2.78316 9.57655 2.78316 9.52316C2.78316 9.46709 2.79117 9.41168 2.80719 9.35695C2.82321 9.30222 2.84791 9.25416 2.88128 9.21277C2.91466 9.17139 2.95671 9.13735 3.00744 9.11065C3.05817 9.08395 3.11958 9.0706 3.19167 9.0706C3.25842 9.0706 3.31715 9.08061 3.36788 9.10063C3.41861 9.12066 3.46066 9.14736 3.49404 9.18073C3.52741 9.21411 3.55211 9.25282 3.56813 9.29688C3.58415 9.34093 3.59216 9.38565 3.59216 9.43104C3.59216 9.55653 3.53476 9.66199 3.41995 9.74743L3.22771 9.89161C3.1129 9.97705 3.03147 10.0685 2.98341 10.1659C2.93535 10.2634 2.91132 10.3655 2.91132 10.4723C2.91132 10.5017 2.91266 10.5297 2.91533 10.5564ZM2.92734 10.9909C2.86593 11.0536 2.83522 11.1291 2.83522 11.2172C2.83522 11.3053 2.86593 11.3801 2.92734 11.4415C2.98875 11.5029 3.06351 11.5336 3.15161 11.5336C3.23972 11.5336 3.31515 11.5029 3.37789 11.4415C3.44064 11.3801 3.47201 11.3053 3.47201 11.2172C3.47201 11.1291 3.44064 11.0536 3.37789 10.9909C3.31515 10.9282 3.23972 10.8968 3.15161 10.8968C3.06351 10.8968 2.98875 10.9282 2.92734 10.9909Z" fill="#4F4D4A"/>
<path fill-rule="evenodd" clip-rule="evenodd" d="M7.03564 9.99333C7.03564 8.45352 8.27862 7.21054 9.81843 7.21054C11.3582 7.21054 12.6012 8.45352 12.6012 9.99333C12.6012 11.5331 11.3582 12.7761 9.81843 12.7761C8.27862 12.7761 7.03564 11.5331 7.03564 9.99333ZM7.49945 9.9935C7.49945 11.2736 8.53835 12.3125 9.81843 12.3125C11.0985 12.3125 12.1374 11.2736 12.1374 9.9935C12.1374 8.71342 11.0985 7.67452 9.81843 7.67452C8.53835 7.67452 7.49945 8.71342 7.49945 9.9935Z" fill="#4F4D4A"/>
<path d="M10.8989 9.19702L10.9358 9.16012L10.8989 9.12323L10.6887 8.91303L10.6518 8.87613L10.6149 8.91303L9.81845 9.70948L9.022 8.91303L8.9851 8.87613L8.94821 8.91303L8.73801 9.12323L8.70111 9.16012L8.73801 9.19702L9.53446 9.99346L8.73801 10.7899L8.70111 10.8268L8.73801 10.8637L8.94821 11.0739L8.9851 11.1108L9.022 11.0739L9.81845 10.2775L10.6149 11.0739L10.6518 11.1108L10.6887 11.0739L10.8989 10.8637L10.9358 10.8268L10.8989 10.7899L10.1024 9.99346L10.8989 9.19702Z" fill="#4F4D4A" stroke="#4F4D4A" stroke-width="0.104354"/>
</svg>
