<svg width="102" height="33" viewBox="0 0 102 33" fill="none" xmlns="http://www.w3.org/2000/svg">
<path d="M39.5784 9.92018H45.0112V28.0554H50.2266V9.92018H55.6594V5.3501H39.5784V9.92018ZM57.4703 5.42264V28.128H62.6858V19.1329L69.6398 28.0554H76.2315L68.4083 18.6976C71.2334 17.8271 73.1167 15.5058 73.1167 12.0964C73.1167 7.67141 69.9295 5.3501 65.6557 5.3501H57.4703V5.42264ZM62.6858 15.4333V9.48494H63.2653C65.2211 9.48494 67.6115 9.63002 67.6115 12.4591C67.6115 15.2882 65.2935 15.4333 63.2653 15.4333H62.6858ZM96.2242 28.0554H101.44L99.4114 5.3501H93.9062L88.8356 18.4075L83.765 5.3501H78.2598L76.0867 28.0554H81.3021L82.3887 14.6353H82.5336L87.242 27.9829H90.2843L94.9927 14.6353H95.1376L96.2242 28.0554Z" fill="white"/>
<path d="M18.5703 30.0373C18.5703 28.7316 17.6286 27.6435 16.3971 27.4259V20.3894C17.1215 20.3168 17.701 20.0267 18.2805 19.5914L23.7857 25.1046C23.3511 25.83 23.4235 26.8455 24.0755 27.4259C24.7999 28.1513 26.0313 28.1513 26.7557 27.4259C27.48 26.7005 27.48 25.4673 26.7557 24.7418C26.1037 24.089 25.162 24.0164 24.4377 24.4517L18.9324 18.9386C19.3671 18.4308 19.6568 17.7779 19.7293 17.0525H26.7557C26.973 18.2857 28.0595 19.2287 29.3634 19.2287C30.8121 19.2287 31.9711 18.0681 31.9711 16.6173C31.9711 15.1664 30.6673 14.1509 29.2185 14.1509C27.9146 14.1509 26.8281 15.0939 26.6108 16.3271H19.5844C19.5119 15.6017 19.2222 14.9488 18.7876 14.441L24.2928 8.92791C25.0172 9.36315 26.0313 9.29061 26.6108 8.63774C27.3352 7.91233 27.3352 6.67913 26.6108 5.95372C25.8864 5.22831 24.655 5.22831 23.9306 5.95372C23.2787 6.60659 23.2062 7.54963 23.6409 8.27504L18.2805 13.8607C17.7735 13.4254 17.1215 13.1353 16.3971 13.0627V6.09881C17.6286 5.88118 18.5703 4.79307 18.5703 3.48733C18.5703 2.03651 17.4113 0.875854 15.9625 0.875854C14.5138 0.875854 13.3548 2.03651 13.3548 3.48733C13.3548 4.79307 14.2965 5.88118 15.5279 6.09881V13.0627C14.8035 13.1353 14.1516 13.4254 13.6445 13.8607L8.21176 8.42012C8.64638 7.69471 8.57394 6.67913 7.92201 6.09881C7.19764 5.3734 5.96621 5.3734 5.24184 6.09881C4.51747 6.82422 4.51747 8.05741 5.24184 8.78282C5.89377 9.43569 6.83545 9.50823 7.55982 9.07299L12.9926 14.5136C12.558 15.0213 12.2682 15.6742 12.1958 16.3996H5.24184C5.02453 15.1664 3.93797 14.2234 2.6341 14.2234C1.18536 14.2234 0.0263672 15.3841 0.0263672 16.8349C0.0263672 18.2857 1.18536 19.4464 2.6341 19.4464C3.93797 19.4464 5.02453 18.5033 5.24184 17.2701H12.1958C12.2682 17.9955 12.558 18.6484 12.9926 19.1562L7.55982 24.5968C6.83545 24.1615 5.82133 24.2341 5.24184 24.8869C4.51747 25.6123 4.51747 26.8455 5.24184 27.5709C5.96621 28.2964 7.19764 28.2964 7.92201 27.5709C8.57394 26.9181 8.64638 25.975 8.21176 25.2496L13.717 19.7365C14.224 20.1718 14.876 20.4619 15.6003 20.5345V27.5709C14.3689 27.7886 13.4272 28.8767 13.4272 30.1824C13.4272 31.6332 14.5862 32.7939 16.035 32.7939C17.4113 32.7214 18.5703 31.4882 18.5703 30.0373Z" fill="white"/>
</svg>
