<svg width="121" height="24" viewBox="0 0 121 24" fill="none" xmlns="http://www.w3.org/2000/svg">
<g clip-path="url(#clip0_2990_1772)">
<path d="M23.3472 0.911011H3.66113V22.1672H23.3472V0.911011Z" fill="white"/>
<path d="M23.4286 23.4474V19.7881H20.6083L19.146 18.2238L17.6887 19.8133L8.38704 19.8284L8.37176 12.4395H5.37057L9.07747 4.11254H12.6697L13.9639 6.94687V4.09745H18.4097L19.174 6.24269L19.9383 4.09493H23.3853L23.3904 0.367798L0.00512695 0.408038L0.0484373 23.4951L23.4337 23.4524L23.4286 23.4474ZM21.0746 18.8677H23.421L20.3103 15.6234L23.4083 12.4068H21.0975L19.1842 14.4791L17.2759 12.4143H14.9295L18.0403 15.6435L14.9601 18.8802H17.2403L19.1638 16.7903L21.0848 18.8727L21.0746 18.8677ZM21.607 15.6209L23.4083 17.5046V13.7473L21.6249 15.6209H21.607ZM11.1615 17.3813V16.3754H14.8531V14.9167H11.1615V13.9107H14.9474V12.4169L9.3781 12.4395L9.39083 18.9004H14.9626V17.404H11.1768L11.1615 17.3813ZM21.6402 11.4587H23.4057V4.99779H20.6567L19.1944 9.02169L17.7294 4.99779H14.927V11.4587H16.6951V6.93178L18.3867 11.4587H19.9561L21.63 6.93178V11.4587H21.6402ZM12.9245 11.4738H14.9346L12.0353 5.01791H9.74241L6.86607 11.4838H8.82779L9.36791 10.1911H12.3793L12.9321 11.4813L12.9245 11.4738ZM11.7525 8.73499H9.96916L10.8558 6.61993L11.7475 8.72996L11.7525 8.73499Z" fill="#006FCF"/>
<path d="M33.0564 6.69543H34.1239L37.3569 16.0258H37.3875L40.6332 6.69543H41.6523L37.8486 17.4267H36.8677L33.0564 6.69543Z" fill="white"/>
<path d="M45.3132 6.69543H51.7793V7.66117H46.3527V11.2877H50.3959V12.1881H46.3451V16.4333H52.0799V17.3738H45.3132V6.69543Z" fill="white"/>
<path d="M55.9016 6.69543H57.0201L62.9893 15.4977H63.0199V6.69543H63.9982V17.3839H63.0785L56.9181 8.29996H56.8901V17.3839H55.9093L55.9016 6.69543Z" fill="white"/>
<path d="M71.1265 7.66117H67.6311V6.70801H75.6614V7.66117H72.166V17.3965H71.1265V7.66117Z" fill="white"/>
<path d="M79.2002 13.7725V6.69543H80.2397V13.5989C80.2397 15.3468 81.1313 16.647 83.1491 16.647C85.1669 16.647 86.0459 15.4047 86.0459 13.6291V6.69543H87.0828V13.7373C87.0828 15.8599 85.7656 17.5625 83.1338 17.5625C80.5021 17.5625 79.2002 15.8951 79.2002 13.7725Z" fill="white"/>
<path d="M91.5156 6.69543H95.1435C97.5562 6.69543 98.9014 7.70141 98.9014 9.58509C98.9014 11.3179 97.8823 12.183 96.3129 12.4722L99.0568 17.3839H97.8849L95.2353 12.5879H92.5398V17.3839H91.5207L91.5156 6.69543ZM95.0824 11.6775C96.8658 11.6775 97.8849 11.1745 97.8849 9.62785C97.8849 8.1541 96.8887 7.63602 95.0824 7.63602H92.5678V11.6851L95.0824 11.6775Z" fill="white"/>
<path d="M103.085 6.69543H109.551V7.66117H104.122V11.2877H108.175V12.1881H104.122V16.4333H109.856V17.3738H103.085V6.69543Z" fill="white"/>
<path d="M112.853 14.7557L113.775 14.4212C114.259 15.91 115.355 16.6846 116.878 16.6846C118.501 16.6846 119.553 15.9477 119.553 14.7506C119.553 13.639 119.013 13.0757 116.715 12.3539C114.417 11.6321 113.204 11.0109 113.204 9.24795C113.204 7.71635 114.595 6.50415 116.57 6.50415C118.608 6.50415 119.775 7.53025 120.284 8.95873L119.408 9.36363C118.868 7.9779 117.915 7.42713 116.555 7.42713C115.107 7.42713 114.229 8.19419 114.229 9.17501C114.229 10.3746 114.947 10.7795 117.227 11.5013C119.507 12.2231 120.593 12.9449 120.593 14.6777C120.593 16.4532 118.998 17.595 116.832 17.595C114.799 17.585 113.365 16.4884 112.853 14.7557Z" fill="white"/>
</g>
<defs>
<clipPath id="clip0_2990_1772">
<rect width="120.593" height="23.1273" fill="white" transform="translate(0 0.362793)"/>
</clipPath>
</defs>
</svg>
