<svg width="106" height="21" viewBox="0 0 106 21" fill="none" xmlns="http://www.w3.org/2000/svg">
<g clip-path="url(#clip0_2990_1784)">
<path d="M14.319 6.06354C15.2493 5.11606 16.2829 4.39254 17.4715 3.89296C18.6085 3.39338 19.8144 3.16943 21.0719 3.16943C22.3123 3.16943 23.5182 3.4106 24.6896 3.89296C25.8438 4.40976 26.8774 5.11606 27.8077 6.06354L27.8421 6.098H30.5467L30.4434 5.94295C29.3581 4.42699 27.9799 3.23833 26.3089 2.35976C24.6379 1.49842 22.9152 1.06775 21.0719 1.06775C19.2459 1.06775 17.4888 1.49842 15.8178 2.35976C14.164 3.22111 12.7686 4.42699 11.7005 5.94295L11.5972 6.098H14.319V6.06354Z" fill="white"/>
<path d="M15.5075 7.95862H13.1475V19.4662H15.5075V7.95862Z" fill="white"/>
<path d="M17.6609 7.97578V10.1291H19.642V16.6237C19.642 17.5195 19.8832 18.243 20.3655 18.777C20.8306 19.3455 21.468 19.6211 22.2605 19.6384C23.0529 19.6556 23.7592 19.4833 24.3449 19.1216L24.3794 19.1043V19.0699L24.9479 16.8821L24.81 16.9682C24.1726 17.3472 23.6042 17.5367 23.0701 17.5367C22.3294 17.5367 21.9676 17.106 21.9676 16.2447V10.1291H24.3794V7.97578H21.9676V4.37537L19.6592 5.6157V7.97578H17.6609Z" fill="white"/>
<path d="M29.0653 7.95862H26.688V19.4662H29.0653V7.95862Z" fill="white"/>
<path d="M11.8039 9.76736L11.7522 9.73291C10.6669 8.40644 9.30596 7.76904 7.68663 7.76904C5.98117 7.76904 4.56857 8.28585 3.44882 9.31946C2.26017 10.422 1.65723 11.8863 1.65723 13.7295C1.65723 15.5728 2.26017 17.0371 3.44882 18.1396C4.55134 19.1732 5.96394 19.69 7.68663 19.69C9.30596 19.69 10.6841 19.0354 11.7522 17.7434L11.8039 17.7089L10.4602 16.1068L10.4085 16.1585C9.54713 17.0199 8.61688 17.4505 7.61772 17.4505C6.58411 17.4505 5.70554 17.106 5.03369 16.3997C4.34462 15.7106 4.01731 14.8321 4.01731 13.7468C4.01731 12.6787 4.34462 11.7829 5.03369 11.0766C5.70554 10.4048 6.56688 10.043 7.61772 10.043C8.61688 10.043 9.54713 10.4909 10.4085 11.3522L10.4602 11.4039L11.8039 9.76736Z" fill="white"/>
<path d="M40.5554 19.5004H40.1592L36.2314 8.18237H36.5932L40.3487 19.0525L44.1213 8.18237H44.4659L40.5554 19.5004Z" fill="white"/>
<path d="M36.5243 8.28582L40.3487 19.3627L44.173 8.28582H44.3109L40.4693 19.3972H40.2281L36.3693 8.28582H36.5243ZM44.0352 8.0791L40.3487 18.7425L36.6621 8.0791H36.0764L40.0558 19.5177L40.073 19.5867H40.6071L44.6037 8.0791H44.0352Z" fill="white"/>
<path d="M46.2058 19.4315V8.18237H52.2352V8.50968H46.5503V13.2815H50.0819V13.5916H46.5503V19.1042H52.4592V19.4315H46.2058Z" fill="white"/>
<path d="M46.3093 8.28582V19.3283H52.3731V19.2077H46.4643V13.4883H49.9786V13.3678H46.4643V8.40641H52.132V8.28582H46.3093ZM46.1025 19.535V8.0791H52.3214V8.59591H46.6538V13.161H50.1681V13.6778H46.6538V18.9837H52.5626V19.5005H46.1025V19.535Z" fill="white"/>
<path d="M60.9865 19.4315L54.3542 8.71641V19.4315H53.9924V8.18237H54.4231L61.0382 18.863V8.18237H61.3828V19.4315H60.9865Z" fill="white"/>
<path d="M54.0957 8.28582V19.3283H54.2508V8.35473L61.0382 19.3283H61.2793V8.28582H61.1415V19.2249L54.3714 8.28582H54.0957ZM53.9062 19.535V8.0791H54.4747L54.5092 8.13078L60.9348 18.5186V8.0791H61.4861V19.5177H60.9348L60.9004 19.4661L54.4575 9.04381V19.5005H53.9062V19.535Z" fill="white"/>
<path d="M66.9125 8.50968V19.4315H66.5507V8.50968H62.9331V8.18237H70.5129V8.50968H66.9125Z" fill="white"/>
<path d="M63.0366 8.28581V8.4064H66.6542V19.3282H66.8092V8.4064H70.4269V8.28581H63.0366ZM62.8298 8.61312V8.09631H70.6164V8.61312H66.9987V19.535H66.4475V8.61312H62.8298Z" fill="white"/>
<path d="M75.8359 19.6039C73.3552 19.6039 72.0632 18.2258 72.0632 15.28V8.1825H72.425V15.28C72.425 18.0018 73.5792 19.2766 75.8531 19.2766C78.1271 19.2766 79.2813 18.0018 79.2813 15.28V8.1825H79.643V15.28C79.6086 18.2258 78.2821 19.6039 75.8359 19.6039Z" fill="white"/>
<path d="M72.1667 8.28582V15.2799C72.1667 18.1224 73.3726 19.5005 75.836 19.5005C78.2822 19.5005 79.5053 18.0879 79.5053 15.2799V8.28582H79.3503V15.2799C79.3503 18.0362 78.1961 19.3799 75.8188 19.3799C73.4415 19.3799 72.3045 18.0362 72.3045 15.2799V8.28582H72.1667ZM71.96 15.2799V8.0791H72.5112V15.2799C72.5112 17.8984 73.5965 19.1732 75.836 19.1732C78.0755 19.1732 79.1608 17.8984 79.1608 15.2799V8.0791H79.7121V15.2799C79.7121 18.2085 78.4028 19.7072 75.836 19.7072C73.2692 19.7072 71.96 18.2257 71.96 15.2799Z" fill="white"/>
<path d="M85.259 8.50981H82.4166V13.9535H85.0523C87.4468 13.9535 88.6183 13.1438 88.6183 11.18C88.6183 9.16443 87.309 8.50981 85.259 8.50981ZM88.8594 19.4316H88.446L85.7242 14.2464C85.483 14.2808 85.2418 14.2808 84.9662 14.2808H82.3994V19.4316H82.0376V8.1825H85.2418C87.4296 8.1825 88.9456 8.92325 88.9456 11.1627C88.9456 12.9371 88.0498 13.9363 86.1031 14.2119L88.8594 19.4316Z" fill="white"/>
<path d="M82.5027 8.61314V13.8673H85.035C87.4296 13.8673 88.4976 13.0404 88.4976 11.1799C88.4976 9.40557 87.4985 8.61314 85.2417 8.61314H82.5027ZM82.3132 14.0568V8.40641H85.259C87.6191 8.40641 88.7044 9.28498 88.7044 11.1627C88.7044 13.1266 87.5329 14.0396 85.035 14.0396H82.3132V14.0568ZM82.1581 8.28582V19.3283H82.3132V14.1774H84.9833C85.259 14.1774 85.4829 14.1774 85.7241 14.143L85.793 14.1257L88.5149 19.3283H88.7044L85.9653 14.1257L86.1031 14.1085C87.9808 13.8501 88.8594 12.9026 88.8594 11.1627C88.8594 9.2333 87.688 8.28582 85.259 8.28582H82.1581ZM81.9514 19.535V8.0791H85.259C87.8086 8.0791 89.0489 9.07826 89.0489 11.1455C89.0489 12.9371 88.1359 13.9707 86.2581 14.2808L89.0144 19.5177H88.377L85.6724 14.3325C85.4485 14.3497 85.2245 14.3497 84.9661 14.3497H82.5027V19.5005H81.9514V19.535Z" fill="white"/>
<path d="M90.9612 19.4315V8.18237H96.9734V8.50968H91.3057V13.2815H94.82V13.5916H91.3057V19.1042H97.2145V19.4315H90.9612Z" fill="white"/>
<path d="M91.0474 8.28582V19.3283H97.1113V19.2077H91.2024V13.4883H94.7167V13.3678H91.2024V8.40641H96.8701V8.28582H91.0474ZM90.8579 19.535V8.0791H97.0768V8.59591H91.4092V13.161H94.9235V13.6778H91.4092V18.9837H97.318V19.5005H90.8579V19.535Z" fill="white"/>
<path d="M101.728 19.6038C100.247 19.6038 99.1785 19.1215 98.2483 18.3979L98.4378 18.1395C99.4025 18.8803 100.333 19.2937 101.728 19.2937C103.365 19.2937 104.691 18.4669 104.691 16.7097C104.691 15.2799 103.916 14.6425 101.539 13.7295C99.1096 12.8164 98.4378 12.1618 98.4378 10.6975C98.4378 9.23325 99.5231 7.99292 101.659 7.99292C103.003 7.99292 104.019 8.40636 104.863 8.97485L104.674 9.25048C103.864 8.69922 102.951 8.303 101.659 8.303C99.6609 8.303 98.7995 9.43998 98.7995 10.6631C98.7995 11.9723 99.3853 12.558 101.745 13.4366C104.209 14.3669 105.07 15.1248 105.07 16.6925C105.07 18.6047 103.623 19.6038 101.728 19.6038Z" fill="white"/>
<path d="M98.4722 18.2946L98.4033 18.398C99.4025 19.1732 100.471 19.5178 101.728 19.5178C103.726 19.5178 104.967 18.4497 104.967 16.7098C104.967 15.2283 104.209 14.4875 101.728 13.5573C99.368 12.6787 98.7134 12.0585 98.7134 10.6804C98.7134 9.5434 99.4886 8.21693 101.676 8.21693C102.796 8.21693 103.726 8.49256 104.674 9.12995L104.743 9.02659C103.795 8.40642 102.813 8.11357 101.694 8.11357C99.7987 8.11357 98.5584 9.12995 98.5584 10.7148C98.5584 12.1274 99.213 12.7648 101.59 13.6606C104.088 14.6081 104.812 15.2972 104.812 16.727C104.812 18.3808 103.64 19.4144 101.745 19.4144C100.488 19.3972 99.5403 19.0699 98.4722 18.2946ZM98.1277 18.4152L98.4378 18.0018L98.5239 18.0707C99.5747 18.8804 100.505 19.2077 101.763 19.2077C103.158 19.2077 104.639 18.5531 104.639 16.727C104.639 15.3833 103.968 14.7631 101.556 13.8501C99.0924 12.9199 98.3861 12.2136 98.3861 10.7148C98.3861 9.00937 99.6953 7.92407 101.711 7.92407C102.917 7.92407 103.95 8.23416 104.967 8.92323L105.053 8.97491L104.743 9.40558L104.657 9.3539C104.019 8.92323 103.106 8.42365 101.694 8.42365C99.6609 8.42365 98.9373 9.64676 98.9373 10.6804C98.9373 11.869 99.368 12.4547 101.814 13.3678C104.364 14.3325 105.191 15.1421 105.191 16.7098C105.191 18.5358 103.847 19.7245 101.745 19.7245C100.402 19.7245 99.2647 19.3283 98.2138 18.5014L98.1277 18.4152Z" fill="white"/>
</g>
<defs>
<clipPath id="clip0_2990_1784">
<rect width="104.963" height="20.4483" fill="white" transform="translate(0.847656 0.309814)"/>
</clipPath>
</defs>
</svg>
