<svg width="97" height="68" viewBox="0 0 97 68" fill="none" xmlns="http://www.w3.org/2000/svg">
<path d="M40.0473 7.35575C43.1247 4.12823 47.4406 2.13917 52.2068 2.13917C58.5493 2.13917 64.0661 5.66693 67.0309 10.921C69.5829 9.79515 72.4351 9.15715 75.4 9.15715C86.8089 9.15715 96.0786 18.502 96.0786 30.0235C96.0786 41.545 86.8089 50.8898 75.4 50.8898C74.0114 50.8898 72.6603 50.7396 71.3093 50.4769C68.7197 55.093 63.7659 58.208 58.0989 58.208C55.7346 58.208 53.4828 57.645 51.4938 56.6693C48.8667 62.8616 42.7495 67.1775 35.6189 67.1775C28.1881 67.1775 21.8456 62.4863 19.4062 55.8812C18.3554 56.1063 17.2295 56.2189 16.1036 56.2189C7.24671 56.2189 0.0786133 48.9758 0.0786133 40.0438C0.0786133 34.0391 3.30613 28.8225 8.07236 26.0078C7.0966 23.7561 6.53366 21.2416 6.53366 18.6145C6.53366 8.33151 14.8652 0 25.1857 0C31.2655 0 36.6322 2.88976 40.0473 7.35575Z" fill="#00A1E0"/>
<path d="M14.0019 34.8647C13.9268 35.0148 14.0394 35.0524 14.0394 35.0899C14.2271 35.2025 14.4147 35.3151 14.6023 35.4277C15.5781 35.9531 16.5163 36.1032 17.4546 36.1032C19.4061 36.1032 20.6446 35.0524 20.6446 33.3635V33.326C20.6446 31.7498 19.256 31.1868 17.98 30.774L17.8299 30.7365C16.8541 30.4363 16.0285 30.136 16.0285 29.498V29.4605C16.0285 28.8976 16.5163 28.5223 17.2669 28.5223C18.1301 28.5223 19.1059 28.8225 19.7814 29.1603C19.7814 29.1603 19.969 29.2728 20.0441 29.0852C20.0816 28.9726 20.4194 28.1094 20.4569 27.9968C20.4944 27.8843 20.4194 27.8092 20.3443 27.7717C19.5937 27.3213 18.5805 27.0211 17.5296 27.0211H17.342C15.5406 27.0211 14.2646 28.1094 14.2646 29.6857V29.7232C14.2646 31.3745 15.6532 31.8999 16.9667 32.2752L17.1919 32.3503C18.1301 32.6505 18.9557 32.8757 18.9557 33.5512V33.5887C18.9557 34.1892 18.4303 34.6395 17.5672 34.6395C17.2294 34.6395 16.1786 34.6395 15.0152 33.9265C14.8651 33.8514 14.79 33.7764 14.6774 33.7388C14.6399 33.7013 14.4898 33.6262 14.4147 33.8139L14.0019 34.8647Z" fill="white"/>
<path d="M42.8244 34.8647C42.7493 35.0148 42.8619 35.0524 42.8619 35.0899C43.0496 35.2025 43.2372 35.3151 43.4249 35.4277C44.4006 35.9531 45.3388 36.1032 46.2771 36.1032C48.2286 36.1032 49.4671 35.0524 49.4671 33.3635V33.326C49.4671 31.7498 48.0785 31.1868 46.8025 30.774L46.6524 30.7365C45.6766 30.4363 44.851 30.136 44.851 29.498V29.4605C44.851 28.8976 45.3388 28.5223 46.0894 28.5223C46.9526 28.5223 47.9284 28.8225 48.6039 29.1603C48.6039 29.1603 48.7916 29.2728 48.8666 29.0852C48.9041 28.9726 49.2419 28.1094 49.2794 27.9968C49.317 27.8843 49.2419 27.8092 49.1668 27.7717C48.4163 27.3213 47.403 27.0211 46.3521 27.0211H46.1645C44.3631 27.0211 43.0871 28.1094 43.0871 29.6857V29.7232C43.0871 31.3745 44.4757 31.8999 45.7892 32.2752L46.0144 32.3503C46.9526 32.6505 47.7783 32.8757 47.7783 33.5512V33.5887C47.7783 34.1892 47.2528 34.6395 46.3897 34.6395C46.0519 34.6395 45.0011 34.6395 43.8377 33.9265C43.6876 33.8514 43.6125 33.7764 43.4999 33.7388C43.4624 33.7013 43.3123 33.6638 43.2372 33.8139L42.8244 34.8647Z" fill="white"/>
<path d="M62.49 31.5622C62.49 32.5004 62.3024 33.251 61.9646 33.8139C61.6268 34.3393 61.1014 34.6021 60.3508 34.6021C59.6378 34.6021 59.1124 34.3393 58.7746 33.8139C58.4368 33.2885 58.2492 32.5379 58.2492 31.5622C58.2492 30.6239 58.4368 29.8734 58.7746 29.3479C59.1124 28.8225 59.6378 28.5598 60.3508 28.5598C61.0639 28.5598 61.5893 28.8225 61.9646 29.3479C62.3024 29.8358 62.49 30.5864 62.49 31.5622ZM64.1413 29.7983C63.9912 29.2354 63.7285 28.785 63.3907 28.3722C63.053 27.9594 62.6401 27.6591 62.1147 27.3964C61.6268 27.1712 61.0264 27.0587 60.3508 27.0587C59.6753 27.0587 59.0748 27.1712 58.587 27.3964C58.0991 27.6216 57.6487 27.9594 57.311 28.3722C56.9732 28.785 56.7105 29.2729 56.5604 29.7983C56.4103 30.3237 56.3352 30.9242 56.3352 31.5622C56.3352 32.2002 56.4103 32.8006 56.5604 33.3261C56.7105 33.8515 56.9732 34.3393 57.311 34.7522C57.6487 35.165 58.0616 35.4652 58.587 35.6904C59.0748 35.9156 59.6753 36.0282 60.3508 36.0282C61.0264 36.0282 61.6268 35.9156 62.1147 35.6904C62.6026 35.4652 63.053 35.1275 63.3907 34.7522C63.7285 34.3393 63.9912 33.889 64.1413 33.3261C64.2914 32.8006 64.3665 32.2002 64.3665 31.5622C64.3665 30.9242 64.2914 30.3237 64.1413 29.7983Z" fill="white"/>
<path d="M77.614 34.3018C77.5765 34.1517 77.3888 34.1892 77.3888 34.1892C77.1637 34.2643 76.901 34.3769 76.6382 34.4144C76.3755 34.4519 76.0753 34.4895 75.7375 34.4895C74.9494 34.4895 74.3114 34.2643 73.8611 33.7764C73.4107 33.3261 73.148 32.5379 73.148 31.5246C73.148 30.5864 73.3732 29.9109 73.786 29.3479C74.1988 28.8225 74.7993 28.5598 75.625 28.5598C76.3005 28.5598 76.8259 28.6349 77.3513 28.8225C77.3513 28.8225 77.4639 28.8601 77.539 28.7099C77.6891 28.2971 77.8017 28.0344 77.9518 27.5841C77.9893 27.4715 77.8767 27.3964 77.8392 27.3964C77.614 27.3214 77.1261 27.1712 76.7508 27.1337C76.4131 27.0962 75.9627 27.0587 75.5124 27.0587C74.8368 27.0587 74.1988 27.1712 73.6734 27.3964C73.148 27.6216 72.6977 27.9594 72.3599 28.3722C72.0221 28.785 71.7219 29.2729 71.5718 29.7983C71.3841 30.3237 71.3091 30.9242 71.3091 31.5622C71.3091 32.9132 71.6844 34.0391 72.3974 34.8272C73.1105 35.6529 74.1988 36.0657 75.625 36.0657C76.4506 36.0657 77.3138 35.878 77.9518 35.6529C77.9518 35.6529 78.0644 35.5778 78.0268 35.4652L77.614 34.3018Z" fill="white"/>
<path d="M80.504 30.6239C80.5791 30.0985 80.7292 29.6481 80.9544 29.3104C81.2921 28.785 81.8175 28.5223 82.5306 28.5223C83.2437 28.5223 83.7315 28.8225 84.1068 29.3104C84.332 29.6481 84.4446 30.0985 84.4821 30.6239H80.504ZM86.0208 29.4605C85.8707 28.9351 85.5329 28.4097 85.3078 28.147C84.9325 27.7717 84.5947 27.509 84.2569 27.3589C83.8066 27.1712 83.2437 27.0211 82.6807 27.0211C81.9677 27.0211 81.3672 27.1337 80.8418 27.3964C80.3164 27.6216 79.9035 27.9593 79.5658 28.3721C79.228 28.785 78.9653 29.2728 78.8152 29.7983C78.6651 30.3612 78.5525 30.9617 78.5525 31.5621C78.5525 32.2001 78.6275 32.8006 78.8152 33.326C79.0028 33.8514 79.2655 34.3393 79.6033 34.7521C79.9786 35.165 80.429 35.4652 80.9919 35.6904C81.5548 35.9155 82.2304 36.0281 83.0185 36.0281C84.6322 36.0281 85.4579 35.6528 85.8332 35.4652C85.9082 35.4277 85.9458 35.3526 85.8707 35.2025L85.4954 34.1892C85.4579 34.0391 85.2702 34.0766 85.2702 34.0766C84.8574 34.2267 84.2945 34.4894 82.981 34.4894C82.1178 34.4894 81.4798 34.2267 81.067 33.8514C80.6541 33.4386 80.4665 32.8381 80.429 32.0125H85.9833C85.9833 32.0125 86.1334 32.0125 86.1334 31.8624C86.2085 31.8248 86.3961 30.7365 86.0208 29.4605Z" fill="white"/>
<path d="M35.9564 30.6239C36.0315 30.0985 36.1816 29.6481 36.4068 29.3104C36.7445 28.785 37.2699 28.5223 37.983 28.5223C38.696 28.5223 39.1839 28.8225 39.5592 29.3104C39.7844 29.6481 39.897 30.0985 39.9345 30.6239H35.9564ZM41.4732 29.4605C41.3231 28.9351 40.9853 28.4097 40.7602 28.147C40.3849 27.7717 40.0471 27.509 39.7093 27.3589C39.259 27.1712 38.696 27.0211 38.1331 27.0211C37.4576 27.0211 36.8196 27.1337 36.2942 27.3964C35.7688 27.6216 35.3559 27.9593 35.0182 28.3721C34.6804 28.785 34.4177 29.2728 34.2676 29.7983C34.1175 30.3612 34.0049 30.9617 34.0049 31.5621C34.0049 32.2001 34.0799 32.8006 34.2676 33.326C34.4552 33.8514 34.7179 34.3393 35.0557 34.7521C35.431 35.165 35.8813 35.4652 36.4443 35.6904C37.0072 35.9155 37.6828 36.0281 38.4709 36.0281C40.0846 36.0281 40.9103 35.6528 41.2856 35.4652C41.3606 35.4277 41.3982 35.3526 41.3231 35.2025L40.9478 34.1892C40.9103 34.0391 40.7226 34.0766 40.7226 34.0766C40.3098 34.2267 39.7469 34.4894 38.4333 34.4894C37.5702 34.4894 36.9322 34.2267 36.5193 33.8514C36.1065 33.4386 35.9189 32.8381 35.8813 32.0125H41.4357C41.4357 32.0125 41.5858 32.0125 41.5858 31.8624C41.6609 31.8248 41.8485 30.7365 41.4732 29.4605Z" fill="white"/>
<path d="M23.9096 34.2643C23.6845 34.0766 23.6469 34.0391 23.5719 33.9265C23.4593 33.7389 23.4218 33.5137 23.4218 33.2134C23.4218 32.7256 23.5719 32.3878 23.9096 32.1251C23.9096 32.1251 24.3975 31.7123 25.5234 31.7123C26.3115 31.7123 27.0246 31.8249 27.0246 31.8249V34.3393C27.0246 34.3393 26.3115 34.4894 25.5234 34.527C24.4351 34.6771 23.9096 34.2643 23.9096 34.2643ZM26.1239 30.3612C25.8987 30.3612 25.5985 30.3237 25.2607 30.3237C24.7728 30.3237 24.3225 30.3987 23.8721 30.5113C23.4218 30.6239 23.0465 30.8116 22.7087 31.0367C22.3709 31.2619 22.1082 31.5997 21.9206 31.9374C21.7329 32.3127 21.6204 32.7256 21.6204 33.2134C21.6204 33.7013 21.6954 34.1517 21.8831 34.4894C22.0707 34.8272 22.2959 35.1274 22.5961 35.3526C22.8964 35.5778 23.2717 35.7279 23.722 35.8405C24.1724 35.9531 24.6602 35.9906 25.1856 35.9906C25.7486 35.9906 26.3115 35.9531 26.8745 35.8405C27.4374 35.7654 28.0754 35.6153 28.263 35.5778C28.4507 35.5403 28.6383 35.4652 28.6383 35.4652C28.7885 35.4277 28.7509 35.2776 28.7509 35.2776V30.1736C28.7509 29.0477 28.4507 28.222 27.8502 27.7342C27.2498 27.2087 26.4241 26.946 25.2982 26.946C24.8854 26.946 24.2099 27.0211 23.7971 27.0962C23.7971 27.0962 22.5961 27.3213 22.0707 27.7342C22.0707 27.7342 21.9581 27.8092 22.0332 27.9593L22.4085 29.0102C22.446 29.1603 22.5961 29.0852 22.5961 29.0852C22.5961 29.0852 22.6337 29.0852 22.6712 29.0477C23.7595 28.4472 25.1106 28.4847 25.1106 28.4847C25.7111 28.4847 26.1614 28.5973 26.4992 28.86C26.7994 29.0852 26.9495 29.4605 26.9495 30.1736V30.3987C26.5742 30.3987 26.1239 30.3612 26.1239 30.3612Z" fill="white"/>
<path d="M71.009 27.509C71.0465 27.3964 70.9715 27.3214 70.934 27.3214C70.8214 27.2838 70.371 27.1712 69.9957 27.1712C69.2827 27.1337 68.9074 27.2463 68.5696 27.3964C68.2318 27.5465 67.8566 27.8092 67.6314 28.0719V27.3964C67.6314 27.2838 67.5563 27.2088 67.4813 27.2088H66.0551C65.9801 27.2088 65.905 27.2838 65.905 27.3964V35.6904C65.905 35.7655 65.9801 35.878 66.0927 35.878H67.5563C67.6314 35.878 67.7064 35.803 67.7064 35.6904V31.5622C67.7064 30.9992 67.7815 30.4363 67.8941 30.0985C68.0067 29.7608 68.1943 29.4605 68.382 29.2729C68.5696 29.0852 68.8323 28.9351 69.0575 28.8601C69.3202 28.785 69.5829 28.7475 69.8081 28.7475C70.1083 28.7475 70.4085 28.8225 70.4085 28.8225C70.5211 28.8225 70.5587 28.785 70.5962 28.6724C70.6713 28.4097 70.9715 27.6591 71.009 27.509Z" fill="white"/>
<path d="M57.2736 23.6435C57.0859 23.606 56.9358 23.5684 56.7107 23.5309C56.4855 23.4934 56.2603 23.4558 55.9601 23.4558C54.9468 23.4558 54.1587 23.7561 53.5957 24.319C53.0328 24.882 52.6575 25.7076 52.4698 26.8335L52.3948 27.2088H51.1188C51.1188 27.2088 50.9687 27.2088 50.9311 27.3589L50.706 28.5223C50.706 28.6349 50.7435 28.7099 50.8936 28.7099H52.1321L50.8936 35.6904C50.781 36.2533 50.6684 36.7037 50.5558 37.079C50.4433 37.4167 50.3307 37.6795 50.1806 37.8671C50.0304 38.0547 49.9178 38.1673 49.6551 38.2424C49.4675 38.3175 49.2423 38.355 49.0171 38.355C48.867 38.355 48.7169 38.3174 48.5668 38.3174C48.4542 38.2799 48.3791 38.2799 48.2666 38.2049C48.2666 38.2049 48.1164 38.1673 48.0789 38.2799C48.0414 38.3925 47.7036 39.2932 47.6661 39.4058C47.6286 39.5184 47.6661 39.5934 47.7411 39.631C47.8913 39.706 48.0414 39.7436 48.2666 39.7811C48.5668 39.8562 48.8295 39.8562 49.0922 39.8562C49.6176 39.8562 50.068 39.7811 50.4433 39.631C50.8186 39.4809 51.1563 39.2557 51.4566 38.9179C51.7943 38.5426 51.982 38.1673 52.1696 37.6795C52.3573 37.1916 52.5449 36.5536 52.6575 35.803L53.896 28.7099H55.7349C55.7349 28.7099 55.885 28.7099 55.9225 28.5598L56.1477 27.3964C56.1477 27.2838 56.1102 27.2088 55.9601 27.2088H54.1962C54.1962 27.1712 54.2713 26.5332 54.4964 25.9703C54.5715 25.7076 54.7591 25.52 54.8717 25.3698C55.0218 25.2197 55.172 25.1447 55.3221 25.0696C55.5097 24.9945 55.6974 24.9945 55.9225 24.9945C56.0727 24.9945 56.2603 25.0321 56.3729 25.0321C56.5605 25.0696 56.5981 25.0696 56.6731 25.1071C56.8608 25.1447 56.8983 25.1071 56.8983 25.0321L57.3111 23.8687C57.4237 23.7185 57.3111 23.681 57.2736 23.6435Z" fill="white"/>
<path d="M32.4289 35.6903C32.4289 35.7654 32.3539 35.8405 32.2788 35.8405H30.8152C30.7401 35.8405 30.665 35.7654 30.665 35.6903V23.8311C30.665 23.756 30.7401 23.681 30.8152 23.681H32.2788C32.3539 23.681 32.4289 23.756 32.4289 23.8311V35.6903Z" fill="white"/>
</svg>
