<svg width="118" height="12" viewBox="0 0 118 12" fill="none" xmlns="http://www.w3.org/2000/svg">
<g clip-path="url(#clip0_2990_1741)">
<path d="M6.78 2.21595V8.31893C6.72446 8.99095 6.8623 9.66485 7.17725 10.2611C7.34584 10.4678 7.55997 10.6328 7.8029 10.743C8.04582 10.8533 8.31096 10.9058 8.57757 10.8966C8.77214 10.9133 8.87124 11.0106 8.87124 11.1862C8.87124 11.3123 8.78656 11.3745 8.61856 11.3745C8.58162 11.3745 8.51316 11.3722 8.41632 11.3659L7.80827 11.3434L6.79666 11.2776C6.71559 11.2731 6.60614 11.2691 6.47192 11.2691C6.15933 11.2691 5.87604 11.2776 5.62831 11.2939L3.83886 11.3997C3.64788 11.4222 3.51771 11.4326 3.4497 11.4326C3.28215 11.4326 3.19928 11.3619 3.20513 11.2177C3.20072 11.1752 3.20569 11.1321 3.2197 11.0916C3.23371 11.0512 3.25641 11.0143 3.2862 10.9835C3.3847 10.9368 3.49248 10.913 3.60149 10.9137C3.78732 10.9109 3.97043 10.8686 4.13875 10.7898C4.30707 10.711 4.45676 10.5974 4.57797 10.4566C4.82282 10.1287 4.94434 9.7251 4.92117 9.31658L4.91486 8.93553V1.73806C4.91486 1.31198 4.68516 1.09894 4.22574 1.09894C3.48007 1.05715 2.73255 1.13686 2.01245 1.33494C1.78651 1.40938 1.58776 1.54922 1.44135 1.73672C1.27132 2.09096 1.14227 2.46345 1.0567 2.84696L0.990491 3.07486C0.932389 3.29601 0.839609 3.40772 0.715297 3.40772C0.535135 3.40772 0.45226 3.32483 0.464872 3.15593C0.476651 2.94406 0.503743 2.73332 0.545941 2.52537L0.626557 1.82004L0.7243 1.09939L0.781948 0.60394C0.780923 0.560231 0.789172 0.516797 0.806153 0.476508C0.823134 0.436219 0.848458 0.399991 0.88046 0.370202C0.912463 0.340412 0.950424 0.317744 0.991825 0.303688C1.03323 0.289633 1.07713 0.284502 1.12066 0.288651C1.17516 0.288651 1.26749 0.294511 1.39585 0.304871C1.60754 0.321536 1.90706 0.32964 2.29666 0.32964L3.9492 0.346313L5.91838 0.371082C7.18912 0.371082 8.53433 0.335793 9.95401 0.265229C10.2355 0.25487 10.4175 0.249023 10.4985 0.249023C10.7963 0.249023 10.9535 0.375135 10.9679 0.621507L11.0093 1.20479C11.0134 1.29802 11.0404 1.51736 11.0904 1.86101C11.1234 2.08996 11.1427 2.3207 11.148 2.55195C11.148 2.73211 11.0728 2.81903 10.926 2.81903C10.8048 2.81903 10.7174 2.71544 10.6679 2.51096C10.5991 2.07675 10.3659 1.68564 10.0166 1.41872C9.5947 1.16865 9.10708 1.05185 8.61765 1.08362C8.09769 1.03802 7.574 1.10358 7.08133 1.27595C6.87909 1.39891 6.78 1.71329 6.78 2.21595Z" fill="#E67B26"/>
<path d="M14.9823 8.82372L15.0458 9.63446C15.0853 9.99867 15.2533 10.3369 15.5196 10.5884C15.7945 10.8192 16.1462 10.938 16.5047 10.9213C16.7695 10.9213 16.901 11.0041 16.901 11.1699C16.901 11.3266 16.7254 11.4077 16.374 11.4077C16.2227 11.4077 16.0074 11.3933 15.7263 11.3627C15.1594 11.2924 14.5892 11.2522 14.018 11.2424C13.5885 11.2341 13.1591 11.2633 12.7348 11.3298C12.5429 11.3712 12.348 11.3967 12.1519 11.4059C12.0996 11.4095 12.0478 11.3937 12.0063 11.3617C11.9648 11.3297 11.9365 11.2835 11.9267 11.232L11.9096 11.1663L12.1438 10.9758C12.4507 10.8924 12.7227 10.7126 12.9194 10.4628C13.0687 10.1489 13.1342 9.80182 13.1095 9.45519L13.1176 8.73454V2.28655C13.1511 1.91436 13.0597 1.5416 12.8577 1.22719C12.603 0.976724 12.2662 0.826839 11.9096 0.805166C11.7279 0.786036 11.5495 0.743652 11.3786 0.679053C11.3405 0.659327 11.3089 0.628829 11.288 0.591358C11.267 0.553888 11.2575 0.511085 11.2606 0.468256C11.2606 0.315118 11.3268 0.243051 11.4547 0.246654C11.6021 0.259235 11.7486 0.280746 11.8934 0.311065C12.2171 0.365506 12.5454 0.387533 12.8735 0.376822C13.1757 0.376822 13.5523 0.360613 13.9995 0.323229L14.5927 0.278186C15.1476 0.236749 15.5755 0.215576 15.8714 0.215576C16.0516 0.215576 16.1416 0.281793 16.1416 0.414663C16.1497 0.483756 16.1351 0.553593 16.1002 0.613736C16.0424 0.659775 15.9709 0.685147 15.8971 0.685802C15.6165 0.700084 15.3506 0.815441 15.1485 1.01055C15.0099 1.29708 14.9528 1.61617 14.9832 1.93298L14.9823 8.82372Z" fill="#E67B26"/>
<path d="M23.1361 0.0607776C24.2344 0.107499 25.3122 0.374789 26.3051 0.846733C26.4918 0.939627 26.691 1.00501 26.8965 1.04086C26.972 1.0413 27.0448 1.01221 27.0992 0.959787L27.1892 0.877357C27.2414 0.825777 27.3106 0.79503 27.3838 0.790886C27.5446 0.78458 27.6257 0.880969 27.6257 1.0805L27.6176 1.64936L27.586 2.76005L27.6095 3.34558C27.6216 3.49061 27.636 3.6478 27.659 3.81536C27.6649 3.87976 27.6671 3.9293 27.6671 3.95993C27.6671 4.13378 27.5824 4.21666 27.4144 4.2045C27.3027 4.19999 27.2266 4.0865 27.1892 3.86535C27.0422 3.14434 26.6843 2.48326 26.161 1.96598C25.791 1.54832 25.3356 1.21505 24.8256 0.988762C24.3156 0.762471 23.7629 0.648444 23.205 0.654409C22.6921 0.639739 22.1835 0.750432 21.7232 0.976873C21.2628 1.20331 20.8647 1.53867 20.5633 1.95383C19.8577 2.96468 19.5091 4.18182 19.5724 5.41294C19.5262 6.78373 19.8814 8.13818 20.5944 9.30985C21.2772 10.3653 22.1171 10.8923 23.114 10.8908C23.4984 10.8758 23.879 10.8088 24.2454 10.6917C24.6119 10.5995 24.9631 10.4546 25.2881 10.2616C25.5059 10.1169 25.6646 9.8989 25.7353 9.6472C25.8355 9.23789 25.8779 8.81659 25.8615 8.39553C25.9105 7.92004 25.7871 7.44274 25.5137 7.05061C25.1464 6.75138 24.6806 6.60022 24.2076 6.62679C24.04 6.61643 23.9558 6.5367 23.9558 6.38851C23.9558 6.24033 24.0553 6.16331 24.2494 6.16331C24.3093 6.16331 24.4044 6.16962 24.5327 6.17998C25.0647 6.22502 25.6646 6.25205 26.3366 6.25205C26.8453 6.25956 27.354 6.24106 27.8608 6.19664C28.0629 6.16668 28.2668 6.15013 28.4711 6.1471C28.6657 6.1471 28.763 6.21917 28.763 6.3624C28.763 6.49482 28.6657 6.57949 28.4711 6.61642C28.3294 6.63931 28.1957 6.69735 28.0823 6.78524C27.9688 6.87313 27.8792 6.98806 27.8216 7.11953C27.6781 7.56036 27.6179 8.02409 27.6442 8.48696C27.6431 8.66518 27.6513 8.84334 27.6689 9.02069C27.6914 9.29094 27.7023 9.47785 27.7023 9.5855C27.7134 9.71646 27.6775 9.84709 27.6009 9.95393C27.4841 10.0614 27.3437 10.1399 27.191 10.1832C27.0645 10.2282 26.6366 10.4084 25.9029 10.7277C24.8438 11.2283 23.6952 11.5116 22.5248 11.561C21.8569 11.5834 21.192 11.4626 20.5746 11.2068C19.9573 10.951 19.4018 10.566 18.9455 10.0778C17.9971 9.03193 17.4984 7.65497 17.5569 6.24439C17.5088 4.62538 18.0825 3.04942 19.1603 1.84032C19.6523 1.27068 20.2633 0.816044 20.9503 0.508544C21.6373 0.201043 22.3835 0.0481892 23.1361 0.0607776Z" fill="#E67B26"/>
<path d="M33.0231 2.12728V3.88386C32.997 4.20681 33.0348 4.53172 33.1343 4.84007C33.2068 4.97519 33.3825 5.0423 33.664 5.0423L33.9085 5.03419L34.2639 5.0279H34.9526C35.2244 5.02135 35.488 4.93347 35.7093 4.77563C35.9307 4.61779 36.0996 4.39722 36.1943 4.1424L36.3804 3.74513C36.4023 3.69945 36.4367 3.66087 36.4796 3.63379C36.5224 3.60672 36.572 3.59223 36.6227 3.592C36.7425 3.58794 36.8002 3.66091 36.8002 3.8136C36.8002 3.85503 36.792 3.9753 36.7781 4.16987C36.7655 4.3104 36.761 4.43065 36.761 4.52748C36.761 4.70134 36.7839 5.10491 36.8339 5.74584C36.865 6.16156 36.8812 6.52549 36.8812 6.83447L36.8916 7.24794C36.8957 7.3004 36.8865 7.35304 36.865 7.40107C36.8497 7.42019 36.8301 7.43539 36.8078 7.44542C36.7855 7.45544 36.7611 7.46 36.7367 7.45872C36.6015 7.47133 36.5168 7.36864 36.484 7.15065C36.4456 6.75776 36.2751 6.38952 36.0002 6.10616C35.8558 5.97462 35.6769 5.88697 35.4845 5.85348C35.1064 5.80643 34.7254 5.78792 34.3445 5.79809H33.7941C33.6088 5.77934 33.4223 5.82071 33.2622 5.91609C33.1457 6.04619 33.0786 6.2131 33.0726 6.38766C33.0325 6.81326 33.016 7.24075 33.0231 7.66817V8.39423C32.9986 8.94776 33.0594 9.50177 33.2032 10.0369C33.243 10.2373 33.3593 10.4144 33.5275 10.5306C33.6956 10.6468 33.9024 10.693 34.104 10.6593C36.296 10.6593 37.7302 9.9924 38.4067 8.6586C38.4437 8.59419 38.4774 8.55772 38.504 8.55367C38.5317 8.54861 38.5603 8.55088 38.5869 8.56028C38.6134 8.56969 38.637 8.58589 38.6554 8.60726C38.6779 8.63004 38.6956 8.65714 38.7074 8.68694C38.7191 8.71675 38.7247 8.74864 38.7238 8.78067C38.7206 9.32439 38.5719 9.85734 38.2933 10.3242C38.0943 10.7094 37.7834 11.0253 37.4014 11.2304C36.9569 11.4307 36.4716 11.5241 35.9845 11.5034C35.5995 11.5018 35.2149 11.4798 34.8323 11.4376L33.8923 11.3502C33.5473 11.3172 33.0798 11.3008 32.4898 11.3011C32.097 11.3011 31.4944 11.3255 30.6881 11.3732C30.4674 11.3894 30.308 11.398 30.2107 11.398C30.1847 11.4017 30.1582 11.3999 30.1329 11.3927C30.1076 11.3854 30.0842 11.3728 30.0641 11.3558C30.0441 11.3387 30.0279 11.3176 30.0167 11.2938C30.0055 11.27 29.9995 11.2441 29.999 11.2178C29.9954 11.1183 30.0535 11.044 30.1792 10.9926C30.4149 10.9188 30.6297 10.7899 30.8057 10.6165C30.9478 10.4046 31.0379 10.1622 31.0687 9.90893C31.138 9.52396 31.1682 9.13298 31.1588 8.74194V2.32816C31.2062 1.89624 31.1008 1.46137 30.8611 1.099C30.5117 0.819664 30.0817 0.660177 29.6346 0.644099C29.6043 0.643376 29.5744 0.636507 29.5467 0.623921C29.5191 0.611336 29.4942 0.593293 29.4737 0.570865C29.4533 0.548437 29.4375 0.522095 29.4275 0.493424C29.4174 0.464752 29.4133 0.434338 29.4153 0.404024C29.4153 0.27746 29.5054 0.213501 29.6819 0.213501C29.7216 0.213501 29.8017 0.219815 29.9265 0.230174C30.0233 0.23648 30.1553 0.238284 30.3229 0.238284L31.1426 0.272056L34.2144 0.302694C35.9815 0.302694 37.0704 0.278671 37.4812 0.230628C37.5226 0.226574 37.5622 0.222518 37.5929 0.222518C37.7502 0.222518 37.8287 0.311389 37.8284 0.489149C37.8284 0.615713 37.8456 0.837317 37.878 1.15575C37.919 1.62508 37.9424 1.96649 37.9424 2.16962C37.9424 2.57904 37.837 2.78982 37.6271 2.80018C37.524 2.80649 37.4744 2.68623 37.4744 2.44256C37.4917 2.21223 37.4459 1.98156 37.3421 1.77525C37.2382 1.56895 37.0801 1.3948 36.8848 1.2715C36.2936 0.988937 35.6391 0.864781 34.9855 0.911184H33.9946L33.4442 0.975594C33.1672 1.06072 33.0284 1.33592 33.0284 1.79308L33.0231 2.12728Z" fill="#E67B26"/>
<path d="M42.798 8.18707C42.747 8.89376 42.8442 9.60332 43.0836 10.2702C43.1994 10.463 43.3636 10.6222 43.5598 10.7321C43.756 10.8419 43.9775 10.8987 44.2024 10.8967C44.4276 10.9192 44.5415 11.0066 44.5415 11.1611C44.5415 11.3156 44.4483 11.3908 44.2663 11.3908C44.2064 11.3908 44.0948 11.3827 43.9335 11.366C43.4682 11.3313 43.0192 11.3106 42.5882 11.3106C42.2278 11.3106 41.904 11.321 41.6225 11.3417L40.9446 11.4034L40.4001 11.4485C40.2492 11.4647 40.1433 11.471 40.0848 11.471C39.8907 11.471 39.7934 11.3962 39.7934 11.2494C39.7883 11.1978 39.8017 11.1462 39.8312 11.1037C39.8608 11.0611 39.9045 11.0306 39.9546 11.0174C40.2504 10.9497 40.5171 10.7896 40.7158 10.5602C40.8765 10.2974 40.9503 9.99052 40.9266 9.68331V8.91762L40.937 8.60234V2.74707C40.9796 2.29896 40.8948 1.8479 40.6924 1.44585C40.5339 1.25227 40.3366 1.09408 40.1131 0.981505C39.8897 0.868934 39.6451 0.80449 39.3952 0.792315C39.1745 0.758985 39.0624 0.66395 39.0624 0.510812C39.0579 0.479782 39.0607 0.448128 39.0705 0.418361C39.0804 0.388595 39.097 0.361519 39.1191 0.339285C39.1412 0.31705 39.1682 0.300263 39.1979 0.290242C39.2276 0.28022 39.2592 0.277252 39.2903 0.281555C39.3879 0.283657 39.4854 0.29117 39.5821 0.304069C40.037 0.351037 40.4941 0.373294 40.9514 0.370734C41.4976 0.370734 42.1597 0.340701 42.9377 0.280647C43.852 0.210084 44.4816 0.174809 44.8266 0.174809C45.7506 0.140316 46.6563 0.43854 47.3791 1.01526C47.7 1.26481 47.9586 1.58544 48.1346 1.95192C48.3105 2.3184 48.399 2.72073 48.393 3.12721C48.3982 3.64893 48.2408 4.15933 47.9426 4.58743C47.6357 5.03222 47.2066 5.37858 46.7071 5.58462C46.5999 5.62966 46.5481 5.68236 46.5544 5.74812C46.5654 5.81855 46.5932 5.8853 46.6355 5.9427C46.6828 6.01657 46.7553 6.14493 46.8521 6.32284L47.5728 7.60154L48.4065 9.08472C48.606 9.46992 48.8643 9.8217 49.1722 10.1274C49.3899 10.3204 49.6722 10.4244 49.9631 10.4188C50.0794 10.4194 50.1955 10.4091 50.3099 10.3882C50.3687 10.3726 50.4292 10.3643 50.49 10.3634C50.5896 10.3634 50.6369 10.4251 50.6369 10.5499C50.6369 10.7048 50.4162 10.885 49.9757 11.0832C49.608 11.2648 49.2063 11.367 48.7965 11.3831C48.4959 11.3698 48.202 11.2895 47.9363 11.1481C47.6707 11.0066 47.44 10.8076 47.2611 10.5656C46.5399 9.60359 45.9267 8.56517 45.4325 7.46911C45.2615 7.05005 45.0175 6.66469 44.7118 6.33095C44.4406 6.14644 44.1138 6.0616 43.7871 6.09087H43.2867L42.921 6.15483C42.8408 6.19987 42.7989 6.32869 42.7989 6.54399L42.798 8.18707ZM42.798 1.85887V4.66444C42.769 4.89184 42.8165 5.12242 42.9332 5.31978C43.1228 5.43925 43.3483 5.48835 43.5705 5.45851C44.168 5.47226 44.7659 5.45512 45.3617 5.40716C45.6055 5.36605 45.8309 5.25132 46.0076 5.07837C46.2083 4.8908 46.3655 4.66153 46.4681 4.40668C46.5706 4.15183 46.6161 3.8776 46.6012 3.60329C46.6131 3.22859 46.5478 2.85544 46.4094 2.50704C46.271 2.15864 46.0624 1.84242 45.7967 1.57801C45.5309 1.3136 45.2136 1.10665 44.8645 0.970014C44.5154 0.833382 44.1419 0.769981 43.7673 0.783752C43.6316 0.767504 43.494 0.779742 43.3634 0.819682C43.2327 0.859623 43.1118 0.926381 43.0084 1.0157C42.8419 1.26338 42.7675 1.56156 42.798 1.85841V1.85887Z" fill="#E67B26"/>
<path d="M57.0763 0.0608325C58.1748 0.107445 59.2528 0.374739 60.2458 0.846787C60.4327 0.939794 60.632 1.00518 60.8376 1.04091C60.9131 1.04084 60.9856 1.01183 61.0403 0.959842L61.1304 0.877412C61.1821 0.825507 61.2513 0.794692 61.3245 0.79094C61.4858 0.784635 61.5659 0.881024 61.5659 1.08055L61.5578 1.64942L61.5268 2.7601L61.552 3.34564C61.5623 3.49067 61.5786 3.64786 61.597 3.81541C61.6011 3.87982 61.6051 3.92936 61.6051 3.95998C61.6051 4.13384 61.5209 4.21671 61.3547 4.20455C61.2409 4.20005 61.1643 4.087 61.125 3.8654C60.9793 3.1443 60.6219 2.483 60.0985 1.96604C59.7287 1.54821 59.2733 1.21483 58.7633 0.988529C58.2532 0.762224 57.7005 0.648292 57.1425 0.654463C56.6294 0.640083 56.1206 0.750882 55.6599 0.977285C55.1993 1.20369 54.8007 1.53889 54.4986 1.95389C53.7943 2.96533 53.4458 4.18203 53.5077 5.413C53.4615 6.78378 53.8167 8.13822 54.5297 9.30991C55.2122 10.3654 56.0516 10.8923 57.0479 10.8908C57.4325 10.8761 57.8133 10.8091 58.1798 10.6917C58.5469 10.5996 58.8987 10.4547 59.2243 10.2616C59.442 10.117 59.6006 9.89896 59.6711 9.64726C59.7712 9.23794 59.8137 8.81665 59.7972 8.39558C59.8461 7.92017 59.7229 7.44297 59.4499 7.05066C59.0826 6.75155 58.6168 6.60041 58.1438 6.62684C57.9762 6.61648 57.8938 6.53675 57.8938 6.38857C57.8938 6.24038 57.9884 6.16336 58.1852 6.16336C58.2456 6.16336 58.3383 6.16968 58.4685 6.18004C58.9982 6.22508 59.6004 6.2521 60.2701 6.2521C60.7795 6.2597 61.289 6.2412 61.7966 6.1967C61.9979 6.16682 62.201 6.15028 62.4046 6.14716C62.6014 6.14716 62.6987 6.21922 62.6987 6.36245C62.6987 6.49487 62.601 6.57954 62.4068 6.61648C62.2651 6.63925 62.1313 6.69725 62.0177 6.78515C61.9042 6.87304 61.8145 6.98804 61.7569 7.11958C61.6124 7.56023 61.5513 8.02397 61.5767 8.48702C61.5759 8.66523 61.5842 8.84337 61.6015 9.02075C61.6223 9.28949 61.6326 9.47776 61.6326 9.58555C61.6431 9.71619 61.6079 9.84643 61.5331 9.95398C61.4158 10.0618 61.2748 10.1404 61.1214 10.1832C60.9989 10.2283 60.5687 10.4084 59.8346 10.7278C58.7748 11.2285 57.6254 11.5118 56.4543 11.561C55.7868 11.5835 55.1222 11.4627 54.5053 11.2069C53.8884 10.9511 53.3334 10.5661 52.8776 10.0778C51.9274 9.0329 51.427 7.65567 51.485 6.24445C51.4375 4.62521 52.0119 3.04925 53.0902 1.84038C53.5833 1.2694 54.1961 0.813977 54.885 0.506427C55.5739 0.198876 56.322 0.046748 57.0763 0.0608325Z" fill="white"/>
<path d="M66.9712 8.80954C66.9712 9.81889 67.0937 10.386 67.3352 10.508C67.5892 10.5973 67.8589 10.6334 68.1274 10.6139C69.9591 10.6139 71.2569 10.0759 72.0207 9.00006C72.2563 8.67126 72.4031 8.50461 72.4635 8.50461C72.5653 8.50461 72.6126 8.61585 72.6126 8.83745C72.6179 9.51168 72.379 10.1651 71.9401 10.6769C71.7445 10.9123 71.4971 11.0993 71.2172 11.223C70.9373 11.3468 70.6325 11.4041 70.3268 11.3904C70.188 11.3904 69.9291 11.3782 69.557 11.3507L68.5846 11.2931L67.7014 11.2521C67.4032 11.2377 67.0658 11.2291 66.6875 11.2291C66.0101 11.2322 65.3334 11.2737 64.6607 11.3534C64.44 11.3782 64.2909 11.3904 64.2161 11.3904C64.0589 11.3904 63.9805 11.3205 63.9805 11.1778C63.9805 11.076 64.0504 11.0075 64.1891 10.9683C64.343 10.9344 64.4874 10.8664 64.6116 10.7694C64.7359 10.6723 64.8368 10.5487 64.907 10.4076C65.0665 9.97181 65.1341 9.50779 65.1057 9.04465V2.28677C65.1057 1.42379 64.7468 0.935546 64.0292 0.822043L63.5414 0.740974C63.3369 0.709896 63.2333 0.627023 63.2333 0.494603C63.2284 0.461223 63.2312 0.427135 63.2417 0.395046C63.2521 0.362957 63.2699 0.333733 63.2936 0.309674C63.3172 0.285616 63.3461 0.267388 63.3781 0.256411C63.41 0.245435 63.444 0.242022 63.4774 0.246432C63.5566 0.248855 63.6355 0.257132 63.7135 0.271201C63.7878 0.275255 63.8936 0.285611 64.0287 0.301826L64.3769 0.326595C64.7075 0.359925 64.9539 0.376147 65.1174 0.376147C65.5324 0.364462 65.9465 0.331991 66.3582 0.278857C66.7873 0.234745 67.2183 0.212644 67.6495 0.212646C67.9743 0.212646 68.1373 0.29101 68.1373 0.444598C68.1373 0.577017 68.0193 0.649995 67.7883 0.659904C67.2415 0.696837 66.9682 1.07218 66.9685 1.78592L66.9712 8.80954Z" fill="white"/>
<path d="M79.2348 0.0441731C80.7375 -0.0224018 82.2058 0.506891 83.3204 1.51699C83.8385 2.01442 84.2451 2.61615 84.5134 3.28241C84.7816 3.94866 84.9054 4.66427 84.8766 5.38192C84.9186 7.00332 84.3449 8.58046 83.2709 9.7959C82.2289 10.9751 80.792 11.5639 78.96 11.5624C78.1931 11.5997 77.4264 11.4831 76.7052 11.2193C75.984 10.9556 75.3229 10.5502 74.7609 10.027C74.2299 9.48752 73.8161 8.84411 73.5455 8.13716C73.2749 7.4302 73.1534 6.67496 73.1885 5.91881C73.1923 5.16952 73.3267 4.42662 73.5858 3.72352C73.8321 2.99863 74.2356 2.33715 74.7674 1.78641C75.2993 1.23568 75.9462 0.809302 76.6621 0.537807C77.4794 0.207696 78.3533 0.0400331 79.2348 0.0441731ZM78.6493 0.652209C78.159 0.631271 77.6711 0.730186 77.2278 0.940365C76.7844 1.15054 76.399 1.46565 76.1049 1.8584C75.4927 2.66522 75.1873 3.78718 75.1888 5.22427C75.1227 6.69083 75.5261 8.14023 76.3405 9.3617C76.6653 9.85633 77.1093 10.2614 77.6315 10.5396C78.1538 10.8178 78.7376 10.9603 79.3294 10.9539C79.8462 10.9679 80.3586 10.8551 80.8218 10.6255C81.2851 10.3958 81.685 10.0563 81.9868 9.63645C82.6965 8.60394 83.0466 7.36649 82.9831 6.11517C82.9824 5.2658 82.8261 4.42375 82.5218 3.63074C82.2649 2.90232 81.843 2.24317 81.2891 1.70481C80.5833 1.01962 79.6352 0.641254 78.6515 0.652209H78.6493Z" fill="white"/>
<path d="M87.4539 2.60152C87.4539 1.51364 87.0104 0.917161 86.1234 0.812066L85.7509 0.764769C85.6329 0.754409 85.573 0.6747 85.573 0.535525C85.573 0.37428 85.6491 0.293196 85.8005 0.293196L86.0027 0.301305L86.609 0.335091C87.1121 0.357611 87.4327 0.36797 87.5746 0.36797C87.965 0.36797 88.6753 0.321722 89.7055 0.229239C90.3433 0.171587 90.881 0.139166 91.3193 0.139166C92.297 0.0912188 93.2651 0.350965 94.0875 0.881878C94.4135 1.0971 94.6799 1.39127 94.8618 1.73704C95.0437 2.08282 95.1353 2.46897 95.1279 2.8596C95.1521 3.28523 95.0391 3.70741 94.8056 4.0641C94.5722 4.4208 94.2305 4.69324 93.8308 4.8414C93.6326 4.92833 93.5285 5.00264 93.5227 5.06075C93.5182 5.15803 93.6222 5.22424 93.838 5.25487C94.4621 5.34545 95.0316 5.66119 95.4391 6.14261C95.8388 6.64031 96.0465 7.26489 96.0247 7.9028C96.0466 8.37925 95.9615 8.85454 95.7757 9.29381C95.5898 9.73308 95.3081 10.1252 94.9509 10.4413C94.1294 11.0984 93.0949 11.4304 92.0444 11.3741L90.4 11.3259L89.1357 11.3016C88.4319 11.2966 87.7283 11.3289 87.0278 11.3984C86.8563 11.4198 86.6836 11.4307 86.5108 11.4313C86.3477 11.4313 86.2666 11.3592 86.2666 11.2164C86.2666 11.0962 86.3396 11.0201 86.4842 10.9912C87.1292 10.8837 87.4513 10.326 87.4507 9.31798L87.4539 2.60152ZM89.3177 1.898V4.22569C89.3042 4.34671 89.3174 4.46921 89.3563 4.5846C89.3952 4.69998 89.4589 4.80546 89.5429 4.89364C89.7796 5.04267 90.0589 5.10948 90.3374 5.08371L91.4562 5.10848L91.9593 5.08371C92.8841 4.96991 93.3461 4.4162 93.3452 3.42261C93.3602 3.06208 93.2994 2.70241 93.1669 2.36681C93.0343 2.0312 92.8328 1.72711 92.5755 1.47416C92.3036 1.22233 91.9845 1.02701 91.6365 0.899514C91.2886 0.772016 90.9188 0.714888 90.5486 0.73145C90.2029 0.692007 89.8545 0.77712 89.5659 0.971511C89.3667 1.23747 89.2777 1.56991 89.3172 1.8998L89.3177 1.898ZM89.3177 7.29565V8.63786L89.3424 8.94413L89.3988 9.63325C89.4645 10.4113 90.0814 10.7995 91.2495 10.798C92.4019 10.798 93.1895 10.5201 93.6123 9.96431C93.9643 9.48121 94.1467 8.89532 94.1312 8.2978C94.1312 7.02946 93.5659 6.24876 92.4354 5.9557C91.707 5.78106 90.9598 5.69709 90.2108 5.70572C89.8205 5.70572 89.5737 5.79881 89.4704 5.98498C89.3338 6.40822 89.2818 6.85416 89.3172 7.29746L89.3177 7.29565Z" fill="white"/>
<path d="M102.862 1.17204L106.549 9.63469C106.69 9.99814 106.912 10.3248 107.198 10.59C107.476 10.8134 107.809 10.9585 108.162 11.0102C108.26 11.0269 108.307 11.1035 108.307 11.2417C108.307 11.3886 108.245 11.4611 108.121 11.4548C108.018 11.4457 107.915 11.4299 107.813 11.4075C107.148 11.2965 106.474 11.25 105.8 11.2688C105.163 11.2457 104.526 11.2887 103.899 11.3971C103.831 11.4182 103.76 11.4301 103.689 11.4323C103.658 11.4362 103.627 11.4328 103.597 11.4225C103.568 11.4121 103.541 11.3951 103.519 11.3726C103.497 11.3502 103.481 11.323 103.471 11.2932C103.462 11.2633 103.459 11.2317 103.464 11.2008C103.464 11.1246 103.523 11.0656 103.644 11.0273C103.893 10.9572 104.117 10.8164 104.288 10.622C104.447 10.4559 104.538 10.2359 104.542 10.0058C104.414 9.30846 104.177 8.63543 103.841 8.01099C103.694 7.69885 103.535 7.51914 103.359 7.4732C102.741 7.40328 102.119 7.37964 101.497 7.40248H100.396L99.6703 7.5331C99.469 7.62318 99.2438 7.9799 98.9893 8.60011L98.7389 9.22303C98.6651 9.39375 98.6264 9.57754 98.6249 9.76351C98.6249 10.4421 99.1009 10.8359 100.053 10.9449C100.257 10.972 100.357 11.0508 100.353 11.1832C100.342 11.3278 100.245 11.398 100.061 11.398C99.9212 11.3931 99.7822 11.377 99.6451 11.3498C99.3299 11.2836 99.0091 11.2475 98.6871 11.2422C98.4331 11.2422 98.0214 11.271 97.4521 11.3251C97.03 11.3701 96.767 11.3895 96.6661 11.3895C96.5152 11.3895 96.4409 11.3233 96.4409 11.1913C96.4409 11.0814 96.517 10.999 96.6661 10.9449C96.9491 10.8587 97.1957 10.6813 97.3674 10.4405C97.6712 9.94614 97.9328 9.4271 98.1493 8.88883L100.363 3.79113C100.541 3.38577 100.665 3.10787 100.736 2.95744L101.488 1.41164L101.877 0.650459V0.675228C102.051 0.264008 102.167 0.059082 102.227 0.059082C102.314 0.059082 102.461 0.284275 102.674 0.739185L102.862 1.17204ZM103.165 6.23773L102.107 3.76367C101.853 3.17184 101.673 2.87637 101.567 2.87637C101.503 2.87637 101.387 3.06644 101.212 3.44929L101.058 3.78844L100.113 5.94812L100.023 6.14856C99.9876 6.21358 99.9676 6.2856 99.964 6.35935C99.964 6.53952 100.159 6.63275 100.545 6.63275H102.939C103.143 6.63275 103.247 6.57644 103.247 6.46248C103.241 6.41553 103.227 6.36991 103.206 6.32737L103.165 6.23773Z" fill="white"/>
<path d="M111.93 8.80954C111.93 9.8189 112.05 10.386 112.294 10.508C112.547 10.5978 112.817 10.6338 113.084 10.6139C114.916 10.6139 116.214 10.0759 116.978 9.00006C117.214 8.67126 117.363 8.50461 117.423 8.50461C117.522 8.50461 117.571 8.61585 117.571 8.83745C117.576 9.51174 117.337 10.1651 116.898 10.6769C116.702 10.9121 116.455 11.0989 116.176 11.2226C115.896 11.3464 115.592 11.4038 115.286 11.3904C115.144 11.3904 114.889 11.3782 114.515 11.3507L113.542 11.2931L112.659 11.2521C112.363 11.2377 112.024 11.2291 111.645 11.2291C110.968 11.2322 110.291 11.2737 109.619 11.3534C109.397 11.3782 109.248 11.3904 109.171 11.3904C109.016 11.3904 108.938 11.3205 108.938 11.1778C108.938 11.076 109.009 11.0075 109.149 10.9683C109.303 10.9337 109.447 10.8655 109.571 10.7685C109.695 10.6715 109.796 10.5483 109.867 10.4076C110.024 9.97138 110.091 9.50759 110.063 9.04465V2.28677C110.063 1.42379 109.706 0.935546 108.985 0.822044L108.5 0.740974C108.294 0.709896 108.191 0.627023 108.191 0.494603C108.186 0.461027 108.189 0.42675 108.2 0.39451C108.211 0.362271 108.228 0.332949 108.252 0.308863C108.276 0.284778 108.305 0.266604 108.338 0.255765C108.37 0.244927 108.404 0.241732 108.438 0.246432C108.516 0.248946 108.594 0.257222 108.671 0.271201C108.748 0.275255 108.854 0.285611 108.986 0.301826L109.336 0.326595C109.666 0.359925 109.912 0.376447 110.074 0.376147C110.333 0.376147 110.75 0.343265 111.318 0.278858C111.746 0.234751 112.176 0.21265 112.606 0.212646C112.931 0.212646 113.094 0.29101 113.094 0.444598C113.094 0.577017 112.976 0.649995 112.745 0.659904C112.199 0.696837 111.927 1.07157 111.927 1.78592L111.93 8.80954Z" fill="white"/>
</g>
<defs>
<clipPath id="clip0_2990_1741">
<rect width="117.105" height="11.5164" fill="white" transform="translate(0.464844 0.0441895)"/>
</clipPath>
</defs>
</svg>
