<svg width="50" height="17" viewBox="0 0 50 17" fill="none" xmlns="http://www.w3.org/2000/svg">
<path d="M17.5879 15.9082L20.0793 0.472086H24.0639L21.5725 15.9082H17.5879Z" fill="white"/>
<path d="M36.0284 0.852487C35.2415 0.540905 34.0001 0.203664 32.4569 0.203664C28.5187 0.203664 25.745 2.2992 25.7194 5.29894C25.6974 7.51789 27.7001 8.75688 29.2103 9.49246C30.7645 10.2476 31.2875 10.7302 31.2802 11.4059C31.268 12.4409 30.0387 12.915 28.8938 12.915C27.2993 12.915 26.4525 12.6804 25.139 12.1049L24.6282 11.8593L24.0698 15.3135C24.9985 15.7436 26.7213 16.1175 28.5114 16.1359C32.6976 16.1359 35.4175 14.066 35.4493 10.8659C35.4639 9.10512 34.4033 7.77326 32.1037 6.67112C30.7096 5.95509 29.8555 5.481 29.8652 4.75642C29.8652 4.11371 30.5874 3.427 32.1489 3.427C33.4539 3.40868 34.3948 3.70682 35.1316 4.02206L35.4871 4.19679L36.0284 0.852487Z" fill="white"/>
<path d="M41.3424 10.4341C41.6723 9.54705 42.9296 6.12088 42.9296 6.12088C42.9064 6.16242 43.2571 5.22523 43.4599 4.64728L43.7288 5.97914C43.7288 5.97914 44.4924 9.66313 44.6501 10.4341H41.3424ZM46.2593 0.487972H43.1777C42.2234 0.487972 41.5074 0.761676 41.0895 1.76851L35.1707 15.9106H39.3568C39.3568 15.9106 40.0399 14.0094 40.1951 13.5915C40.6508 13.5915 44.7173 13.6013 45.2977 13.6013C45.4186 14.1401 45.784 15.9106 45.784 15.9106H49.4826L46.2593 0.487972Z" fill="white"/>
<path d="M14.2412 0.484199L10.3397 11.0071L9.9243 8.8688C9.19728 6.40547 6.93434 3.7332 4.40259 2.39401L7.97295 15.8947L12.1897 15.8922L18.4653 0.484199H14.2412Z" fill="white"/>
<path d="M6.72626 0.47489H0.296682L0.244141 0.795024C5.24655 2.07434 8.5542 5.15839 9.92883 8.86926L8.53343 1.7762C8.28905 0.799911 7.59013 0.509102 6.72626 0.47489Z" fill="white"/>
</svg>
